{"glyphs":{"0":{"ha":620,"x_min":0,"x_max":0,"o":"m 85 284 b 173 280 112 270 143 269 b 228 288 187 285 203 288 b 386 363 289 290 338 313 b 428 397 400 379 416 391 b 547 519 478 421 520 464 b 503 649 582 589 569 626 b 478 655 493 652 481 655 b 466 672 475 655 470 662 b 385 740 453 703 409 740 b 365 754 381 740 372 747 b 342 771 358 762 348 769 b 272 747 328 774 298 764 b 175 711 249 732 216 719 b 70 626 125 700 94 675 b 47 499 50 584 45 554 b 53 442 48 475 51 449 b 51 412 56 431 56 425 b 43 361 48 402 44 380 b 52 311 42 329 42 327 b 85 284 60 299 68 292 z m 159 297 b 131 294 154 296 141 295 b 73 319 107 294 86 303 b 64 354 65 329 63 333 b 66 388 64 367 65 382 b 77 380 69 398 69 398 b 147 311 88 357 118 328 b 159 297 166 300 167 299 z m 248 311 b 240 309 253 310 249 309 b 233 311 232 309 228 310 b 248 311 237 312 244 312 z m 324 339 b 311 330 325 339 319 334 b 297 324 304 326 297 323 b 324 339 297 326 322 341 z m 152 335 b 149 333 157 329 156 328 b 145 338 146 335 144 337 b 152 335 146 339 149 338 z m 259 374 b 224 373 251 367 235 367 b 233 385 216 377 216 378 b 259 374 259 396 275 389 z m 351 424 b 315 395 331 404 315 391 b 324 415 315 396 319 405 b 341 454 329 424 336 442 b 364 511 346 467 356 492 b 396 621 380 547 396 605 b 400 629 396 627 398 630 b 398 542 405 625 404 575 b 382 478 395 525 388 497 b 351 424 372 447 369 442 z m 219 402 b 207 398 218 401 212 399 b 190 407 198 397 195 398 b 201 415 180 423 183 425 b 219 402 221 404 221 404 z m 162 421 b 167 400 166 409 168 400 b 150 415 166 400 159 407 b 135 444 135 429 134 432 l 136 458 l 146 450 b 162 421 151 445 158 432 z m 285 412 b 271 403 278 400 274 398 b 281 414 270 404 275 410 l 291 423 z m 278 442 b 251 418 270 434 258 423 b 256 442 237 408 238 412 l 269 462 l 257 448 b 238 425 251 441 242 430 l 230 416 l 203 430 l 176 445 l 177 471 b 218 560 179 505 194 537 b 304 601 237 578 280 598 b 326 595 319 603 322 602 b 332 563 328 590 331 576 b 325 518 333 544 332 536 b 278 442 313 488 295 460 z m 461 439 b 445 453 424 411 424 411 b 478 590 470 505 478 536 b 511 624 478 641 477 640 b 545 592 535 613 540 608 b 461 439 555 558 509 474 z m 163 512 b 156 480 161 506 158 492 l 154 459 l 143 468 b 137 488 134 477 133 478 b 154 510 140 494 147 504 l 166 522 z m 102 529 b 86 505 87 491 83 485 b 122 579 88 521 109 564 l 131 590 l 123 576 b 102 529 119 568 110 547 z m 451 558 l 451 558 b 445 529 449 543 446 530 b 444 572 445 529 444 548 b 448 612 444 606 445 615 b 451 558 456 606 457 587 z m 101 587 b 90 578 89 569 87 566 b 132 649 97 602 115 633 b 205 694 149 666 195 694 b 175 662 211 694 197 679 b 101 587 147 640 113 606 z m 359 617 b 350 611 356 600 355 599 b 354 631 345 625 346 631 b 359 617 360 631 361 629 z m 299 655 b 262 635 299 654 283 645 b 232 622 242 625 228 619 b 299 655 241 629 297 657 z m 251 660 b 210 641 236 654 217 645 l 196 633 l 212 650 b 275 676 237 675 264 687 b 251 660 278 673 272 669 z m 444 669 b 440 659 450 659 450 659 b 419 673 432 659 427 663 b 395 700 414 681 403 693 b 390 717 380 714 378 721 b 444 669 411 711 433 691 z m 328 689 b 298 686 323 683 304 681 b 311 691 293 690 294 691 b 328 689 322 691 329 690 z m 331 738 b 301 734 319 736 306 734 b 310 742 294 734 295 736 b 344 747 330 752 334 753 b 331 738 351 743 350 742 z "},"1":{"ha":377,"x_min":0,"x_max":0,"o":"m 185 -103 b 206 -106 191 -113 203 -116 b 196 -36 208 -103 203 -71 b 186 36 186 11 184 31 b 185 106 188 40 188 64 b 180 293 179 173 176 290 b 184 263 181 294 183 281 b 206 133 187 222 200 148 b 225 126 211 121 217 119 b 229 121 228 129 229 128 b 250 19 229 107 245 28 b 270 17 255 10 267 9 b 263 87 271 21 268 52 b 251 164 258 123 252 157 b 254 168 250 176 250 176 b 276 161 260 158 273 154 b 273 219 277 164 275 190 b 268 281 270 248 268 276 b 280 237 268 299 274 277 b 319 137 291 158 306 120 b 315 190 323 142 322 151 b 283 405 301 265 290 347 b 279 847 277 472 274 701 l 282 947 l 301 974 b 315 1017 322 1002 325 1013 b 296 1003 311 1018 305 1014 b 278 1014 281 986 279 987 b 270 1031 277 1026 275 1030 b 257 1012 262 1033 257 1026 b 249 992 257 1006 254 997 l 241 982 l 241 996 b 257 1033 241 1006 245 1016 b 267 1062 271 1054 272 1058 b 243 1052 260 1069 254 1066 b 163 966 221 1022 168 965 b 149 946 156 966 152 960 b 132 918 148 941 141 928 b 93 867 124 907 106 885 l 69 835 l 94 862 l 119 888 l 85 835 b 30 751 67 806 42 768 b 13 713 13 726 10 719 b 2 688 15 708 13 703 b -10 664 -6 678 -11 667 b -9 658 -9 661 -9 659 b -2 656 -9 657 -5 656 b 27 674 2 656 15 665 b 45 685 40 685 47 690 b 61 666 38 672 50 658 b 94 705 63 668 78 685 b 124 741 110 725 123 741 b 123 562 125 741 124 660 b 126 327 122 441 123 364 b 133 176 128 297 131 229 b 155 -10 136 80 140 44 b 185 -103 165 -47 179 -91 z m 214 277 l 214 277 b 214 262 214 273 214 267 b 212 268 213 258 212 261 b 214 277 212 276 213 280 z m 210 308 l 210 308 b 210 294 211 305 211 299 b 208 300 209 290 208 293 b 210 308 208 308 209 312 z m 206 333 b 206 326 207 332 207 329 b 204 328 205 323 204 324 b 206 333 204 332 205 334 z m 159 681 b 157 584 160 652 160 618 l 152 531 l 152 591 b 154 688 152 624 153 668 l 156 725 z m 84 761 b 77 756 81 758 78 756 b 80 761 76 756 78 758 b 86 766 82 764 85 766 b 84 761 87 766 86 764 z m 232 859 b 231 837 232 847 232 837 b 229 875 228 837 226 870 b 232 859 231 880 232 875 z m 236 927 l 236 927 b 229 914 236 925 233 919 b 225 913 223 908 222 908 b 236 927 231 925 236 931 z m 257 959 b 252 948 257 957 255 952 b 247 945 249 945 247 943 b 252 956 247 947 249 952 b 257 959 255 960 257 961 z m 225 959 b 219 954 223 956 220 954 b 222 959 218 954 219 956 b 228 964 224 962 227 964 b 225 959 229 964 228 962 z m 236 973 b 230 968 233 970 231 968 b 232 973 229 968 230 970 b 239 979 235 976 238 979 b 236 973 240 979 238 976 z "},"2":{"ha":602,"x_min":0,"x_max":0,"o":"m 76 102 b 103 110 82 91 92 94 b 118 121 112 123 114 125 b 151 156 126 113 134 121 b 169 196 160 174 168 192 b 369 286 174 211 317 275 b 453 310 407 294 456 308 b 393 298 452 312 440 309 b 391 300 387 297 387 297 b 493 333 397 304 449 321 b 540 359 523 340 540 350 b 549 370 540 362 544 367 b 558 386 555 374 558 379 b 529 400 558 397 553 400 b 512 410 512 400 512 400 b 503 425 512 418 509 422 b 494 432 498 427 494 431 b 342 409 494 442 386 426 b 332 416 338 408 335 410 b 347 464 328 424 330 429 b 386 557 357 486 375 528 b 409 648 404 604 406 615 b 414 712 411 668 413 697 b 400 803 417 744 412 780 b 363 830 389 825 386 827 b 318 819 344 832 341 831 l 294 807 l 305 819 b 317 834 312 825 317 832 b 299 844 317 841 307 847 b 212 785 287 841 231 802 b 171 768 194 769 193 768 b 123 750 139 768 124 762 b 133 733 122 742 124 738 b 149 724 140 729 147 725 b 74 630 152 723 152 723 b 29 553 24 571 16 557 b 49 566 31 552 40 558 b 67 575 61 577 65 579 b 76 570 68 572 72 570 b 186 647 86 570 141 608 b 232 683 208 667 229 683 b 249 685 235 683 243 684 b 265 674 259 687 260 686 b 278 651 268 667 274 657 l 285 641 l 269 572 b 246 484 260 535 250 495 b 154 327 240 466 189 380 b 140 286 137 301 132 288 b 89 235 142 285 119 262 b 34 179 45 197 33 185 b 43 170 35 174 38 171 b 51 164 48 169 51 167 b 79 162 51 155 60 155 b 97 168 89 166 97 168 b 85 138 97 168 92 154 b 76 102 76 116 74 106 z m 193 339 b 178 318 189 330 183 321 b 184 333 172 314 173 317 b 198 354 191 345 198 354 b 193 339 199 354 197 347 z m 310 473 b 304 467 310 472 307 469 b 301 468 300 463 299 463 b 310 473 303 473 310 477 z m 331 478 b 327 474 331 476 329 474 b 327 479 323 474 323 477 b 331 478 329 481 331 480 z m 337 521 b 322 503 334 515 328 507 b 313 502 313 494 313 494 b 319 521 313 506 316 515 b 333 532 324 531 326 533 b 337 521 341 530 341 529 z m 351 557 b 361 605 332 544 334 552 b 369 596 385 651 386 650 b 351 557 363 574 356 561 z m 143 658 b 122 635 143 657 134 647 b 101 616 110 624 101 615 b 122 639 101 617 110 627 b 143 658 134 650 143 659 z m 293 684 b 286 678 290 667 290 667 b 289 695 280 690 280 693 b 293 684 295 696 296 695 z m 172 745 l 172 745 b 159 743 172 742 166 741 b 162 747 153 746 153 746 b 172 745 167 747 172 746 z m 391 769 b 379 772 391 762 386 764 b 368 779 375 776 370 779 b 361 782 365 779 362 780 b 371 806 358 787 367 808 b 391 769 376 805 391 776 z m 306 780 b 300 775 304 778 301 775 b 303 780 299 775 300 778 b 309 786 305 783 308 786 b 306 780 310 786 309 783 z "},"3":{"ha":583,"x_min":0,"x_max":0,"o":"m 6 122 l 6 122 b 109 129 9 114 71 118 l 138 137 l 137 128 b 179 138 137 113 147 116 b 255 169 207 157 250 175 b 242 151 256 168 250 160 b 233 120 227 135 224 123 b 268 145 241 117 243 119 b 293 164 283 160 290 166 b 305 160 295 162 300 160 b 381 238 317 160 360 204 b 431 291 394 259 404 270 b 465 326 457 311 465 320 b 459 394 467 354 465 374 b 455 417 456 405 454 416 b 490 408 456 418 472 414 b 539 409 528 395 537 395 b 535 419 539 415 538 419 b 462 488 533 419 500 450 b 386 580 399 552 393 559 b 359 620 375 609 367 620 b 351 599 349 620 346 611 b 353 589 353 593 354 589 b 335 598 352 589 344 593 l 319 607 l 333 622 b 358 651 341 630 352 643 b 396 686 365 659 382 675 b 417 721 423 706 429 716 b 384 705 412 723 402 717 b 357 689 370 695 358 688 b 357 699 356 690 356 694 b 396 728 360 710 381 726 b 420 732 402 729 413 731 b 433 742 431 734 433 736 b 408 755 433 752 427 755 b 394 762 397 755 394 756 b 391 771 394 766 393 770 b 388 784 389 772 388 778 b 380 796 389 794 388 796 b 372 803 372 796 371 797 b 362 817 373 809 371 813 b 349 824 355 820 349 824 b 367 857 348 825 357 839 b 387 892 378 875 387 890 b 382 900 387 894 385 898 b 355 879 375 906 366 898 l 347 866 l 333 870 b 308 877 325 873 314 876 b 299 884 303 878 299 881 b 211 889 299 889 287 890 b 124 882 131 888 123 887 b 74 871 124 875 112 873 b 52 863 55 870 52 869 b 219 803 52 846 149 811 b 302 788 266 798 302 791 b 265 720 302 785 286 755 b 234 666 253 699 239 675 b 159 613 224 649 201 633 b 140 597 147 607 141 602 b 171 594 138 585 149 584 b 155 575 193 604 193 604 b 122 530 124 552 115 538 b 164 539 128 522 135 524 l 191 553 l 197 545 b 211 537 201 541 207 537 b 251 516 224 536 232 532 b 284 490 260 508 276 496 b 359 409 305 476 359 417 b 339 389 359 407 350 398 b 253 281 314 367 277 321 b 214 240 235 253 231 248 b 151 229 186 226 175 224 b -11 201 100 241 20 227 b 1 203 -22 192 -21 192 b 49 218 14 208 36 216 b 132 220 77 224 124 225 b 130 217 136 217 136 217 b 46 193 116 217 63 202 b 29 162 28 184 21 171 b 28 156 33 157 33 156 b 22 140 20 156 17 147 b 18 135 26 136 25 135 b 6 122 7 135 3 130 z m 97 171 b 61 170 84 167 80 167 b 77 182 49 173 50 173 b 120 193 93 187 112 192 l 134 196 l 125 190 b 113 179 120 186 115 181 b 97 171 111 177 104 173 z m 437 325 b 421 316 429 320 422 316 b 425 332 420 316 422 323 b 447 341 431 349 441 353 b 437 325 450 335 448 333 z m 378 352 b 371 359 354 320 353 322 b 390 379 383 382 385 384 b 378 352 395 374 393 371 z m 412 401 l 412 401 b 403 405 412 396 410 396 b 404 408 396 412 396 412 b 412 401 408 406 412 403 z m 468 450 b 480 433 477 440 482 433 b 447 469 475 433 447 464 b 450 470 447 472 448 472 b 468 450 452 468 460 459 z m 356 507 b 365 493 362 499 366 493 b 350 504 365 493 358 498 b 332 527 335 515 328 524 b 356 507 335 530 343 523 z m 380 531 b 368 540 380 525 374 529 l 362 551 l 371 543 b 380 531 376 538 380 533 z m 265 544 b 274 535 271 539 275 535 b 249 552 271 536 249 550 b 265 544 249 555 255 552 z m 304 559 b 299 560 311 534 308 535 b 293 584 294 572 292 583 b 304 559 295 586 296 583 z m 343 567 b 345 558 350 562 350 561 b 323 566 338 553 323 559 b 321 576 323 568 322 573 b 327 578 319 582 320 582 b 343 567 332 575 339 571 z m 320 663 b 316 659 320 661 318 659 b 316 665 312 659 312 662 b 320 663 318 666 320 665 z m 341 773 b 332 762 341 772 337 767 l 322 753 l 329 765 b 341 773 335 776 341 780 z m 331 837 b 308 833 327 829 320 828 b 311 837 302 835 302 836 b 328 842 317 839 325 841 b 331 837 334 844 334 844 z "},"4":{"ha":522,"x_min":0,"x_max":0,"o":"m 310 55 b 326 51 314 44 323 42 b 342 146 327 57 342 141 b 351 148 342 147 346 148 b 361 154 356 148 360 150 b 365 259 362 158 364 205 b 372 455 367 359 369 407 l 374 480 l 397 482 b 463 499 429 486 459 494 b 453 522 469 509 466 517 b 448 532 440 527 440 528 b 437 561 470 543 464 558 b 397 579 415 564 405 568 b 402 663 390 588 391 589 b 415 739 408 704 414 738 b 404 754 417 742 409 754 b 390 727 397 754 395 749 l 385 709 l 387 738 b 393 806 388 753 391 784 b 392 851 396 839 396 847 b 375 842 386 858 377 854 b 363 837 373 833 363 829 b 367 842 363 840 365 842 b 363 862 374 842 370 859 b 357 871 358 863 356 866 b 330 878 362 890 348 894 b 313 867 323 872 316 867 b 219 768 306 867 253 812 b 151 683 204 749 173 711 b 39 527 75 589 37 535 b 67 530 42 517 54 518 b 73 532 75 537 76 538 b 48 515 68 521 62 517 b 31 508 41 513 34 510 b 34 488 24 503 26 492 b 141 466 45 482 99 471 b 177 457 171 463 179 461 b 189 437 175 450 181 439 b 288 419 194 435 239 427 b 299 397 299 417 299 417 b 303 351 300 385 301 365 b 306 213 305 337 306 275 b 310 55 306 66 306 66 z m 331 172 l 331 172 b 322 123 329 160 325 138 l 317 97 l 319 122 b 324 159 320 136 323 153 b 328 180 326 166 328 175 b 331 192 328 186 329 191 b 331 172 332 193 332 184 z m 299 457 b 297 439 299 447 298 439 b 207 455 278 441 209 454 b 227 463 204 458 216 463 b 268 470 233 463 251 466 l 299 476 z m 173 487 b 165 485 177 486 174 485 b 157 487 156 485 152 486 b 173 487 161 488 168 488 z m 139 490 b 133 489 143 489 140 489 b 127 490 126 489 123 489 b 139 490 130 491 136 491 z m 113 494 b 108 492 115 493 113 492 b 104 494 103 492 101 493 b 113 494 106 495 110 495 z m 420 508 b 388 506 415 504 388 502 b 404 509 388 508 395 509 b 420 508 414 509 420 509 z m 306 582 b 234 578 305 581 273 580 b 167 580 175 576 164 576 b 255 699 176 595 221 656 b 306 767 276 726 299 757 b 319 785 312 778 318 786 b 317 752 319 784 318 769 b 314 669 315 734 314 697 b 306 582 313 622 310 586 z m 326 835 b 320 832 325 833 322 832 b 321 837 318 832 318 834 b 326 835 326 843 330 841 z "},"5":{"ha":480,"x_min":0,"x_max":0,"o":"m -62 116 l -62 116 b 96 117 -57 110 1 111 b 231 135 175 122 208 127 b 256 140 242 138 253 141 b 266 150 259 138 262 142 b 288 170 269 158 276 164 b 315 188 298 175 310 183 l 325 197 l 323 187 b 327 172 322 181 323 176 b 355 199 336 163 344 171 b 371 234 361 213 368 229 b 393 295 380 247 393 284 b 397 335 392 300 394 318 b 385 503 408 396 403 468 b 357 499 375 524 357 521 b 348 492 357 489 354 486 b 326 501 346 494 336 498 b 312 514 310 507 308 509 b 271 535 319 526 308 532 l 238 538 l 267 538 b 302 554 297 539 306 543 b 224 559 299 561 285 562 b 170 558 195 558 170 557 b 182 652 169 559 174 601 l 195 744 l 235 744 b 417 774 291 744 390 760 b 429 786 423 777 428 782 b 400 815 431 795 416 809 l 388 819 l 397 829 b 252 836 431 864 370 867 b 171 827 199 822 174 819 b 144 820 168 835 161 834 b 111 806 132 812 124 808 b 89 798 99 805 92 803 b 79 786 86 795 82 789 b 74 770 76 783 74 776 b 69 733 74 765 72 748 b 73 567 56 673 58 588 b 79 537 77 561 79 551 l 79 515 l 93 515 l 106 515 l 106 485 b 110 451 105 462 106 454 b 128 463 118 444 126 449 b 137 475 130 471 132 475 b 150 487 140 475 146 480 l 157 500 l 183 498 b 255 473 206 496 215 493 b 313 448 279 461 305 449 l 326 445 l 324 427 b 319 360 323 417 321 387 b 305 291 317 312 316 310 b 295 280 298 280 294 275 b 282 258 300 296 293 284 l 272 232 l 226 217 b 112 183 201 209 150 193 b 39 159 75 172 42 161 b 36 148 36 157 35 152 b 35 142 37 145 36 142 b -63 124 25 142 -60 126 b -62 116 -65 122 -64 119 z m 316 259 b 304 242 313 247 310 242 b 297 243 300 241 297 242 b 311 271 297 245 303 257 b 316 259 325 296 325 295 z m 353 287 l 353 287 b 344 268 353 277 351 272 b 344 283 333 261 333 263 l 353 299 z m 332 292 b 328 280 332 288 330 283 b 327 285 326 276 325 278 b 332 292 330 298 332 301 z m 364 387 b 360 376 364 384 362 379 b 357 380 358 371 357 372 b 360 392 357 385 358 390 b 364 387 362 393 364 391 z m 115 585 b 115 577 116 583 116 579 b 113 581 114 574 113 576 b 115 585 113 586 114 588 z m 122 641 b 120 608 122 631 121 615 l 117 593 l 117 611 b 119 645 116 621 118 636 l 122 661 z m 125 679 b 125 672 126 678 126 675 b 123 675 124 670 123 670 b 125 679 123 678 124 680 z m 126 762 b 123 744 129 760 129 756 b 116 739 116 729 116 729 b 126 762 117 756 121 765 z m 364 831 b 328 829 354 825 343 825 b 339 834 321 831 323 832 b 366 836 350 835 362 836 b 364 831 372 836 372 835 z "},"6":{"ha":538,"x_min":0,"x_max":0,"o":"m 259 175 l 259 175 b 281 177 264 168 263 167 b 311 184 290 181 302 184 b 330 189 321 183 327 185 b 355 205 333 193 344 200 b 388 228 365 211 380 221 b 405 242 395 236 403 242 b 413 243 408 242 411 242 b 421 253 415 243 419 248 b 430 258 425 260 427 261 b 442 254 432 256 438 254 b 452 264 448 254 451 256 b 465 282 453 270 459 278 b 465 306 478 292 478 305 b 467 371 455 308 456 309 b 488 428 477 427 476 425 b 490 461 502 432 503 437 b 477 498 484 471 479 487 b 468 529 476 508 472 522 b 461 560 463 537 461 547 b 447 581 461 579 457 584 b 443 570 445 580 443 575 b 439 568 443 561 443 561 b 430 576 438 573 433 576 b 408 587 426 576 416 581 b 377 591 389 599 388 599 b 359 592 368 583 356 585 b 325 618 363 601 351 611 b 215 636 298 626 237 636 b 203 646 202 636 202 637 b 208 676 204 652 206 665 b 228 710 210 696 211 697 b 278 751 238 717 261 736 l 310 778 l 328 776 b 400 780 357 771 393 773 b 412 785 404 783 409 785 b 409 821 425 785 423 804 b 430 831 404 826 406 827 b 490 861 477 838 510 855 b 454 860 487 862 470 861 b 391 856 437 858 409 856 b 358 861 364 856 358 857 b 339 871 358 867 344 874 b 340 880 335 869 336 875 b 331 895 346 885 340 895 b 281 873 326 895 304 885 b 215 844 258 862 228 848 b 142 806 173 830 156 821 b 124 792 134 799 126 792 b 44 658 115 792 41 669 b 31 631 45 654 40 643 b 22 606 20 615 18 610 b 33 602 24 603 29 601 b 30 557 44 605 43 592 b 22 517 20 529 18 522 b 31 514 24 515 28 513 b 36 484 38 517 41 494 b 39 409 29 472 31 435 b 140 246 59 352 98 288 b 204 206 171 213 181 207 b 232 201 214 205 226 203 b 252 197 237 199 246 197 b 258 187 264 197 264 196 b 259 175 255 182 255 179 z m 209 211 b 202 208 209 209 206 208 b 197 211 198 208 196 209 b 204 215 198 213 201 215 b 209 211 207 215 209 213 z m 258 317 b 248 314 256 316 251 314 b 214 335 242 314 212 332 b 260 322 216 336 255 325 b 258 317 262 321 261 319 z m 363 341 b 314 330 358 338 317 329 b 193 370 264 343 195 366 b 185 463 190 379 184 447 l 186 478 l 234 497 b 319 521 291 520 306 524 b 337 483 327 520 329 516 b 355 425 343 463 351 436 b 365 373 362 409 364 396 b 363 341 365 357 364 342 z m 137 430 b 137 423 138 429 138 426 b 135 425 136 420 135 421 b 137 430 135 429 136 431 z m 95 448 b 95 435 96 444 96 439 b 93 442 94 432 93 435 b 95 448 93 448 94 451 z m 489 441 b 483 437 489 440 486 438 b 478 448 477 436 477 438 b 484 452 479 461 479 461 b 489 441 487 447 489 442 z m 362 507 b 364 489 364 505 365 497 l 363 475 l 361 487 b 362 507 357 505 357 511 z m 301 598 b 290 596 298 598 293 597 b 205 613 286 595 215 609 b 260 610 196 617 227 615 b 301 598 292 605 316 598 z "},"7":{"ha":609,"x_min":0,"x_max":0,"o":"m 6 135 b 20 137 12 131 14 131 b 111 248 32 148 79 205 b 146 284 137 282 142 288 b 136 247 150 279 148 274 b 132 208 120 216 120 208 b 197 296 138 208 154 231 b 261 395 229 344 258 389 b 272 403 266 404 269 406 b 291 419 279 397 284 402 b 306 436 296 430 300 435 b 364 536 313 437 322 453 b 470 711 414 636 434 669 b 483 750 491 736 494 745 b 492 779 476 752 477 754 b 519 809 505 802 510 807 b 569 833 565 818 573 822 b 534 846 566 841 553 846 b 529 857 515 846 514 849 b 539 874 537 862 539 866 b 543 887 539 880 541 886 b 540 906 549 890 547 902 b 509 910 536 908 522 910 b 486 917 488 910 486 910 b 399 930 486 930 471 932 b 137 879 309 928 271 920 b 68 854 102 868 71 857 b 70 844 63 850 64 849 b 81 839 74 841 79 839 b 87 832 83 839 86 836 b 101 824 88 827 92 825 b 77 814 110 823 105 821 b 29 789 34 804 24 799 b 94 772 39 772 42 771 b 145 768 153 772 153 772 b 149 746 136 762 138 751 b 326 772 173 737 274 751 b 343 773 343 778 345 778 b 238 594 340 765 284 670 b 199 526 216 559 199 528 b 189 509 199 523 195 515 b 141 448 184 502 162 475 b 30 314 107 405 82 374 b 27 287 17 300 16 289 b 154 423 39 285 98 348 b 197 472 228 523 234 529 b 122 344 176 439 132 365 b 119 313 113 327 112 315 b 46 200 127 310 95 261 b 1 144 22 171 2 146 b 6 135 1 142 3 138 z m 288 554 b 277 540 282 542 277 536 b 285 552 277 542 281 547 b 288 554 289 558 291 558 z m 252 768 b 197 761 234 764 209 761 l 176 761 l 193 768 b 287 777 209 775 292 783 b 252 768 286 776 270 772 z m 271 820 b 259 819 277 819 272 819 b 248 820 247 819 242 819 b 271 820 254 821 265 821 z m 256 867 b 206 862 242 866 219 863 l 183 861 l 217 869 b 414 908 268 883 386 906 b 397 897 447 911 437 905 b 326 881 381 894 349 887 b 256 867 302 875 271 869 z "},"8":{"ha":551,"x_min":0,"x_max":0,"o":"m 365 126 l 365 126 b 373 118 366 122 370 118 b 403 146 379 118 403 141 b 433 149 403 147 417 149 b 482 209 497 150 523 182 b 466 219 476 214 468 218 b 482 265 462 220 468 238 b 484 286 488 277 488 279 b 475 314 481 290 477 303 b 467 336 472 325 469 335 b 462 352 466 337 463 344 b 446 372 459 367 452 376 b 442 393 444 370 442 378 l 442 417 l 403 456 b 346 517 381 478 356 505 b 306 560 336 529 318 548 l 285 583 l 296 627 b 316 683 303 656 310 675 b 323 716 325 693 325 697 b 327 777 322 728 324 753 b 333 841 330 798 333 827 b 338 869 333 858 334 866 b 336 891 345 876 344 886 b 324 905 332 893 327 899 b 271 916 314 923 307 924 b 233 909 253 912 236 909 b 199 893 230 909 215 902 b 168 876 183 884 169 876 b 171 884 167 876 168 880 b 160 905 182 900 175 913 b 130 869 156 903 143 887 l 108 837 l 106 849 b 92 869 103 865 100 869 b 61 781 78 869 65 832 b 49 730 59 758 56 745 b 36 690 43 718 37 700 b 28 671 35 675 33 671 b 22 650 19 671 16 662 b 57 612 25 645 41 628 b 104 557 75 596 94 573 b 129 530 118 535 123 529 b 135 543 134 531 136 533 l 135 554 l 156 540 b 176 485 191 515 191 515 l 162 459 l 164 357 b 220 181 165 230 163 236 b 264 145 242 160 262 144 b 292 136 267 146 279 142 b 354 131 315 125 327 124 b 365 126 362 133 364 132 z m 364 142 b 340 134 361 138 352 135 l 321 132 l 326 140 b 353 154 333 152 336 154 b 364 142 369 154 371 152 z m 304 142 b 307 136 307 139 308 136 b 277 156 303 137 276 155 b 304 142 279 159 299 148 z m 470 176 b 421 171 457 171 421 168 b 437 186 421 181 426 186 b 451 193 446 186 450 188 b 468 193 454 202 457 202 b 470 176 480 184 480 179 z m 301 205 b 292 203 301 202 294 200 b 295 207 291 205 292 207 b 301 205 298 207 301 206 z m 386 253 b 359 221 373 223 373 223 b 325 229 348 220 340 221 b 286 243 315 234 297 241 l 265 247 l 266 316 b 268 422 266 355 267 402 l 271 459 l 314 428 b 396 343 359 397 382 373 b 386 253 406 323 402 292 z m 210 237 b 207 236 212 231 210 230 b 206 241 205 238 205 240 b 210 237 207 242 209 240 z m 245 372 b 243 275 244 319 243 276 b 235 312 242 275 239 291 l 229 349 l 238 408 l 247 467 z m 417 402 b 415 396 417 401 416 398 b 396 409 411 390 396 400 b 393 418 396 413 395 417 b 385 427 391 419 387 423 b 399 420 383 432 388 429 b 417 402 409 411 418 403 z m 186 459 b 186 451 187 457 187 453 b 184 455 185 448 184 450 b 186 459 184 460 185 462 z m 288 476 b 283 476 296 467 294 467 b 278 483 278 480 276 483 b 288 476 280 483 285 480 z m 217 634 b 209 613 214 624 210 615 b 182 633 207 612 195 621 b 146 664 168 645 152 659 l 135 673 l 147 715 b 159 762 153 738 159 759 b 207 804 159 769 185 792 b 235 786 230 816 231 815 b 244 733 237 776 241 753 l 251 698 l 237 675 b 217 634 230 662 221 644 z m 111 762 b 106 759 108 755 106 754 b 109 765 106 761 107 764 b 111 762 111 766 112 765 z "},"9":{"ha":415,"x_min":0,"x_max":0,"o":"m 185 222 l 185 222 b 194 221 187 220 191 219 b 224 224 217 230 218 230 b 233 218 227 221 231 218 b 265 255 239 218 260 243 l 270 266 l 272 247 b 281 226 273 230 275 227 b 294 233 286 226 291 228 b 321 314 301 243 321 304 b 328 322 321 317 324 321 b 339 363 335 324 339 338 b 343 373 339 376 340 378 b 362 373 347 365 359 365 b 366 465 364 377 365 418 b 380 687 366 538 372 621 b 376 706 382 702 382 704 b 368 734 370 707 369 712 b 341 798 367 769 360 787 b 321 835 325 807 321 814 b 298 876 321 849 311 867 b 247 876 287 883 264 883 b 229 874 239 873 232 872 b 187 872 221 879 198 878 b 130 796 170 863 152 839 b 94 725 119 773 102 742 l 79 695 l 79 623 b 87 497 79 542 81 522 b 227 409 109 415 176 372 b 279 470 240 418 263 445 b 280 434 284 477 284 474 b 272 388 277 410 274 389 b 240 369 271 386 256 378 b 169 323 223 360 191 339 b 63 267 122 289 85 270 b 44 253 48 265 40 259 b 42 250 45 252 44 250 b 38 245 40 250 38 248 b 45 240 38 242 41 240 b 53 232 49 240 52 237 b 66 225 54 225 56 224 b 185 222 91 228 181 225 z m 271 357 l 271 357 b 247 348 265 351 247 344 b 262 357 247 349 254 353 b 271 357 277 364 277 364 z m 213 426 b 182 421 199 416 185 414 b 194 426 181 424 185 426 b 219 444 210 426 219 432 b 239 473 219 458 226 469 b 257 480 246 476 254 478 b 251 466 260 481 257 475 b 213 426 235 443 228 436 z m 164 427 b 151 431 169 419 163 421 l 139 442 l 150 436 b 164 427 156 433 162 429 z m 200 454 b 179 457 197 447 185 449 b 181 470 171 469 171 470 b 200 454 191 470 202 461 z m 156 461 b 153 460 158 455 156 454 b 152 465 152 462 151 464 b 156 461 153 466 155 464 z m 137 483 b 140 473 144 476 144 473 b 119 500 135 473 119 493 b 137 483 119 502 121 501 z m 223 497 l 223 497 b 221 495 226 496 225 495 b 216 497 217 495 215 496 b 223 497 217 498 220 498 z m 117 544 b 115 537 118 540 117 537 b 112 544 114 537 112 540 b 117 544 112 553 114 553 z m 231 592 b 209 565 223 580 213 568 b 197 568 202 559 202 559 b 191 610 195 574 192 593 b 202 667 189 642 189 643 b 256 729 217 695 245 728 b 271 713 261 730 265 726 b 275 680 279 697 279 695 l 270 663 l 268 681 b 265 674 266 698 266 698 b 231 592 265 647 257 628 z m 187 571 b 187 562 189 566 189 562 b 181 593 183 562 178 584 b 183 590 182 597 182 596 b 187 571 183 584 185 576 z m 97 582 b 97 576 98 581 98 578 b 95 578 96 573 95 574 b 97 582 95 581 96 584 z m 164 632 b 164 625 165 631 165 628 b 162 627 163 622 162 623 b 164 632 162 631 163 633 z m 130 704 b 118 656 126 691 121 670 b 116 672 112 627 111 638 b 130 718 118 685 124 706 b 138 734 136 731 140 738 b 130 704 137 730 133 716 z m 227 776 b 204 759 204 754 200 752 b 219 772 206 763 213 769 b 227 776 226 776 229 778 z m 258 766 b 250 760 255 763 252 760 b 255 768 245 760 247 764 b 258 766 262 772 262 772 z m 203 855 b 186 838 203 855 196 847 b 176 834 169 823 168 823 b 203 855 184 846 200 858 z m 299 843 b 290 839 302 831 300 831 b 277 845 285 842 280 845 b 267 852 275 845 270 848 b 270 861 261 858 261 859 b 299 843 282 864 296 856 z m 234 845 b 229 842 233 843 231 842 b 231 847 224 842 225 844 b 234 845 234 848 236 847 z "}," ":{"ha":689,"x_min":0,"x_max":0,"o":""},"!":{"ha":460,"x_min":0,"x_max":0,"o":"m 178 -322 l 178 -322 b 194 -323 183 -328 190 -329 b 207 -315 195 -321 201 -318 b 232 -299 214 -312 225 -305 b 256 -284 239 -293 250 -286 b 324 -239 273 -278 303 -258 b 389 -87 374 -193 405 -119 b 350 -56 382 -74 364 -59 b 332 -30 339 -53 336 -48 b 297 24 329 -11 313 12 l 282 35 l 298 33 b 307 35 312 31 313 31 b 262 40 302 38 286 40 b 195 25 225 40 225 39 b 77 -129 119 -13 78 -67 b 70 -167 77 -146 74 -159 b 70 -203 63 -180 63 -191 b 75 -225 72 -208 75 -218 b 82 -244 75 -233 78 -240 b 89 -255 86 -247 89 -252 b 135 -308 89 -273 117 -305 b 149 -311 142 -310 148 -311 b 163 -315 150 -312 156 -313 b 178 -322 169 -316 176 -319 z m 357 -163 b 317 -217 347 -182 335 -198 b 301 -229 297 -237 293 -240 b 319 -193 307 -221 315 -205 b 335 -164 324 -182 331 -169 b 343 -115 353 -144 356 -129 b 337 -89 336 -107 335 -103 l 339 -72 l 351 -78 b 357 -163 377 -91 379 -117 z m 240 -169 b 225 -189 237 -175 231 -184 b 220 -191 218 -196 216 -196 b 235 -171 222 -187 229 -178 b 240 -169 246 -159 246 -159 z m 161 -158 b 151 -162 142 -181 140 -182 b 167 -140 156 -152 163 -142 b 161 -158 178 -133 175 -141 z m 229 -127 b 224 -129 226 -133 224 -134 b 227 -123 224 -127 225 -125 b 229 -127 229 -122 230 -124 z m 161 -52 l 161 -52 b 134 -83 159 -55 147 -69 b 116 -97 117 -101 111 -106 b 160 -47 124 -83 156 -47 b 161 -52 162 -47 163 -49 z m 156 -24 l 156 -24 b 123 -52 148 -30 133 -42 l 106 -70 l 117 -54 b 224 27 138 -22 185 13 b 234 28 241 33 242 33 b 210 7 229 25 218 15 b 183 -11 201 -1 189 -9 b 156 -24 177 -13 165 -19 z m 312 -37 l 312 -37 b 296 -36 316 -51 310 -51 b 242 -6 282 -21 260 -9 l 227 -4 l 239 5 b 280 9 256 17 264 18 b 312 -37 294 2 307 -17 z m 224 -28 b 201 -31 201 -36 199 -36 b 216 -26 202 -28 208 -26 b 224 -28 223 -26 227 -27 z m 201 66 l 201 66 b 218 67 204 61 217 62 b 224 130 219 69 222 98 b 235 206 228 200 230 215 b 241 201 237 203 240 201 b 263 225 246 201 263 219 b 268 235 263 227 265 232 b 273 276 272 239 273 249 b 341 613 273 336 293 433 b 389 837 375 741 386 794 b 383 872 391 868 391 869 b 370 870 378 873 373 873 b 339 773 368 867 354 823 b 307 661 325 722 311 672 l 302 642 l 303 661 b 314 748 304 672 309 711 b 329 928 324 829 332 920 b 319 934 328 931 323 934 b 312 937 315 934 312 935 b 321 1008 312 938 316 970 b 329 1127 335 1116 336 1125 b 323 1141 325 1129 323 1134 b 307 1153 323 1154 314 1160 b 299 1106 304 1150 301 1131 l 296 1063 l 295 1095 b 293 1172 294 1113 293 1147 b 275 1228 293 1219 290 1228 b 227 1045 259 1228 249 1189 b 213 964 221 1003 214 966 b 210 1025 211 962 210 990 b 204 1093 210 1077 209 1090 b 187 1039 192 1104 189 1096 b 178 965 185 1002 182 978 l 171 946 l 169 975 b 155 1023 165 1017 164 1022 b 143 1058 149 1024 147 1028 b 125 1095 138 1094 135 1101 b 121 567 118 1090 119 1103 b 139 294 123 288 123 290 b 147 284 144 295 146 293 b 154 272 149 277 152 272 b 163 252 157 272 161 263 b 175 227 166 241 171 230 b 181 211 178 224 181 216 b 187 196 181 206 184 199 b 192 156 191 192 192 182 b 201 66 192 121 197 72 z m 214 286 b 214 255 216 284 216 273 l 211 227 l 208 244 b 214 286 205 265 209 292 z m 277 626 b 273 622 277 624 275 622 b 270 628 271 622 270 625 b 298 815 270 638 295 804 b 289 723 303 834 302 821 b 277 626 282 671 277 627 z m 300 639 l 300 639 b 301 632 301 638 302 635 b 298 634 299 629 299 630 b 300 639 298 638 299 640 z m 180 653 l 180 653 b 180 646 181 652 181 649 b 178 648 179 643 178 644 b 180 653 178 652 179 654 z m 247 1032 l 247 1032 b 247 1025 248 1031 248 1028 b 245 1027 246 1022 245 1023 b 247 1032 245 1031 246 1033 z m 251 1052 b 251 1043 252 1049 252 1045 b 249 1047 250 1040 249 1042 b 251 1052 249 1052 250 1054 z m 262 1097 b 252 1064 255 1060 252 1050 b 272 1177 252 1072 269 1172 b 262 1097 275 1184 269 1132 z "},"\"":{"ha":468,"x_min":0,"x_max":0,"o":"m 84 692 b 94 690 85 691 90 690 b 102 707 100 691 101 695 b 108 720 103 718 105 722 b 124 744 115 718 124 731 b 129 748 124 754 124 754 b 140 743 131 745 136 743 b 151 775 146 744 148 750 b 190 970 158 820 165 855 b 212 1084 203 1028 213 1079 b 202 1092 211 1089 208 1092 b 185 1061 195 1092 193 1089 b 172 1043 176 1030 167 1017 b 170 1085 177 1065 176 1085 b 163 1076 167 1085 164 1081 b 160 1078 160 1067 160 1068 b 148 1101 159 1094 156 1101 b 142 1131 142 1101 142 1103 b 133 1161 142 1160 142 1161 b 121 1135 123 1161 121 1155 b 103 1030 121 1106 109 1039 b 63 794 93 1015 72 890 b 73 737 59 741 60 734 b 82 716 81 738 82 738 b 84 692 82 704 83 693 z m 239 748 l 239 748 b 247 729 241 732 243 728 b 254 742 251 730 254 735 b 261 751 255 750 257 753 b 278 779 270 748 275 757 b 283 790 281 796 282 799 b 291 774 283 783 287 776 b 298 760 295 771 298 766 b 302 747 298 755 300 749 b 310 738 304 746 308 742 b 342 795 322 717 331 734 b 388 1010 354 865 365 918 b 403 1120 410 1104 412 1114 b 381 1092 395 1125 389 1118 b 370 1088 375 1071 366 1068 b 367 1104 371 1096 371 1101 b 343 1090 359 1111 349 1105 b 335 1086 336 1074 331 1071 b 334 1091 336 1091 336 1093 b 324 1088 332 1089 328 1087 b 284 1000 315 1088 310 1078 b 239 748 251 902 233 798 z "},"#":{"ha":959,"x_min":0,"x_max":0,"o":"m 488 4 l 488 4 b 515 50 498 -9 503 -2 b 532 120 520 73 528 105 b 545 169 537 136 542 158 b 550 188 547 180 550 189 b 544 133 551 188 548 163 b 546 62 535 57 534 62 b 560 84 555 62 556 63 b 569 94 562 91 565 94 b 580 108 574 94 577 98 b 589 122 582 116 586 122 b 621 218 597 122 600 132 b 646 320 631 264 643 310 l 651 339 l 693 337 b 753 332 715 335 743 333 b 771 336 770 330 772 331 b 757 348 770 340 764 345 l 745 352 l 759 351 b 795 346 767 350 783 348 b 817 353 817 344 817 344 b 797 368 817 361 815 363 l 777 373 l 822 371 b 869 375 861 370 867 370 b 855 393 872 382 865 390 b 873 392 851 394 859 394 b 901 397 895 391 899 391 b 800 420 906 410 891 414 b 726 427 764 422 730 426 b 786 435 706 434 722 436 l 853 433 l 852 441 b 760 459 851 452 845 453 b 686 465 719 461 686 464 b 697 504 686 465 691 483 l 708 542 l 779 542 b 856 549 841 543 851 543 b 854 561 861 554 861 555 b 849 570 849 565 847 569 b 852 577 851 571 853 574 b 854 587 852 579 853 584 b 842 606 858 596 855 601 b 836 611 835 608 832 611 b 846 618 839 611 844 614 b 873 630 849 621 861 627 l 895 637 l 893 649 b 889 665 892 657 890 663 b 792 675 886 667 816 675 b 765 682 779 675 771 677 b 751 689 760 686 754 689 b 748 695 748 689 746 691 b 761 778 755 712 765 775 b 770 810 759 781 762 791 b 780 844 777 826 781 841 b 761 844 778 849 767 850 b 756 862 756 839 756 841 b 747 878 755 877 754 878 b 725 847 740 878 737 874 b 686 761 718 830 700 791 l 660 706 l 649 708 b 533 724 643 709 591 717 b 417 745 427 739 417 741 b 430 788 417 747 423 766 b 440 831 436 809 441 829 b 442 832 438 834 439 834 b 444 835 445 830 446 831 b 451 884 443 839 446 861 b 455 932 459 921 459 928 b 432 907 446 941 440 934 b 421 880 428 892 423 880 b 425 905 416 880 416 879 b 422 937 435 931 434 937 b 408 921 416 937 413 933 b 392 902 403 910 398 904 b 381 881 384 899 382 896 b 369 844 379 871 374 854 b 360 820 364 833 360 823 b 349 788 360 818 355 804 b 332 760 341 769 335 760 b 289 765 329 760 310 762 b 180 771 229 773 189 775 b 181 746 170 765 170 751 b 184 731 190 741 190 741 b 183 716 180 723 179 720 b 176 707 186 712 185 710 b 166 694 169 704 166 700 b 196 666 166 685 172 678 b 216 650 205 661 214 654 b 249 640 218 645 225 643 b 281 635 266 638 281 635 b 233 521 283 633 237 525 b 178 527 232 520 207 522 b 89 529 101 540 94 540 b 82 521 86 525 83 521 b 75 507 73 526 68 514 b 67 500 80 502 79 501 b 54 491 56 499 54 498 b 68 478 54 483 57 481 b 83 468 76 476 83 471 b 93 457 84 465 88 460 b 170 437 103 451 155 437 b 180 434 175 437 180 436 b 162 433 180 433 172 432 b 142 429 148 434 144 434 b 106 424 140 424 134 424 b 59 409 69 425 59 422 b 140 382 59 400 97 387 b 165 377 152 381 163 379 b 141 306 168 376 160 352 b 101 201 126 268 108 221 b 96 159 90 165 90 164 b 108 158 102 155 104 155 b 153 252 114 163 138 213 b 164 277 159 266 164 278 b 160 251 164 277 163 265 b 159 199 154 221 154 201 b 155 146 162 198 161 183 b 153 63 146 83 146 66 b 173 88 161 60 167 67 b 186 107 177 102 180 106 b 196 116 191 108 195 112 b 220 200 208 169 215 194 b 228 227 223 203 226 215 b 233 239 230 243 231 246 b 242 230 234 233 237 230 b 255 226 246 230 252 228 b 273 231 261 220 271 223 b 289 301 274 235 282 266 b 305 365 297 335 304 365 b 457 355 306 367 351 364 b 505 344 504 351 506 351 b 494 301 504 340 499 320 b 472 183 481 250 475 217 b 485 143 469 152 472 143 b 518 206 493 143 498 153 b 534 243 527 229 534 246 b 518 172 534 240 527 208 b 488 4 490 53 482 10 z m 266 356 b 233 254 264 337 234 245 b 263 358 233 260 254 336 l 268 372 z m 740 355 l 740 355 b 738 353 743 354 742 353 b 733 354 734 352 732 353 b 740 355 734 356 737 356 z m 545 472 l 545 472 b 529 468 540 471 533 469 b 471 479 519 466 474 474 b 399 498 466 486 450 490 b 347 506 371 502 348 506 b 356 544 346 507 350 525 l 367 581 l 380 580 b 433 576 388 580 411 578 b 535 572 454 574 500 572 b 597 569 570 572 598 571 b 575 520 596 568 586 545 b 545 472 557 480 553 473 z m 99 500 l 99 500 b 97 498 102 499 101 498 b 92 500 93 498 91 499 b 99 500 93 501 96 501 z m 836 564 l 836 564 b 830 562 840 563 837 562 b 822 564 822 562 818 563 b 836 564 825 565 831 565 z m 857 638 l 857 638 b 855 636 860 637 859 636 b 850 638 851 636 849 637 b 857 638 851 639 854 639 z m 875 642 l 875 642 b 872 640 877 641 877 640 b 868 641 869 639 867 640 b 875 642 869 643 872 643 z m 217 685 b 205 685 214 681 211 681 b 209 689 200 688 201 689 b 217 685 215 689 218 687 z m 265 737 l 265 737 b 263 735 268 736 267 735 b 259 737 260 735 257 736 b 265 737 260 738 263 738 z "},"$":{"ha":540,"x_min":0,"x_max":0,"o":"m 163 -75 l 163 -75 l 162 -107 l 165 -84 b 179 -52 170 -53 171 -52 b 183 -65 185 -52 185 -54 b 187 -96 180 -87 180 -91 b 209 -50 197 -102 200 -95 b 240 85 214 -27 228 34 b 281 206 262 174 263 177 b 307 230 298 232 301 234 b 328 261 316 225 323 234 b 359 305 332 280 333 283 b 388 336 374 318 387 332 b 400 326 390 342 391 340 b 427 315 410 309 417 306 b 437 313 433 320 434 320 b 460 312 442 305 457 303 b 443 349 461 315 455 330 b 425 384 432 366 424 382 b 425 394 426 386 426 390 b 422 409 423 397 422 404 b 412 417 422 416 420 417 b 395 434 404 416 402 419 b 393 480 386 456 386 466 b 386 499 399 491 395 502 b 377 524 383 497 381 505 b 334 695 371 562 349 650 b 326 765 321 730 321 738 b 363 810 327 770 344 790 b 420 873 382 830 408 858 b 438 908 438 897 441 902 b 434 918 436 912 434 916 b 428 929 436 925 433 929 b 430 938 423 929 423 931 b 436 951 434 942 437 948 b 437 959 434 954 435 958 b 435 977 443 963 442 974 b 368 930 430 979 413 967 b 346 921 347 912 347 912 b 357 943 345 927 348 934 b 361 950 363 950 365 953 b 351 943 357 946 353 943 b 356 1027 347 943 349 986 b 360 1115 364 1071 365 1112 b 356 1140 358 1116 356 1128 b 350 1165 356 1158 355 1164 b 330 1094 339 1170 335 1159 b 303 903 322 1007 308 908 b 303 961 298 898 298 907 b 296 956 309 1023 305 1020 b 286 891 292 925 287 896 b 245 845 284 887 266 866 b 207 804 224 824 207 805 b 147 741 207 797 185 774 b 103 700 124 722 104 703 b 117 672 101 695 112 674 b 139 683 119 671 129 676 b 157 663 172 706 173 704 b 153 615 143 627 142 619 b 181 636 157 613 165 619 l 202 659 l 207 629 b 219 573 209 613 215 587 l 228 547 l 217 498 b 184 294 202 428 186 330 b 176 256 182 272 180 261 b -45 99 148 229 5 127 b -68 71 -71 85 -77 77 b -67 60 -64 68 -64 65 b -64 49 -70 55 -69 53 b -43 52 -58 45 -56 45 b 19 91 -26 60 -6 73 b 43 99 36 103 38 104 b 61 101 50 92 50 92 b 77 106 67 105 73 107 b 93 109 81 104 88 106 b 66 80 98 113 86 100 b 31 39 38 54 29 44 b 40 33 32 36 36 33 b 96 78 44 33 69 53 b 170 136 144 121 162 136 b 173 119 173 136 174 130 b 163 -75 172 99 165 -30 z m 192 148 b 190 127 193 144 191 135 b 187 123 187 115 187 115 b 192 148 187 136 192 159 z m 218 316 b 206 282 215 296 212 287 b 201 301 199 276 199 276 b 234 479 204 334 232 481 b 218 316 236 477 223 351 z m 319 370 l 319 370 b 308 354 315 362 310 355 b 313 370 305 353 307 359 b 319 370 324 390 328 390 z m 314 430 l 314 430 l 323 421 l 311 402 l 299 382 l 300 405 b 302 434 300 418 301 431 b 314 430 304 439 306 439 z m 316 486 b 323 452 320 468 323 453 b 312 469 322 452 317 459 b 303 523 302 488 294 531 b 316 486 305 521 311 504 z m 339 600 l 339 600 b 326 611 360 516 353 523 b 314 666 319 634 314 659 l 314 680 l 319 667 b 339 600 322 660 331 630 z m 248 677 l 248 677 b 249 670 250 676 250 673 b 247 672 248 667 247 668 b 248 677 246 676 247 678 z m 282 863 b 267 846 282 861 275 854 b 253 836 260 838 253 834 b 267 853 253 838 260 846 b 282 863 275 861 282 865 z m 300 880 b 296 878 298 871 296 870 b 299 885 296 881 297 884 b 300 880 301 886 301 884 z "},"%":{"ha":1120,"x_min":0,"x_max":0,"o":"m 182 -162 b 191 -167 184 -165 188 -167 b 257 -72 197 -167 225 -126 b 291 -28 278 -37 284 -29 b 404 184 301 -27 307 -17 b 760 836 516 415 625 613 b 824 949 795 893 824 944 b 838 976 825 954 831 966 b 841 1007 853 995 854 1007 b 831 1010 837 1008 832 1009 b 798 986 824 1017 815 1010 b 775 968 780 962 778 961 b 763 975 772 972 768 975 b 756 977 759 975 756 976 b 778 1021 757 978 767 998 b 794 1068 795 1055 798 1063 b 765 1050 787 1077 782 1074 b 744 1025 755 1037 746 1026 b 757 1045 742 1024 748 1033 b 764 1079 774 1068 776 1077 b 697 1000 755 1081 755 1081 b 316 457 521 757 448 654 b 128 152 216 307 178 246 b 71 0 63 33 52 3 b 95 14 77 -1 84 3 b 111 22 109 28 111 29 b 98 -5 111 17 105 5 b 92 -38 85 -25 83 -35 b 109 -27 96 -40 101 -36 b 129 -10 116 -20 125 -12 b 156 22 133 -7 146 7 b 179 47 167 37 177 48 b 167 12 180 45 175 29 b 158 -36 152 -23 151 -29 b 191 -19 165 -41 182 -32 b 200 -18 197 -10 197 -10 b 226 -9 204 -30 215 -27 b 244 7 233 2 239 7 b 273 45 250 7 256 14 b 294 76 298 90 305 101 b 256 -9 289 66 272 28 b 202 -116 240 -46 215 -94 b 182 -162 182 -149 178 -158 z m 125 80 b 105 55 119 72 110 60 b 214 262 87 33 155 163 b 503 692 253 326 474 656 l 511 703 l 505 690 b 404 528 464 618 424 553 b 215 231 356 467 292 367 b 161 146 201 207 177 169 b 134 100 146 123 133 103 b 125 80 135 98 131 89 z m 450 366 b 442 355 451 365 448 360 l 432 345 l 440 356 b 450 366 445 363 449 367 z m 686 842 b 644 795 630 771 625 766 b 687 864 651 807 671 838 b 751 944 713 905 747 948 b 686 842 756 939 727 894 z m 716 986 b 710 981 714 983 711 981 b 713 986 709 981 710 983 b 719 991 715 989 718 991 b 716 986 720 991 719 989 z m 727 1000 b 721 995 725 997 722 995 b 723 1000 720 995 721 997 b 730 1006 726 1003 729 1006 b 727 1000 731 1006 729 1003 z m 738 1014 b 731 1009 735 1012 732 1009 b 734 1014 730 1009 732 1012 b 740 1020 736 1017 739 1020 b 738 1014 741 1020 740 1017 z m 762 -81 b 894 -70 781 -88 869 -81 b 976 -1 910 -63 955 -26 b 1060 187 1030 61 1070 151 b 939 289 1047 234 989 283 b 912 300 925 291 918 294 b 803 296 885 329 840 327 b 773 283 797 291 784 286 b 646 142 700 266 650 210 b 668 75 644 112 647 103 b 692 15 689 47 693 38 b 762 -81 690 -28 717 -64 z m 789 -57 l 789 -57 l 800 -64 l 787 -64 b 745 -49 777 -64 745 -53 b 789 -57 745 -45 780 -52 z m 748 -21 b 749 -25 751 -23 752 -25 b 737 -18 747 -25 742 -22 b 736 -14 731 -12 730 -11 b 748 -21 740 -16 745 -19 z m 869 24 b 855 11 862 16 856 10 b 794 33 840 12 794 29 b 816 45 794 34 804 39 b 887 104 840 56 873 83 b 903 98 900 123 906 121 b 869 24 900 77 885 43 z m 956 66 b 939 44 951 57 943 47 b 944 58 935 39 936 44 b 958 82 951 69 958 80 b 962 84 959 85 961 85 b 956 66 964 83 961 75 z m 931 92 b 920 62 930 85 925 72 b 924 81 911 43 911 44 b 931 92 929 95 932 100 z m 811 64 b 766 58 788 53 772 51 b 799 89 761 65 762 66 b 868 115 821 103 864 119 b 811 64 872 111 828 72 z m 1015 96 b 995 58 1007 79 998 62 b 992 62 990 51 989 52 b 1003 85 994 67 999 78 b 1016 120 1007 92 1013 107 b 1005 207 1024 152 1021 177 b 970 254 992 234 986 242 b 982 252 956 265 963 264 b 1037 189 1004 238 1030 208 b 1037 150 1043 174 1043 172 b 1015 96 1033 137 1024 113 z m 689 93 b 682 90 690 79 690 79 b 716 205 668 112 685 169 l 730 221 l 720 202 b 704 161 714 191 707 173 b 693 122 701 149 696 132 b 689 93 690 112 688 99 z m 829 127 b 790 108 818 123 801 115 b 769 99 779 101 769 97 b 871 160 769 118 831 155 b 890 148 890 162 895 159 b 867 136 886 140 882 138 b 829 127 856 135 839 131 z m 955 158 b 955 148 956 153 956 148 b 940 185 953 148 939 179 b 955 158 940 191 952 169 z m 716 226 b 679 176 700 211 688 193 b 680 191 665 147 665 160 b 729 245 690 211 713 237 b 716 226 737 249 733 243 z m 867 179 b 826 168 857 178 838 173 l 803 159 l 817 171 b 871 194 831 184 856 194 b 883 188 875 194 881 191 b 867 179 886 182 884 181 z m 987 198 b 992 182 990 190 992 182 b 984 195 991 181 988 187 b 980 211 981 203 979 210 b 987 198 981 212 984 206 z m 795 202 b 779 190 782 186 774 179 b 795 207 781 193 788 201 l 806 217 z m 952 209 b 943 212 955 203 952 205 b 942 216 935 219 935 219 b 952 209 946 214 951 211 z m 907 228 b 894 224 912 223 911 223 b 865 235 877 224 865 229 b 907 228 865 240 902 234 z m 792 239 b 773 232 788 239 780 235 l 761 226 l 769 236 b 783 252 773 241 779 249 b 831 269 791 260 817 269 b 820 255 840 269 840 268 b 792 239 808 247 796 240 z m 890 292 b 853 290 895 286 893 286 l 831 292 l 846 297 b 890 292 863 302 883 300 z m 171 677 b 210 675 182 675 199 674 b 262 679 221 676 244 678 b 373 741 307 683 323 692 b 429 870 428 793 429 795 b 401 977 430 935 427 943 b 285 1041 376 1010 335 1033 b 104 981 226 1051 146 1024 b 102 716 33 910 32 787 b 171 677 123 695 143 684 z m 171 705 b 173 698 195 694 195 693 b 107 741 149 703 115 725 b 111 743 103 747 104 747 b 134 727 116 741 126 734 b 171 705 142 721 159 710 z m 255 723 l 255 723 b 205 724 241 717 218 718 l 194 729 l 206 729 b 231 733 213 729 224 731 b 254 731 239 735 246 735 l 265 727 z m 208 750 b 184 747 204 749 194 747 b 161 759 169 747 167 748 b 151 781 157 765 153 775 l 148 791 l 162 780 b 179 768 170 773 178 768 b 199 761 181 768 190 765 b 208 750 212 754 214 752 z m 300 754 b 295 751 299 752 296 751 b 297 755 290 751 291 753 b 300 754 300 757 301 756 z m 130 778 b 137 754 134 765 137 754 b 125 771 136 754 131 762 b 107 823 113 789 107 807 b 114 827 107 833 107 833 b 121 811 118 823 121 816 b 130 778 121 806 125 791 z m 273 767 l 273 767 b 250 761 266 764 255 761 b 260 768 243 762 245 763 b 284 777 271 771 281 775 b 288 776 286 778 288 778 b 273 767 288 774 281 770 z m 325 799 l 325 799 b 317 793 323 796 320 793 b 318 800 312 793 312 794 b 325 799 325 808 328 808 z m 249 809 b 189 811 249 806 198 807 b 173 833 185 813 178 822 b 193 887 162 855 163 857 l 215 908 l 219 885 b 236 837 222 872 229 851 b 249 809 243 823 249 811 z m 303 825 b 264 829 277 812 275 813 b 258 908 251 848 248 884 b 294 920 264 926 267 927 b 330 876 311 916 323 902 b 325 846 335 862 334 860 b 303 825 320 839 310 829 z m 376 846 b 373 834 376 840 375 835 b 373 850 368 831 368 843 b 376 846 375 854 376 853 z m 77 855 b 71 843 74 848 71 843 b 72 867 70 843 71 854 b 88 917 75 890 83 917 b 86 910 89 917 88 914 b 82 886 84 906 82 895 b 77 855 82 876 80 863 z m 135 877 b 125 852 131 867 127 856 b 119 850 123 847 122 847 b 114 859 116 853 114 856 b 139 896 114 864 135 896 b 135 877 141 896 139 887 z m 248 907 b 238 891 240 884 238 881 b 236 909 238 895 237 903 b 244 923 234 918 235 920 l 254 927 z m 130 953 b 102 932 122 948 110 939 b 116 956 82 913 92 929 b 223 1015 152 994 198 1019 l 236 1012 l 218 1003 b 185 982 209 997 194 988 b 157 967 176 976 164 969 b 130 953 150 964 138 958 z m 190 953 b 173 942 186 949 178 945 l 162 938 l 172 947 b 190 957 178 952 186 956 b 190 953 197 959 197 959 z m 369 968 l 369 968 b 368 967 369 967 369 967 b 351 973 368 967 360 970 b 330 980 343 976 333 979 b 335 983 327 981 329 983 b 369 968 343 985 369 973 z m 320 983 l 320 983 b 318 981 323 982 322 981 b 313 983 314 981 312 982 b 320 983 315 984 318 984 z m 273 991 l 273 991 b 251 988 270 989 260 988 l 233 988 l 247 995 b 269 997 258 999 263 1000 b 273 991 275 995 276 993 z m 309 1004 l 309 1004 b 289 999 298 1001 289 999 b 287 1001 289 999 288 1000 b 306 1009 281 1007 286 1009 l 328 1009 z m 258 1022 l 258 1022 b 254 1020 262 1021 260 1020 b 248 1022 248 1020 245 1021 b 258 1022 250 1023 255 1023 z "},"&":{"ha":1085,"x_min":0,"x_max":0,"o":"m 421 -198 l 421 -198 b 535 -82 429 -223 470 -181 b 568 -29 550 -58 565 -34 b 598 -14 573 -20 577 -18 b 639 6 625 -9 639 -2 b 609 22 639 14 624 22 l 596 22 l 603 35 b 661 104 617 61 657 107 b 793 -3 692 80 747 36 b 953 -116 873 -71 937 -116 b 961 -97 963 -116 967 -107 b 853 23 955 -87 913 -41 b 825 62 815 64 812 68 b 873 43 832 59 854 50 b 963 5 892 35 933 18 b 1024 -13 1013 -16 1019 -17 b 1019 6 1030 -6 1027 3 b 959 34 999 13 950 36 b 1018 38 1011 23 1018 24 b 946 71 1018 49 1008 53 b 905 89 907 82 902 84 b 907 100 907 92 908 98 b 856 139 906 103 883 121 b 768 202 829 157 789 185 l 729 233 l 751 282 b 823 482 780 348 801 407 b 884 661 842 549 861 605 b 888 714 898 696 899 710 b 866 681 880 717 874 708 b 851 660 859 658 857 656 b 834 655 845 664 843 663 b 739 495 820 641 758 537 b 640 309 718 448 649 320 b 499 450 638 306 532 413 b 449 511 483 469 461 496 l 429 539 l 458 591 b 580 766 493 653 514 683 b 633 841 638 837 636 834 b 586 807 628 854 617 846 b 541 752 568 785 547 760 b 524 740 532 742 527 738 b 514 745 522 742 517 744 b 536 796 510 746 515 757 b 611 917 567 854 579 873 b 647 977 642 960 649 971 b 639 982 646 979 642 982 b 634 992 634 982 633 984 b 620 1004 636 1002 629 1008 b 581 933 618 1004 600 972 b 544 866 562 895 545 865 b 552 893 544 866 547 879 b 627 1135 559 914 618 1106 b 640 1143 628 1138 633 1142 b 654 1150 647 1144 653 1147 b 646 1166 657 1158 653 1166 b 637 1171 642 1166 638 1168 b 647 1177 636 1175 639 1176 b 658 1187 656 1178 658 1180 b 626 1197 658 1196 658 1196 b 562 1193 608 1198 580 1196 b 490 1186 545 1190 512 1186 b 414 1172 455 1184 444 1182 b 279 1065 346 1149 329 1136 b 175 857 218 978 175 892 b 167 837 175 847 172 841 b 166 818 159 831 159 830 b 194 743 169 812 182 778 b 233 633 206 707 224 658 b 252 562 241 607 250 576 b 245 518 256 538 256 538 b 223 490 238 508 229 495 b 214 476 218 485 214 478 b 204 458 214 473 209 465 b 197 454 197 447 195 446 b 207 506 198 459 203 482 b 199 560 215 552 214 560 b 180 515 190 560 189 558 l 172 477 l 171 509 b 167 545 171 529 169 543 b 147 543 161 551 151 550 b 108 297 138 526 119 406 b 99 229 104 260 100 229 b 88 231 98 228 93 229 b 83 200 65 242 61 221 l 97 186 l 95 155 b 86 83 94 137 89 105 b 80 35 82 62 79 40 b 98 34 81 25 92 24 b 110 45 102 41 108 47 b 118 14 110 45 114 31 b 129 -22 122 -2 127 -18 b 130 -31 131 -26 132 -30 b 91 -34 129 -32 111 -34 b 48 -51 53 -36 44 -39 b 99 -56 50 -55 59 -56 l 147 -56 l 164 -72 b 250 -118 180 -87 229 -113 b 260 -127 256 -120 260 -123 b 281 -132 260 -136 266 -138 b 329 -124 288 -129 309 -126 b 376 -117 348 -122 369 -119 b 401 -131 389 -113 392 -115 b 419 -132 406 -139 413 -139 b 418 -116 423 -128 423 -125 b 415 -104 414 -111 413 -105 b 440 -110 417 -103 428 -106 l 461 -118 l 452 -132 b 421 -198 427 -173 419 -191 z m 312 -91 b 216 -81 284 -108 266 -106 b 186 -63 204 -75 191 -67 l 178 -56 l 187 -54 b 278 -68 199 -51 216 -53 l 330 -80 z m 369 -95 b 359 -99 366 -97 362 -99 b 359 -95 354 -99 354 -98 b 369 -92 362 -93 366 -92 b 369 -95 374 -92 374 -92 z m 482 -80 b 474 -92 478 -86 475 -92 b 465 -80 472 -92 464 -81 b 478 -71 466 -80 472 -76 b 482 -80 492 -62 493 -63 z m 525 -58 b 513 -68 501 -95 496 -99 b 541 -28 531 -36 538 -26 b 525 -58 542 -29 535 -43 z m 463 -55 l 463 -55 b 441 -64 451 -64 445 -66 b 454 -55 439 -62 444 -59 b 463 -55 468 -50 469 -50 z m 866 -22 b 893 -54 882 -39 894 -54 b 789 29 891 -56 845 -19 b 714 90 770 45 736 73 b 674 123 692 108 674 122 b 724 100 674 126 715 106 b 759 76 728 96 744 85 b 866 -22 788 57 825 23 z m 466 -28 b 446 -16 431 -41 422 -36 b 484 -12 466 0 484 2 b 466 -28 484 -19 481 -22 z m 412 -17 l 412 -17 b 398 -28 405 -23 399 -28 b 383 -17 397 -28 390 -23 l 371 -7 l 398 -7 l 424 -7 z m 158 12 b 134 42 143 -1 143 -1 b 137 76 127 77 127 78 b 157 108 147 74 151 79 b 163 128 159 119 162 128 b 185 110 164 128 174 120 b 204 84 202 96 205 91 b 208 73 203 78 204 74 b 214 52 212 71 214 66 l 214 33 l 190 27 b 158 12 177 24 163 17 z m 267 17 b 256 8 267 9 265 8 b 245 15 248 8 245 9 b 250 22 245 19 248 22 b 261 24 253 22 258 23 b 267 17 265 25 267 24 z m 299 10 l 299 10 b 295 8 299 9 297 8 b 291 11 293 8 291 9 b 289 21 291 13 291 17 b 293 20 287 26 288 26 b 299 10 296 16 299 12 z m 407 25 b 348 15 378 19 352 15 b 329 24 345 15 337 19 l 315 34 l 341 39 b 463 40 371 44 442 44 b 468 36 474 37 475 37 b 407 25 463 36 435 31 z m 258 46 b 249 50 254 40 249 43 b 254 54 249 57 250 57 b 258 46 257 51 259 48 z m 306 56 l 306 56 b 304 54 309 55 308 54 b 299 56 300 54 298 55 b 306 56 301 57 304 57 z m 533 99 l 533 99 b 449 84 523 75 531 77 b 339 91 422 86 372 89 l 278 94 l 276 122 b 274 223 275 138 274 183 l 274 295 l 291 317 b 325 364 300 329 316 350 b 344 390 334 379 343 390 b 490 287 346 390 478 297 b 494 282 495 283 497 281 b 476 268 487 286 476 277 b 546 195 476 260 506 228 b 564 177 556 187 564 179 b 552 153 564 176 559 165 b 540 125 545 140 540 128 b 533 99 541 122 537 110 z m 883 91 b 860 96 883 87 873 89 b 733 173 848 101 820 118 b 725 187 720 181 720 182 b 754 178 730 192 732 191 b 819 135 768 171 797 151 b 871 99 841 119 865 103 b 883 91 878 95 883 91 z m 629 129 b 622 117 630 127 627 122 l 613 109 l 619 119 b 627 131 623 125 626 130 b 629 129 627 131 628 131 z m 127 139 b 127 124 128 135 128 128 b 126 132 127 119 126 123 b 127 139 126 140 127 144 z m 213 225 b 213 142 213 179 213 142 b 194 158 212 142 204 150 l 176 174 l 191 234 b 210 301 199 267 208 297 b 213 225 212 305 213 282 z m 247 235 b 235 227 242 144 235 140 b 237 281 235 259 236 284 b 244 277 238 279 241 277 b 247 235 249 277 250 272 z m 160 202 b 153 200 156 186 153 185 b 158 213 153 209 155 213 b 160 202 162 213 163 211 z m 679 215 b 674 213 677 209 674 208 b 677 218 674 215 676 217 b 679 215 679 220 680 218 z m 551 221 b 531 236 556 214 553 216 b 522 251 514 252 513 255 b 551 221 530 248 542 236 z m 194 342 l 194 342 b 173 282 190 325 181 299 l 158 250 l 160 268 b 194 369 161 286 177 333 b 194 342 203 389 203 388 z m 617 287 l 617 287 b 603 286 629 277 621 277 b 573 311 594 290 580 302 l 559 328 l 584 310 b 617 287 597 301 612 290 z m 243 304 b 237 294 241 302 238 297 b 235 297 236 291 235 292 b 241 307 235 301 237 305 b 243 304 245 308 245 308 z m 617 318 b 635 302 628 309 636 302 b 577 340 634 302 608 319 b 497 407 529 372 516 383 b 479 440 475 432 474 435 b 503 425 485 446 487 444 b 617 318 520 406 573 357 z m 504 337 b 500 335 508 329 507 328 b 498 343 498 338 497 342 b 504 337 499 344 502 341 z m 249 367 b 242 349 249 363 246 355 b 242 362 233 336 233 345 b 249 367 247 371 249 372 z m 447 354 b 450 348 450 351 451 348 b 408 378 450 348 431 362 b 362 411 386 395 365 410 b 366 431 358 414 359 417 b 380 439 375 447 375 447 b 414 396 383 435 398 415 b 447 354 429 377 444 358 z m 288 432 b 281 418 288 431 285 424 b 272 412 276 409 274 408 b 285 438 269 419 280 441 b 288 432 286 437 288 434 z m 260 484 b 249 441 262 472 260 465 l 235 413 l 235 435 b 246 478 235 454 237 461 l 258 498 z m 786 460 b 772 443 782 456 776 448 b 771 447 766 434 766 434 b 818 548 781 473 817 550 b 786 460 821 545 793 467 z m 450 487 b 478 450 466 467 479 450 b 454 474 478 450 467 461 b 420 523 434 495 416 520 b 450 487 420 523 434 507 z m 302 466 b 291 456 295 455 291 451 b 306 479 291 461 303 479 b 302 466 307 479 306 473 z m 170 467 b 170 460 171 466 171 463 b 168 462 169 457 168 458 b 170 467 168 466 168 468 z m 352 612 b 346 608 352 602 349 600 b 348 618 345 611 345 616 b 352 612 351 621 352 619 z m 341 643 b 323 654 334 635 331 637 b 311 753 313 677 313 678 b 315 796 310 819 310 820 b 319 760 318 782 319 766 b 331 699 318 754 323 727 b 341 643 342 659 344 647 z m 383 650 b 373 646 378 641 373 639 b 427 723 373 649 397 683 b 497 820 457 763 488 807 b 513 843 505 833 513 843 b 507 822 514 843 511 834 b 443 729 501 807 484 781 b 383 650 413 690 386 654 z m 487 843 b 413 739 474 823 440 776 b 360 683 365 676 363 673 b 350 723 359 688 354 706 b 330 834 340 757 330 813 b 354 903 330 844 338 866 b 401 982 376 954 380 961 b 535 1055 440 1022 494 1051 b 559 1051 551 1057 555 1056 b 487 843 578 1026 544 929 z m 226 764 b 230 735 229 749 231 736 b 213 770 230 735 222 750 b 198 842 198 805 198 808 b 212 907 198 876 198 878 b 223 915 225 936 234 942 b 226 764 211 885 212 835 z m 271 895 l 271 895 b 271 823 272 862 272 830 b 259 851 269 812 267 815 b 259 937 246 902 246 914 l 268 955 z m 316 914 b 304 887 310 899 304 887 b 300 922 304 886 302 902 l 297 957 l 313 966 b 345 988 321 971 336 981 l 362 1000 l 345 970 b 316 914 335 953 322 928 z m 325 1000 b 300 990 304 985 298 982 b 345 1015 302 993 345 1018 b 325 1000 345 1014 336 1007 z m 438 1038 b 409 1018 427 1031 414 1022 b 401 1016 405 1015 401 1014 b 440 1065 401 1021 425 1051 b 451 1079 446 1070 451 1077 b 466 1088 451 1081 458 1085 b 520 1107 474 1090 498 1099 b 602 1133 556 1122 600 1135 b 592 1094 603 1132 598 1115 b 577 1063 583 1063 580 1057 b 534 1076 572 1074 556 1079 b 438 1038 508 1073 464 1056 z m 390 1130 l 390 1130 b 342 1106 371 1121 350 1110 l 329 1098 l 343 1111 b 425 1153 360 1127 387 1140 b 441 1153 457 1164 469 1164 b 390 1130 432 1150 409 1140 z m 522 1145 b 471 1128 496 1137 473 1129 b 469 1132 469 1127 468 1129 b 559 1166 471 1141 536 1166 b 573 1163 569 1166 575 1165 b 522 1145 571 1161 548 1153 z "},"'":{"ha":311,"x_min":0,"x_max":0,"o":"m 230 727 l 230 727 b 239 725 231 726 235 725 b 245 766 246 725 247 726 b 239 918 244 789 241 857 b 228 1004 233 1064 229 1097 l 227 935 l 224 974 b 214 1050 222 996 218 1030 b 203 1125 210 1071 205 1104 b 187 1191 199 1170 194 1188 b 170 1157 177 1195 172 1185 b 162 1127 168 1139 165 1128 b 156 1117 160 1126 157 1122 b 149 1129 155 1108 152 1112 b 138 1139 147 1137 144 1139 b 128 1135 133 1139 129 1137 b 118 1130 127 1132 123 1130 b 107 1111 110 1130 109 1128 b 105 1105 106 1095 105 1094 b 99 1120 104 1113 102 1119 b 90 1136 96 1121 92 1128 b 77 1150 87 1147 84 1150 b 68 1145 73 1150 68 1148 b 71 1078 67 1135 69 1084 b 70 1067 72 1074 71 1069 b 83 881 65 1061 74 922 b 104 840 89 849 97 835 b 111 817 106 841 109 831 b 146 766 120 764 126 755 l 157 771 l 158 828 b 160 877 158 860 159 882 b 166 867 161 873 164 868 b 171 839 170 866 171 859 b 178 811 171 817 172 812 b 187 804 181 809 185 806 b 205 805 191 797 202 798 b 209 836 206 809 208 822 l 212 861 l 215 829 b 230 727 217 796 227 732 z "},"(":{"ha":543,"x_min":0,"x_max":0,"o":"m 461 -70 l 461 -70 b 486 -71 474 -80 484 -81 b 469 -41 486 -68 479 -54 b 446 2 458 -26 449 -8 b 452 16 441 22 441 22 b 469 26 459 12 469 17 b 448 58 469 29 460 43 b 409 114 437 73 419 98 b 373 165 398 130 382 153 b 339 227 364 178 349 206 b 313 286 330 249 318 275 b 297 342 307 298 301 320 b 263 485 290 389 272 462 b 262 518 255 506 255 511 b 267 530 264 521 267 526 b 279 589 267 533 272 560 b 317 697 289 633 296 651 b 385 870 387 849 391 860 b 405 921 381 876 384 883 b 425 983 430 966 433 976 b 404 970 420 988 413 983 b 403 993 394 954 393 971 b 407 1025 413 1016 414 1022 b 412 1048 403 1026 404 1031 b 418 1072 424 1071 424 1072 b 392 1046 415 1072 404 1060 b 371 1019 381 1031 371 1019 b 419 1092 369 1019 380 1035 b 476 1182 450 1135 476 1177 b 398 1094 476 1198 435 1151 b 348 1026 360 1034 355 1026 b 338 1021 345 1026 340 1024 b 329 1019 334 1017 332 1016 b 303 1002 322 1026 317 1022 b 280 983 291 984 287 981 b 233 918 270 985 258 968 b 209 884 220 889 216 884 b 155 782 194 884 185 866 b 136 740 148 762 140 743 b 125 719 133 738 128 728 b 89 645 120 700 113 683 b 85 605 70 613 69 602 b 95 605 89 606 94 606 b 79 533 96 603 89 571 b 54 432 69 496 58 450 b 52 333 46 394 45 339 b 78 339 59 325 71 328 l 85 350 l 93 328 b 105 284 97 315 103 296 b 112 258 108 272 111 261 b 131 260 116 252 129 253 b 143 239 133 264 137 257 b 178 179 155 206 170 180 b 223 105 185 179 200 155 b 311 -70 250 45 305 -63 b 328 -67 317 -76 325 -74 b 311 -9 329 -64 322 -38 b 290 50 301 20 291 46 b 314 8 289 54 299 35 b 346 -43 331 -25 342 -42 b 351 -35 352 -44 353 -43 b 360 -38 349 -26 350 -26 b 384 -28 377 -60 396 -52 b 381 -15 376 -13 375 -9 b 398 -20 384 -17 391 -19 b 429 -41 406 -21 416 -28 b 461 -70 440 -51 455 -64 z m 432 29 b 436 16 435 24 437 18 b 428 23 435 13 432 16 b 432 29 421 37 423 42 z m 243 121 b 252 96 249 108 253 97 b 239 119 251 95 246 106 b 243 121 226 151 228 152 z m 285 292 b 287 275 287 284 288 277 b 272 314 286 271 283 279 b 276 312 271 317 272 317 b 285 292 279 309 283 299 z m 80 399 b 70 369 77 389 73 375 b 67 381 65 359 65 360 b 89 488 69 404 85 484 b 80 399 92 491 85 417 z m 211 387 l 211 387 b 213 379 213 384 214 380 b 207 388 210 377 207 382 b 211 387 207 393 208 393 z m 366 982 b 353 972 352 962 345 957 b 368 991 356 977 363 986 b 366 982 377 999 377 998 z m 388 1016 b 380 1011 383 1008 380 1006 b 386 1019 380 1013 383 1017 b 388 1016 391 1024 392 1024 z "},")":{"ha":514,"x_min":0,"x_max":0,"o":"m 189 -59 l 189 -59 b 199 -64 190 -62 195 -64 b 235 -14 208 -64 220 -47 b 247 7 240 -3 246 7 b 253 16 249 7 252 11 b 284 109 258 37 282 109 b 271 51 285 109 280 83 b 259 -11 263 19 257 -9 b 269 -14 260 -13 265 -15 b 285 17 276 -13 279 -9 b 350 200 295 52 315 110 b 375 286 370 253 375 268 b 387 351 375 308 380 334 b 395 353 391 360 391 360 b 420 352 401 341 412 341 b 423 382 424 360 425 366 b 423 431 422 394 422 415 l 426 458 l 435 419 b 453 380 444 383 445 380 b 462 393 461 380 462 382 b 457 430 462 400 460 416 b 446 524 455 444 450 486 b 416 688 436 633 428 674 b 393 688 407 700 396 699 b 341 771 392 682 380 701 b 280 885 313 821 286 873 b 252 912 267 914 261 921 b 254 881 247 907 247 905 b 259 859 258 867 260 857 b 205 942 247 873 218 917 b 182 972 194 964 188 972 b 174 964 178 972 175 969 b 166 955 174 960 170 956 b 160 940 160 953 159 951 b 161 928 162 933 162 928 b 153 940 161 928 157 933 b 139 952 149 947 143 952 b 122 973 135 952 129 960 b 56 1066 108 997 74 1045 b 29 1068 41 1082 31 1083 b 104 918 28 1058 62 989 b 119 877 122 885 124 880 b 131 840 110 872 112 866 b 174 758 142 825 158 794 b 219 662 187 725 208 682 b 258 510 261 582 257 600 l 259 430 l 239 368 b 189 254 222 314 216 299 b 163 189 159 201 157 195 b 139 145 165 187 156 170 b 98 80 125 122 106 93 b 90 50 85 58 84 55 b 100 47 93 47 97 46 b 133 88 103 48 118 66 b 169 127 155 118 163 127 b 192 157 176 127 180 133 b 209 189 200 174 207 188 b 171 108 211 190 194 154 b 133 -9 128 20 120 -4 b 154 4 138 -11 143 -8 b 161 8 166 18 167 18 b 185 -11 151 -14 166 -26 l 194 -4 l 196 -13 b 193 -38 198 -19 196 -29 b 189 -59 190 -46 188 -56 z m 237 188 b 230 172 237 186 234 179 b 223 164 226 166 223 162 b 237 188 224 170 237 193 z m 356 402 l 356 402 b 357 396 358 401 358 398 b 354 398 355 393 355 394 b 356 402 354 401 355 404 z m 315 419 b 312 413 316 418 315 415 b 310 415 309 410 308 410 b 315 419 311 419 313 420 z m 393 615 b 386 590 393 595 392 592 b 382 613 376 587 375 591 b 393 615 391 641 393 642 z m 273 630 b 273 623 275 626 275 623 b 266 632 272 623 268 627 b 273 630 261 642 267 641 z m 371 653 b 364 641 371 651 368 646 l 358 632 l 358 643 b 348 677 359 648 354 664 b 338 701 342 690 337 701 b 371 653 341 701 372 656 z m 211 860 b 225 812 219 834 226 813 b 213 827 225 811 219 818 b 195 877 207 838 200 857 b 211 860 182 936 187 930 z "},"*":{"ha":540,"x_min":0,"x_max":0,"o":"m 220 739 l 220 739 b 238 760 228 731 233 738 b 249 781 242 776 244 782 b 258 784 252 780 256 782 b 272 877 261 789 268 832 b 276 897 273 888 275 897 b 301 869 278 897 289 884 b 338 836 322 841 333 831 b 326 871 343 840 339 850 b 312 896 318 884 312 895 b 321 890 312 897 316 894 b 340 893 331 883 340 884 b 314 926 340 896 328 911 b 287 956 299 941 287 954 b 445 982 287 959 387 976 b 492 998 482 987 492 990 b 465 1008 492 1006 482 1009 b 443 1013 452 1006 448 1007 b 423 1021 438 1018 431 1021 b 411 1026 415 1021 411 1023 b 368 1040 411 1032 403 1035 l 340 1044 l 373 1071 b 431 1114 391 1086 417 1105 b 457 1139 451 1127 457 1133 b 452 1150 457 1144 455 1149 b 365 1103 446 1152 412 1133 b 344 1094 342 1088 337 1086 l 352 1104 l 339 1094 b 330 1083 327 1085 321 1077 b 332 1082 333 1085 333 1084 b 326 1080 330 1079 328 1078 b 307 1071 324 1081 315 1077 b 290 1060 298 1065 290 1060 b 286 1087 289 1060 287 1072 b 280 1118 284 1102 282 1116 b 271 1161 276 1124 271 1145 b 264 1176 271 1172 270 1175 b 252 1152 257 1177 256 1174 b 241 1132 248 1129 247 1127 b 214 1123 233 1140 221 1136 b 206 1113 211 1118 207 1113 b 200 1103 204 1113 202 1108 l 198 1092 l 183 1108 b 145 1134 163 1130 151 1138 b 146 1119 141 1132 141 1129 b 149 1104 150 1111 151 1105 b 163 1068 141 1099 146 1087 b 161 1062 192 1035 191 1031 b 162 1050 135 1089 136 1083 b 143 1030 176 1033 176 1033 b 110 1013 119 1029 110 1024 b 71 1007 110 1007 107 1007 b 27 1001 41 1007 31 1006 b 4 994 24 998 14 995 b -17 976 -17 991 -25 984 b 20 969 -14 973 -1 971 b 55 960 47 967 53 966 b 120 946 57 954 85 948 l 136 945 l 115 929 b 63 877 82 904 60 883 b 68 872 64 874 66 872 b 111 902 70 872 90 885 b 176 947 160 938 172 947 b 124 891 178 947 154 921 b 39 794 58 824 39 803 b 114 844 39 777 51 785 l 179 905 l 181 866 b 195 819 183 825 184 819 b 213 852 203 819 207 826 b 221 873 215 863 219 872 b 221 839 224 874 224 865 b 220 739 215 792 215 744 z m 185 1013 b 181 1011 188 1012 186 1011 b 176 1013 176 1011 174 1012 b 185 1013 179 1014 183 1014 z m 192 1073 b 194 1067 194 1070 195 1067 b 172 1095 193 1067 175 1089 b 192 1073 169 1102 187 1081 z "},"+":{"ha":728,"x_min":0,"x_max":0,"o":"m 321 151 l 321 151 b 329 147 323 149 326 147 b 337 151 331 147 335 149 b 348 330 339 155 348 290 b 352 341 348 336 350 341 b 355 294 354 341 355 323 b 370 241 355 245 356 242 b 382 226 376 241 379 237 b 396 212 385 214 387 212 b 437 333 408 212 407 209 b 461 406 457 415 460 423 b 456 342 461 396 459 367 b 449 259 453 317 450 280 b 452 221 446 226 447 221 b 459 224 455 221 458 222 b 479 411 463 229 475 346 b 485 480 481 444 484 475 b 555 499 487 491 484 490 b 601 510 582 503 598 506 b 624 516 603 513 613 515 b 644 527 643 517 644 517 b 656 541 644 535 646 538 b 665 563 670 546 676 559 b 675 577 655 567 660 575 b 696 583 683 578 693 581 b 695 602 705 587 704 599 b 688 611 691 603 688 607 b 681 620 688 615 685 619 b 674 627 677 621 674 624 b 630 638 674 633 665 636 b 593 647 604 640 597 641 b 556 653 589 652 584 653 b 489 656 538 653 508 654 l 454 658 l 456 678 b 462 794 460 711 463 771 b 454 819 461 813 460 817 b 448 830 450 820 448 823 b 441 842 449 836 447 840 b 432 861 436 845 433 850 b 417 881 430 880 429 881 b 409 885 412 881 409 882 b 400 905 412 891 405 905 b 394 915 396 905 394 908 b 389 929 394 920 392 927 b 366 860 377 939 374 932 b 355 800 360 812 357 793 b 358 846 354 806 355 827 b 358 886 363 877 363 881 b 331 817 346 898 343 889 b 300 697 309 688 285 593 b 294 700 310 762 306 763 b 283 654 289 676 284 655 b 138 663 281 652 142 660 b 121 653 133 666 121 660 b 92 647 121 647 119 646 b 48 630 51 647 46 645 b 45 616 50 622 49 618 b 54 589 35 612 40 595 b 47 577 67 583 66 581 b 21 542 21 573 8 555 b 22 534 24 539 25 536 b 21 525 20 533 19 529 b 9 519 22 519 21 519 b -20 502 -6 519 -20 511 b 93 476 -20 491 23 481 b 119 473 115 475 127 473 b 98 456 103 472 95 465 b 153 452 100 451 106 450 b 233 458 181 454 217 456 b 262 460 248 460 261 461 b 239 398 263 459 253 431 b 216 330 226 364 215 334 b 235 326 218 321 228 319 b 249 354 238 329 245 342 b 264 372 256 374 258 376 b 273 372 269 369 271 369 b 276 315 274 374 276 349 b 291 239 276 251 279 239 b 307 287 299 239 300 241 l 312 318 l 312 267 b 321 151 313 201 316 157 z m 425 371 l 425 371 b 396 271 411 316 398 271 b 396 296 395 271 394 282 b 424 480 399 329 421 475 b 441 483 425 482 433 483 b 453 478 452 483 455 482 b 425 371 452 475 439 427 z m 464 438 b 464 429 465 436 465 432 b 462 434 463 427 462 429 b 464 438 462 438 463 440 z m 117 500 b 104 498 124 499 118 498 b 90 500 89 498 83 499 b 117 500 98 501 110 501 z m 52 557 b 48 552 54 556 52 554 b 46 554 43 550 43 551 b 52 557 49 557 51 558 z m 74 560 l 74 560 b 70 558 78 559 76 558 b 64 560 64 558 61 559 b 74 560 66 561 71 561 z m 125 565 l 125 565 b 86 562 120 561 83 559 b 109 566 87 563 97 565 b 125 565 124 567 129 567 z m 587 565 b 573 565 577 560 570 560 b 585 568 574 566 580 568 b 587 565 593 568 594 567 z m 329 673 l 329 673 b 329 659 330 670 330 664 b 328 665 329 655 328 658 b 329 673 328 673 328 677 z m 333 698 b 333 686 334 695 334 689 b 331 692 332 682 331 685 b 333 698 331 699 332 702 z "},",":{"ha":408,"x_min":0,"x_max":0,"o":"m -18 -239 b -10 -242 -17 -241 -13 -242 b 180 -53 0 -242 96 -146 b 261 34 210 -20 246 19 b 288 65 276 48 288 62 b 310 97 288 68 298 82 b 330 134 325 117 331 128 b 296 132 328 146 318 146 l 275 120 l 271 129 b 272 148 268 136 268 140 b 268 165 278 159 277 165 b 230 145 265 165 248 156 l 199 126 l 212 140 b 221 167 225 155 227 163 b 172 137 212 172 199 164 b 103 73 157 122 126 93 b 3 -26 79 52 35 8 b -101 -129 -54 -88 -78 -112 b -112 -149 -110 -137 -112 -141 b -101 -159 -111 -158 -109 -159 b -66 -142 -95 -158 -80 -151 b -40 -128 -53 -133 -41 -127 b -59 -155 -35 -133 -39 -140 b -80 -178 -71 -165 -80 -175 b -55 -195 -80 -187 -64 -198 b -44 -199 -52 -194 -47 -196 b -31 -202 -42 -202 -37 -203 l -23 -200 l -32 -211 b -31 -235 -43 -224 -43 -233 b -18 -239 -26 -235 -20 -237 z m 275 88 b 252 64 271 83 261 72 b 241 55 244 56 239 52 b 246 66 244 58 246 63 b 264 85 246 69 254 78 b 275 88 281 98 282 98 z m 225 109 b 191 90 208 92 200 87 b 212 111 186 92 190 96 b 225 109 241 132 246 131 z "},"-":{"ha":788,"x_min":0,"x_max":0,"o":"m 157 405 b 439 410 218 401 385 404 b 657 454 538 422 647 443 b 645 473 665 461 658 472 b 665 486 618 473 626 478 b 733 507 726 498 733 500 b 652 522 733 521 727 522 b 634 535 576 523 574 524 b 687 554 678 543 687 546 b 654 568 687 563 674 568 b 641 577 634 568 626 574 b 662 593 656 580 662 585 b 683 603 662 598 667 600 b 711 611 694 606 707 609 b 715 627 720 614 722 623 b 727 634 712 628 717 631 b 744 646 740 638 744 641 b 738 655 744 650 741 654 b 653 644 733 657 673 649 b 647 653 647 642 646 643 l 649 665 l 611 662 b 529 660 589 661 553 660 b 287 632 474 661 374 649 b 170 612 249 625 196 616 b 107 589 119 605 104 600 b 80 578 109 582 102 579 b 48 564 56 578 48 574 b 71 555 48 556 49 556 b 93 547 92 554 95 553 b 126 530 91 538 99 533 b 108 526 150 527 149 526 b 57 511 64 526 55 523 b 42 492 59 498 56 495 b 25 482 31 489 26 486 b 74 468 23 471 31 469 l 115 468 l 78 463 b 25 449 41 459 25 454 b 88 430 25 437 46 431 b 104 425 101 430 106 429 b 110 414 103 423 106 418 b 157 405 115 409 126 407 z m 443 432 l 443 432 b 391 432 382 425 361 425 b 439 444 403 434 425 440 b 524 453 461 450 477 452 b 579 453 556 454 581 454 b 443 432 572 450 490 437 z m 440 475 l 440 475 b 438 473 443 474 442 473 b 433 475 434 473 432 473 b 440 475 434 476 437 476 z m 496 481 l 496 481 b 468 477 489 479 476 476 l 452 477 l 468 480 b 496 485 476 481 489 484 l 508 486 z m 604 495 b 569 493 579 490 564 489 b 599 498 570 495 584 497 l 625 500 z m 196 549 b 191 547 198 548 196 547 b 187 549 186 547 184 548 b 196 549 189 550 193 550 z "},".":{"ha":330,"x_min":0,"x_max":0,"o":"m 123 3 b 266 34 179 -13 232 -2 b 289 161 296 66 299 81 b 272 211 284 200 283 202 b 184 231 256 224 238 228 b 119 227 145 233 135 232 b 47 165 70 211 65 206 b 47 78 33 135 33 114 b 77 30 55 55 61 46 b 123 3 94 13 100 9 z m 218 24 b 198 16 210 20 201 16 b 259 78 194 16 223 46 b 276 87 276 94 278 95 b 218 24 270 61 249 37 z m 156 90 b 135 97 152 83 140 88 b 143 104 126 115 129 117 b 156 90 151 98 156 91 z m 192 102 b 178 97 184 94 181 93 b 195 115 176 101 189 115 b 192 102 203 115 202 111 z m 175 108 b 154 112 169 99 167 99 b 158 121 141 125 143 129 b 174 115 164 118 171 115 b 175 108 179 115 179 114 z m 189 139 l 189 139 b 166 138 186 132 177 132 l 158 142 l 168 148 b 185 149 177 153 179 153 b 189 139 189 147 190 142 z "},"/":{"ha":1021,"x_min":0,"x_max":0,"o":"m -44 -182 l -44 -182 b -14 -166 -36 -185 -34 -184 b 121 -3 13 -141 65 -78 b 175 57 159 48 169 59 b 182 55 179 56 182 55 b 148 -9 182 50 163 14 b 116 -89 115 -60 104 -89 b 155 -32 122 -89 133 -73 b 321 211 177 8 303 192 b 270 124 330 219 299 168 b 159 -61 239 78 194 3 b 147 -98 145 -87 143 -93 b 184 -75 154 -107 159 -104 b 272 46 214 -40 242 -2 b 300 89 284 66 297 86 b 370 219 309 98 346 167 b 396 256 389 259 392 262 b 408 253 400 251 402 250 b 456 340 411 255 433 295 b 722 683 521 467 563 521 b 777 743 763 725 788 752 b 625 600 741 714 680 656 b 576 554 594 569 573 548 b 657 662 594 582 634 635 b 668 679 675 683 679 688 b 652 670 653 666 645 661 b 747 804 665 687 702 739 b 835 922 775 845 815 898 b 867 970 864 957 870 965 b 958 1120 861 979 874 1000 b 979 1160 978 1148 982 1156 b 972 1165 976 1163 973 1165 b 947 1145 970 1165 959 1156 b 926 1129 935 1134 926 1127 b 918 1135 926 1131 922 1134 b 834 1068 911 1137 891 1121 l 811 1046 l 819 1062 b 817 1094 829 1081 828 1092 b 804 1091 812 1094 806 1093 b 797 1092 800 1088 799 1088 b 788 1098 796 1095 792 1098 b 734 1045 782 1098 750 1067 b 693 990 729 1038 711 1013 b 610 875 676 966 638 915 b 550 793 581 835 555 798 b 551 800 543 785 543 785 b 612 923 584 861 613 920 b 467 777 604 944 553 892 b 169 290 371 649 249 449 b 149 216 136 223 133 213 b 237 345 156 218 205 289 b 275 399 249 367 265 389 l 293 416 l 284 402 b 256 358 279 394 266 374 b 172 210 230 317 194 254 b 105 99 162 190 132 140 b -48 -171 16 -38 -48 -152 b -44 -182 -48 -176 -46 -181 z m 21 -99 b -11 -131 -21 -149 -18 -146 b 106 64 4 -101 102 64 b 102 48 107 64 105 57 b 98 16 99 40 97 25 b 72 -36 98 -1 98 -3 b 21 -99 58 -54 35 -83 z m 236 25 b 220 8 217 -3 206 -15 b 245 49 224 14 235 33 b 292 119 266 84 292 123 b 236 25 292 116 258 59 z m 142 66 b 130 70 114 24 112 24 b 231 256 156 137 174 170 b 292 349 263 305 290 347 b 184 134 298 354 208 175 b 142 66 173 114 154 83 z m 212 87 b 203 81 206 77 203 76 b 211 90 203 82 207 87 l 218 97 z m 276 244 b 240 191 257 215 241 191 b 243 199 239 191 240 195 b 315 331 246 203 278 263 b 579 784 440 564 486 644 b 664 909 618 842 656 898 b 792 1055 700 958 788 1059 b 705 912 796 1052 741 962 b 527 639 643 827 576 725 b 457 525 514 616 482 564 b 361 375 431 486 388 418 b 276 244 334 332 296 273 z m 226 354 b 211 333 219 343 212 333 b 218 348 210 333 213 340 b 231 371 223 356 229 367 b 237 378 234 376 236 379 b 226 354 238 377 233 366 z m 321 484 b 297 453 308 467 298 453 b 381 598 292 453 338 534 b 392 621 400 627 402 632 l 379 607 l 389 625 b 560 864 430 697 497 790 b 507 764 568 873 531 804 b 321 484 479 718 351 525 z m 529 587 b 504 557 470 496 469 496 b 598 706 525 594 587 692 b 529 587 613 726 565 642 z m 698 812 b 654 761 675 784 655 761 b 689 825 653 761 662 779 b 801 963 704 851 746 903 b 860 1027 822 986 848 1014 l 880 1050 l 871 1032 b 760 884 859 1008 786 912 b 698 812 749 872 721 839 z m 827 1020 b 754 944 776 963 746 932 b 877 1081 776 979 832 1041 l 903 1103 l 881 1080 b 827 1020 869 1067 845 1040 z m 380 88 b 386 82 380 83 382 81 b 503 307 395 84 467 223 b 568 449 520 348 549 411 b 601 517 587 486 602 517 b 545 420 599 517 566 460 b 498 322 532 396 511 352 b 457 239 475 271 451 223 b 527 420 463 258 516 395 b 538 450 533 436 538 450 b 480 325 534 450 510 396 b 414 172 462 284 433 215 b 380 88 396 129 380 91 z "},":":{"ha":357,"x_min":0,"x_max":0,"o":"m 129 37 b 190 45 149 32 159 33 b 271 100 221 57 259 83 b 289 251 298 140 305 204 b 278 282 285 262 280 276 b 267 301 276 288 271 297 b 248 318 262 305 254 313 b 187 328 233 332 218 334 b 82 239 141 318 105 288 b 81 73 52 176 52 119 b 129 37 94 53 108 42 z m 113 85 b 117 74 116 79 118 74 b 105 94 115 74 104 92 b 113 85 106 94 109 90 z m 191 102 b 182 99 190 101 186 99 b 181 104 174 99 174 99 b 191 102 188 110 195 108 z m 82 128 b 82 119 83 126 83 122 b 81 124 81 117 81 119 b 82 128 81 129 81 131 z m 272 242 b 274 230 274 240 275 235 b 268 237 273 220 268 225 b 272 242 268 243 269 245 z m 182 273 b 159 260 180 273 169 267 b 149 262 140 248 133 249 b 185 275 160 270 182 278 b 182 273 187 274 185 273 z m 257 275 b 258 269 260 271 260 269 b 251 278 253 269 249 276 b 257 275 252 279 255 277 z m 232 296 b 225 296 232 289 231 289 b 227 301 222 300 222 301 b 232 296 230 301 232 299 z m 158 546 b 200 555 178 543 185 544 b 241 617 214 566 238 601 b 248 634 243 624 246 631 b 268 687 258 645 268 672 b 244 735 268 706 264 713 b 215 751 231 749 227 751 b 189 757 207 751 195 754 b 153 763 181 761 169 763 b 105 752 132 763 124 761 b 36 652 61 731 36 695 b 43 614 36 635 38 625 b 103 565 52 597 87 568 b 128 555 109 563 120 559 b 158 546 135 551 149 547 z m 176 570 b 165 567 173 568 168 567 b 167 570 162 567 162 568 b 176 570 177 574 182 574 z m 121 606 b 125 595 124 600 125 595 b 116 609 120 596 115 603 b 121 606 117 616 118 616 z m 171 635 b 157 628 165 619 160 616 b 162 642 155 633 157 637 b 171 635 174 651 176 650 z m 103 682 b 91 647 100 672 95 656 l 84 629 l 82 640 b 101 690 79 652 87 672 b 103 682 108 699 108 699 z m 193 653 b 190 645 193 651 192 647 b 186 643 188 642 186 641 b 190 652 186 645 188 649 b 193 653 192 655 193 655 z m 101 717 b 95 712 99 714 96 712 b 98 717 94 712 95 714 b 104 722 100 720 103 722 b 101 717 105 722 104 720 z "},";":{"ha":358,"x_min":0,"x_max":0,"o":"m 106 -97 b 123 -99 109 -98 116 -99 b 145 -81 135 -100 136 -99 b 171 -61 156 -60 163 -55 b 193 -46 179 -68 186 -63 b 208 -22 197 -37 204 -27 b 215 -8 212 -18 215 -12 b 248 64 215 -4 230 28 b 286 144 267 99 284 135 b 283 165 291 158 290 160 b 264 217 276 171 266 196 b 250 234 263 225 260 229 b 236 249 240 239 236 243 b 197 271 236 261 222 269 b 137 260 178 272 168 271 b 88 242 116 253 94 245 b 48 180 74 235 58 210 b 44 134 41 159 41 154 b 87 69 49 108 56 96 b 124 46 104 54 114 48 b 137 40 131 45 137 42 b 126 6 137 38 132 22 b 106 -97 103 -56 96 -94 z m 70 132 b 67 126 75 112 73 107 b 68 178 61 144 62 165 b 72 182 71 184 73 186 b 70 132 67 164 66 146 z m 232 200 b 235 185 235 194 236 188 b 227 204 233 179 225 197 b 232 200 228 208 229 207 z m 74 470 b 109 469 81 468 96 468 b 159 470 122 470 144 471 b 240 496 189 470 209 476 b 309 610 283 523 309 567 b 243 686 309 657 283 686 b 229 690 236 686 229 688 b 218 699 229 692 224 696 b 114 668 195 711 147 697 b 79 590 92 649 81 623 b 64 549 77 565 76 562 b 45 521 57 542 48 529 b 74 470 34 497 44 480 z m 95 491 l 95 491 b 63 500 95 484 71 490 b 64 516 60 504 60 507 b 79 521 72 531 76 532 b 88 502 81 515 85 507 b 95 491 92 498 95 493 z m 187 586 b 166 583 181 582 166 580 b 184 601 166 586 181 601 b 187 586 187 601 190 587 z m 215 601 b 210 594 213 597 211 594 b 212 601 209 594 210 597 b 217 608 214 605 216 608 b 215 601 218 608 217 605 z m 285 637 b 283 627 290 624 290 620 b 279 640 281 629 279 635 b 285 637 279 648 280 648 z m 151 669 b 121 648 142 664 129 655 l 107 635 l 121 650 b 195 686 140 671 172 686 b 187 679 218 686 214 682 b 151 669 175 677 159 673 z "},"<":{"ha":494,"x_min":0,"x_max":0,"o":"m 332 377 l 332 377 b 375 371 350 373 369 371 b 377 386 388 372 389 380 l 368 391 l 377 392 b 385 403 384 393 385 395 l 385 413 l 408 410 b 436 413 427 409 433 409 b 423 434 443 421 437 430 b 411 451 410 438 409 439 b 375 478 413 468 410 470 b 244 539 346 484 256 527 b 332 602 239 545 243 548 b 430 663 384 633 428 660 b 423 678 435 669 431 678 b 414 683 419 678 415 680 b 374 680 411 691 395 690 l 355 671 l 373 689 b 385 720 392 708 394 713 b 367 720 381 724 377 724 b 347 717 359 718 351 716 b 208 641 337 718 243 667 b 139 600 202 636 171 618 b 74 561 107 582 78 565 b 76 543 68 556 69 543 b 65 531 78 543 73 538 b 48 519 57 524 50 519 b 36 511 40 520 36 518 b 66 487 36 504 42 500 b 85 474 82 479 90 473 b 61 464 70 477 61 473 b 137 428 61 455 69 451 b 332 377 175 415 278 388 z m 170 472 b 132 483 172 467 168 469 b 105 497 113 490 101 496 b 170 472 112 498 166 477 z m 86 508 b 80 505 86 506 84 505 b 77 508 77 505 76 506 b 86 508 80 513 86 513 z m 222 529 l 222 529 b 217 529 225 525 224 525 b 216 533 214 531 213 533 b 222 529 218 533 221 531 z "},"=":{"ha":772,"x_min":0,"x_max":0,"o":"m 293 260 l 293 260 b 356 271 287 254 297 256 b 606 291 427 288 507 294 b 671 300 671 288 672 289 b 695 303 670 302 681 303 b 737 316 724 303 737 307 b 689 327 737 325 728 327 b 655 335 659 327 657 328 b 684 340 653 343 653 343 b 758 332 701 339 734 335 b 811 339 805 326 813 327 b 742 359 810 348 792 353 b 763 362 715 362 715 362 b 817 378 813 363 822 366 b 716 385 814 385 820 385 l 637 385 l 667 391 l 697 398 l 669 396 l 641 394 l 644 405 b 620 423 646 417 639 423 b 615 427 610 424 609 424 b 636 430 619 428 628 430 l 650 430 l 647 445 b 643 462 646 454 644 461 b 557 461 641 464 584 463 b 546 462 545 460 541 460 b 534 467 554 464 551 465 b 444 466 505 471 480 471 b 168 445 408 462 251 449 b 107 437 126 442 109 440 b 130 419 102 430 116 420 b 136 417 136 419 139 418 b 140 399 129 414 131 402 b 143 393 145 397 146 395 b 139 384 141 392 139 388 b 120 375 139 379 135 377 b 102 363 104 372 102 371 b 111 352 102 356 104 354 b 119 342 117 351 119 348 b 128 332 119 335 121 333 b 143 323 144 330 148 328 b 139 313 141 321 139 316 b 134 306 139 309 137 306 b 128 292 128 306 124 298 b 170 290 131 288 140 288 b 225 283 208 292 211 292 b 323 278 243 273 266 272 b 357 280 341 280 357 281 b 328 271 358 280 345 275 b 293 260 310 266 295 261 z m 260 404 l 260 404 b 250 403 265 404 260 403 b 243 404 241 403 237 404 b 260 404 248 405 256 405 z m 287 408 b 281 406 290 407 287 406 b 274 408 274 406 271 407 b 287 408 278 409 283 409 z m 160 550 l 160 550 b 668 572 183 542 658 562 b 647 592 675 579 666 587 b 637 598 633 595 631 596 b 652 622 655 605 662 616 b 655 625 649 624 649 625 b 677 637 666 625 677 631 b 648 651 677 644 668 648 b 623 662 637 653 628 657 l 614 671 l 634 672 b 654 682 653 673 654 673 b 659 697 655 687 656 694 b 629 718 666 705 658 710 b 581 722 609 723 596 724 b 555 727 565 721 560 721 b 513 734 550 732 542 733 b 202 711 443 737 210 719 b 200 701 200 709 199 704 b 231 691 201 695 206 694 l 261 688 l 220 681 b 156 675 198 678 169 675 b 132 671 143 675 132 673 b 102 666 132 670 118 667 b 68 657 78 664 71 662 b 106 645 62 645 72 642 b 142 643 125 646 139 645 b 146 638 145 641 147 639 b 111 633 145 637 129 635 b 45 616 53 626 45 624 b 63 609 45 610 48 609 b 144 600 105 607 140 604 b 154 597 146 598 151 597 b 138 590 168 597 157 592 b 118 582 125 589 119 586 b 125 574 118 579 120 575 b 132 565 129 573 132 568 b 142 556 132 560 135 557 b 160 550 147 555 155 552 z m 551 695 b 543 693 555 694 551 693 b 535 695 534 693 530 694 b 551 695 539 696 546 696 z m 575 698 l 575 698 b 573 696 578 697 577 696 b 568 698 569 696 567 697 b 575 698 570 699 573 699 z "},">":{"ha":566,"x_min":0,"x_max":0,"o":"m 125 263 l 125 263 b 148 264 134 253 136 253 b 185 289 154 268 170 279 b 420 471 234 320 300 371 b 477 517 450 495 475 516 b 469 535 481 522 476 535 b 484 556 465 535 471 542 b 506 618 511 584 516 596 b 488 634 499 632 497 634 b 464 643 482 634 471 638 b 447 652 457 648 449 652 b 445 660 445 652 444 655 b 408 677 448 670 446 671 l 378 682 l 413 684 b 450 690 435 685 449 687 b 400 699 452 696 442 698 b 356 705 379 700 359 703 b 330 711 352 707 341 709 b 310 719 317 712 311 715 b 302 728 309 723 306 727 b 135 730 291 733 170 734 b 75 723 117 727 90 724 b 47 714 53 721 48 720 b 74 698 45 704 56 698 b 98 689 92 698 100 695 b 104 679 97 687 99 682 b 87 671 111 674 110 674 b 55 660 56 668 53 667 b 74 651 55 655 61 653 l 93 648 l 88 639 b 88 622 83 631 83 630 b 86 611 93 614 93 613 b 79 602 82 610 79 606 b 221 546 79 588 154 558 l 256 540 l 214 509 b 151 460 191 492 163 470 b 68 401 131 443 96 418 b 54 382 57 394 54 391 b 57 365 54 376 55 369 b 57 356 60 360 60 358 b 59 347 52 353 53 347 b 76 353 62 347 70 350 b 72 345 94 362 91 356 b 60 320 53 335 48 324 b 74 314 63 319 70 317 b 91 315 80 312 85 312 b 102 305 102 320 110 312 b 113 287 89 295 99 279 b 119 281 119 290 120 289 b 125 263 118 274 120 268 z m 310 598 b 305 596 312 597 310 596 b 301 598 300 596 298 597 b 310 598 303 598 307 598 z "},"?":{"ha":509,"x_min":0,"x_max":0,"o":"m 252 -21 b 321 -10 288 -25 301 -23 b 358 8 331 -4 348 4 b 410 89 395 21 419 59 b 415 115 406 102 407 104 b 426 159 428 133 432 149 b 380 173 419 168 395 175 b 359 178 373 171 367 173 b 323 186 350 185 343 186 b 262 169 300 186 295 185 b 170 59 206 141 173 102 b 252 -21 166 17 200 -15 z m 199 35 l 199 35 b 199 29 200 32 201 29 b 191 54 195 29 190 43 l 191 66 l 194 54 b 199 35 195 47 197 38 z m 218 109 b 213 100 219 107 217 104 b 211 103 207 95 207 95 b 218 109 214 107 216 110 z m 417 148 b 412 132 417 144 414 136 l 407 123 l 401 135 b 387 155 397 142 391 151 l 380 163 l 389 163 b 417 148 406 163 417 157 z m 305 317 b 318 313 307 313 310 312 b 343 339 334 317 337 320 b 354 362 345 348 350 358 b 366 391 358 365 363 378 b 392 464 374 428 385 459 b 405 506 397 468 401 480 l 411 542 l 420 535 b 433 532 426 530 430 529 b 436 541 436 535 438 539 b 440 552 435 544 437 549 b 436 605 448 559 446 578 b 434 632 426 635 426 634 b 444 661 446 629 450 639 b 440 689 440 672 439 684 b 436 707 441 693 439 701 b 431 728 433 713 431 722 b 426 749 431 733 429 743 b 423 771 423 756 422 765 b 417 782 424 778 423 780 b 415 788 410 784 410 785 b 420 799 419 791 421 796 b 395 806 419 805 416 806 b 291 810 315 804 295 805 b 257 806 287 816 284 816 b 232 800 249 803 237 800 b 185 775 220 801 203 792 b 151 753 177 768 162 758 b 128 733 132 743 125 738 b 58 674 130 730 103 707 b 30 635 24 648 18 641 b 64 648 36 631 50 637 b 67 649 69 651 70 652 b 67 626 61 642 61 628 b 10 572 72 624 42 595 b -7 543 -12 555 -16 550 b 26 556 -1 538 7 541 b 43 553 41 566 53 564 b 47 532 35 545 37 534 b 101 585 54 531 64 540 b 106 587 107 591 108 592 b 98 570 104 583 100 575 b 96 555 96 565 94 558 b 131 572 100 544 111 550 b 194 637 141 584 170 614 b 257 685 232 674 241 680 b 281 691 268 689 278 691 b 312 659 284 691 298 677 l 339 627 l 339 602 b 325 555 339 580 338 576 b 301 513 317 542 307 524 b 272 464 296 503 283 481 b 246 424 260 448 249 429 b 224 349 235 403 225 367 b 231 331 224 334 225 331 b 249 342 237 330 242 333 b 264 349 258 354 259 354 b 289 365 273 341 280 346 b 307 384 295 379 299 382 b 318 384 313 385 318 385 b 310 353 318 383 314 369 b 305 317 306 336 304 320 z m 269 408 b 264 408 257 390 255 390 b 275 422 268 416 273 422 b 269 408 277 422 275 416 z m 421 586 b 423 579 423 583 424 581 b 419 584 422 578 420 580 b 421 586 417 589 417 589 z m 119 604 b 109 595 115 599 110 595 b 116 604 108 595 111 599 b 126 613 120 609 125 613 b 119 604 127 613 124 609 z m 337 694 b 342 680 340 691 342 685 b 336 682 341 672 341 672 b 337 694 330 695 331 701 z "},"@":{"ha":732,"x_min":0,"x_max":0,"o":"m 288 113 l 288 113 b 322 91 307 101 322 91 b 328 93 322 91 325 92 b 329 112 335 95 335 105 b 332 114 326 115 326 116 b 453 112 362 106 433 105 b 462 131 463 116 467 125 b 386 144 457 135 410 143 b 368 149 376 144 369 146 b 340 167 367 151 355 159 b 177 285 300 187 261 215 b 148 313 162 297 149 310 b 151 326 147 316 148 321 b 157 434 156 332 157 350 b 163 567 157 518 158 541 b 168 603 167 585 169 601 b 173 608 167 606 169 608 b 201 639 177 608 187 619 b 275 703 224 672 238 684 b 394 726 322 726 329 727 b 460 719 434 724 455 722 b 529 704 469 713 509 704 b 578 673 553 703 586 683 b 583 623 575 670 577 656 b 594 486 602 529 603 523 b 548 405 586 450 581 442 b 524 389 529 382 527 381 b 514 487 519 402 513 467 b 516 542 515 498 516 523 b 507 595 516 573 515 580 b 413 655 488 634 455 655 b 309 618 378 655 347 644 b 210 484 256 583 219 532 b 212 384 205 456 205 407 b 306 296 227 325 271 284 b 342 300 312 298 328 300 b 417 330 370 300 390 308 b 437 335 432 343 432 343 b 447 329 439 330 443 328 b 454 326 452 330 454 329 b 462 322 454 322 457 321 b 472 335 468 322 471 326 l 474 347 l 480 338 b 482 324 483 332 484 328 b 496 308 478 317 488 305 b 512 307 499 310 506 309 b 543 306 518 305 532 305 b 563 317 559 308 562 310 b 557 327 564 322 562 325 b 561 338 549 330 549 331 b 581 354 568 342 577 349 b 596 361 586 359 592 362 b 604 374 601 360 602 362 l 607 388 l 617 383 b 639 395 630 376 633 378 b 678 470 644 412 660 441 b 693 523 693 492 693 493 b 683 588 693 545 690 562 b 676 637 674 618 673 625 b 676 661 679 649 679 654 b 607 725 668 676 615 725 b 596 734 602 725 598 728 b 588 747 594 740 590 745 b 571 737 583 750 571 744 b 557 736 571 734 568 733 b 548 753 542 740 539 746 b 546 771 556 759 555 766 b 474 773 540 774 520 775 l 410 771 l 428 778 b 446 791 440 782 446 786 b 395 794 448 802 440 803 b 326 789 323 780 327 780 b 296 787 324 802 315 801 b 250 776 274 772 258 768 b 242 781 247 779 243 781 b 78 601 236 781 95 627 b 104 591 66 584 84 576 l 115 598 l 109 589 b 105 572 105 584 104 576 b 91 544 106 566 102 559 b 79 507 76 525 71 512 b 75 491 81 506 80 499 b 75 460 66 473 66 463 b 80 454 79 459 81 456 b 66 456 79 450 76 451 b 46 462 60 460 51 463 b 52 404 32 460 34 442 b 65 372 61 386 66 371 b 56 349 53 379 45 358 b 59 337 59 347 60 342 b 61 320 58 332 59 325 b 70 281 64 316 68 298 b 79 235 73 264 77 243 b 144 174 86 213 112 188 b 180 146 166 164 172 159 b 197 130 187 133 191 130 b 204 141 202 131 205 134 l 204 150 l 230 142 b 288 113 246 137 268 126 z m 312 156 b 316 151 318 153 319 151 b 302 159 310 151 300 157 b 312 156 303 160 308 159 z m 149 201 b 152 194 151 197 153 194 b 113 221 145 195 123 210 b 93 276 102 234 93 258 b 149 201 93 288 128 242 z m 272 335 b 283 317 279 325 283 317 b 238 368 273 318 238 357 b 272 335 238 374 261 352 z m 309 375 l 309 375 b 304 374 314 365 312 365 b 299 390 301 377 298 385 l 299 401 l 302 392 b 309 375 303 387 306 379 z m 343 374 b 330 378 339 369 334 370 b 334 383 326 385 327 385 b 343 374 345 380 346 379 z m 500 381 l 500 381 b 490 382 500 369 493 370 b 488 395 489 388 488 394 b 500 381 491 398 500 387 z m 371 411 b 339 400 355 394 354 394 b 317 448 318 409 315 417 b 362 545 319 485 333 516 b 406 554 386 568 394 570 b 413 513 412 545 413 539 b 400 454 413 483 413 480 b 371 411 392 439 379 420 z m 415 411 b 409 406 413 408 410 406 b 412 411 408 406 409 408 b 418 417 414 414 417 417 b 415 411 419 417 418 414 z m 71 426 b 75 414 74 423 75 418 b 69 418 74 410 72 411 b 71 426 64 430 65 433 z m 250 461 b 242 427 247 453 243 438 b 236 418 240 410 239 409 b 273 519 229 446 243 488 l 288 535 l 281 521 b 266 491 278 513 271 500 b 250 461 260 482 253 469 z m 447 548 l 447 548 b 443 519 447 537 445 524 b 442 532 441 514 441 518 b 439 569 444 546 442 558 l 433 585 l 440 577 b 447 548 445 570 447 563 z m 298 572 b 255 532 280 556 260 538 b 256 538 246 522 246 523 b 376 628 282 576 336 616 b 468 613 412 639 453 632 b 462 615 472 609 470 609 b 414 624 451 623 447 624 b 355 612 381 624 376 623 b 298 572 342 606 317 588 z m 424 574 l 424 574 b 419 574 426 567 424 567 b 418 580 416 577 416 580 b 424 574 420 580 422 577 z m 366 585 b 359 580 366 584 362 582 b 351 578 355 577 351 577 b 359 583 351 579 355 581 b 366 585 362 585 366 586 z "},"A":{"ha":522,"x_min":0,"x_max":0,"o":"m 315 1044 b 295 1015 305 1044 301 1037 b 288 997 293 1005 289 996 b 267 973 281 1000 278 996 b 141 599 224 889 177 750 b 111 484 131 558 117 507 b 89 401 104 462 94 424 b 79 358 84 378 80 358 b -60 291 75 354 -37 300 b -97 263 -97 276 -103 271 b -108 249 -93 259 -95 257 b -128 224 -130 236 -134 231 b -73 227 -122 217 -111 217 b -40 234 -55 232 -40 235 b -76 215 -40 233 -56 225 b -118 191 -96 205 -115 194 b -130 181 -121 189 -126 184 b -116 164 -141 174 -133 163 b 40 221 -94 166 -23 192 b 101 249 73 237 100 250 b 94 160 101 249 98 209 b 73 -30 87 72 81 15 b 74 -58 69 -51 69 -55 b 81 -61 76 -60 80 -61 b 96 -18 86 -61 92 -46 b 102 -3 100 8 100 10 b 110 -18 103 -13 105 -17 b 123 22 120 -20 123 -13 b 146 222 123 74 133 160 l 157 281 l 182 294 b 270 346 195 302 235 325 b 335 382 304 366 334 383 b 360 289 338 381 346 351 b 440 63 385 181 426 63 b 424 201 455 63 452 89 b 400 334 414 240 398 331 b 410 307 401 334 405 322 b 426 279 417 282 419 279 b 424 362 437 279 437 281 b 413 431 418 398 413 429 b 642 548 413 444 552 515 b 688 572 678 561 688 567 b 678 579 688 576 685 578 l 669 580 l 678 588 b 674 608 688 597 686 608 b 535 556 659 608 578 577 b 486 537 514 545 484 533 b 539 564 487 538 511 551 b 591 595 577 582 591 590 b 554 598 591 605 580 606 b 434 553 486 576 463 567 b 400 537 417 544 402 537 b 374 758 394 537 385 614 b 365 864 370 815 366 862 b 360 901 364 865 362 882 b 344 939 357 935 354 942 b 339 971 340 937 339 944 b 334 1007 339 998 338 1006 b 328 1020 331 1008 328 1014 b 315 1044 328 1034 323 1044 z m 286 952 b 280 928 288 952 285 941 b 254 853 275 915 263 881 b 234 800 244 825 235 801 b 233 803 233 799 232 800 b 286 952 261 886 284 952 z m 304 861 b 313 716 306 861 309 824 b 320 596 314 685 317 631 b 320 543 325 534 325 516 b 297 819 299 666 291 758 b 304 861 299 840 302 859 b 304 861 304 861 304 861 z m 228 706 b 228 706 228 706 228 706 b 208 616 229 705 220 665 b 183 529 188 536 183 520 b 228 706 183 550 223 705 z m 278 703 b 278 701 278 703 278 702 b 300 548 279 676 289 605 b 311 489 306 517 311 491 b 277 465 311 487 296 476 b 242 445 259 454 243 445 b 247 519 239 445 240 460 b 278 703 257 595 275 704 z m 219 540 b 217 436 221 538 220 450 b 206 425 216 432 211 427 b 197 432 198 421 197 421 b 218 539 197 442 212 517 b 219 540 218 540 219 540 z m 181 523 b 182 522 181 523 182 523 b 182 515 183 521 183 518 b 180 518 181 513 180 513 b 181 523 180 520 180 522 z m 282 430 b 282 430 282 430 282 430 b 269 420 282 429 276 425 b 237 402 237 399 235 398 b 282 430 238 406 277 430 z m 210 390 b 205 381 213 390 212 386 b 190 376 195 372 190 370 b 201 387 190 379 195 384 b 208 390 204 388 206 389 b 210 390 209 390 209 390 z m 90 324 b 91 324 90 324 91 324 b 89 318 91 322 91 319 b -17 265 80 309 10 274 b -50 254 -34 259 -49 254 b 52 309 -53 254 6 286 b 90 324 70 318 86 324 z "},"B":{"ha":838,"x_min":0,"x_max":0,"o":"m 225 1103 b 202 1053 217 1103 212 1092 b 192 1020 197 1035 193 1021 b 156 1010 192 1020 175 1015 b 10 955 108 997 61 979 b -36 914 -35 933 -44 925 b 17 907 -31 908 -26 907 b 118 910 43 907 88 908 l 173 913 l 171 901 b 156 765 167 882 158 800 b 147 682 155 748 150 710 b 132 623 141 641 138 629 b 127 609 128 618 126 613 b 126 597 128 606 128 600 b 129 583 123 591 124 588 b 133 550 135 577 135 573 b 126 517 132 536 128 521 b 125 504 122 510 122 508 b 127 466 128 500 129 490 b 117 432 125 438 124 434 b 108 427 113 430 109 428 b 80 409 107 426 95 418 b 52 387 66 401 53 391 b 37 373 51 384 44 377 b 23 363 29 370 23 365 b 14 357 23 361 19 359 b 5 347 8 356 5 353 b 9 338 5 343 7 338 b 44 340 11 337 27 338 b 83 336 73 343 77 342 b 101 336 90 330 91 330 b 117 342 106 339 114 342 b 93 325 121 342 110 334 b 62 291 63 309 54 299 b 94 293 64 288 73 289 b 124 296 109 296 123 297 b 126 266 125 295 126 282 b 132 190 126 250 128 216 b 138 133 135 163 138 138 b 88 111 138 124 136 123 b 34 96 61 104 36 97 b 30 68 29 93 25 73 b 21 57 33 64 31 62 b 10 43 11 53 9 49 b 18 34 10 39 14 35 b 87 48 22 34 53 40 b 163 64 121 56 155 63 b 184 33 180 67 178 69 b 202 15 187 18 193 11 b 206 46 207 17 208 21 b 212 15 205 64 207 53 b 225 -51 217 -17 223 -47 b 241 -54 229 -59 237 -61 b 241 51 246 -47 246 22 b 239 81 239 67 238 80 b 266 90 240 82 252 86 b 446 160 297 100 395 139 b 601 248 490 179 557 217 b 668 288 617 260 647 278 b 789 400 754 330 802 373 b 783 417 787 404 784 412 b 774 429 782 422 778 427 b 730 478 767 431 736 465 b 710 491 728 482 719 488 b 642 525 684 500 649 518 b 615 535 637 530 629 533 b 569 542 604 536 583 539 b 511 547 555 545 529 547 b 335 523 476 547 376 533 b 312 519 321 519 310 517 b 478 643 351 552 451 628 b 496 664 496 653 498 656 b 551 726 495 672 501 679 b 672 846 583 755 637 809 b 734 922 726 903 735 914 b 708 943 733 931 727 936 b 713 947 703 945 703 946 b 726 967 729 950 736 960 b 712 972 723 970 716 972 b 697 981 708 972 701 976 b 682 990 692 986 686 990 b 663 998 678 990 669 994 b 377 1047 610 1038 507 1056 b 241 1030 325 1043 259 1035 b 237 1061 235 1028 235 1030 b 225 1103 240 1095 238 1103 z m 442 1028 b 482 1027 457 1028 471 1028 l 528 1024 l 492 1021 b 378 1010 473 1020 421 1014 b 282 1006 285 999 282 999 b 277 1011 282 1009 280 1011 b 278 1015 274 1011 275 1013 b 427 1028 289 1021 364 1027 b 442 1028 432 1028 437 1028 z m 240 1007 b 244 1001 244 1008 245 1006 b 235 992 243 997 239 993 b 229 998 229 991 228 992 b 238 1007 230 1003 233 1006 b 240 1007 239 1007 239 1007 z m 183 996 b 185 996 183 996 184 996 b 186 992 186 995 186 994 b 176 986 186 988 183 986 b 160 984 170 986 163 986 b 154 986 157 983 154 984 b 164 991 154 988 158 990 b 180 995 169 992 176 994 b 183 996 181 996 182 996 z m 423 993 b 418 990 433 993 432 992 b 386 987 408 988 394 987 b 391 990 374 987 374 988 b 423 993 402 992 416 993 z m 84 961 b 86 961 85 961 86 961 b 90 954 89 959 90 956 b 61 946 90 953 77 949 b 26 933 45 942 29 936 b 10 926 22 929 15 926 b 14 934 0 927 1 927 b 78 961 40 947 65 958 b 84 961 80 961 82 961 z m 457 961 b 486 961 466 961 476 961 b 549 958 525 961 558 960 b 390 955 533 954 423 952 l 368 956 l 388 959 b 457 961 399 961 427 961 z m 112 936 b 109 936 111 936 110 936 b 114 934 108 934 110 933 b 116 936 118 934 119 935 b 112 936 115 936 113 937 z m 556 931 l 547 921 b 508 888 542 916 525 901 b 448 841 492 875 465 854 b 383 797 432 828 402 808 b 260 717 345 775 281 733 b 244 707 253 711 246 707 b 279 916 239 707 273 912 b 337 919 281 918 307 919 b 531 928 388 919 480 924 z m 610 930 b 599 904 652 930 650 924 b 542 880 581 897 556 886 l 517 869 l 537 886 b 569 917 547 896 562 909 b 610 930 582 930 582 930 z m 689 925 b 690 925 689 925 690 925 b 704 921 692 924 699 922 l 715 919 l 706 910 b 689 896 702 905 694 899 b 676 898 681 892 679 892 b 678 909 672 904 672 905 b 685 919 682 911 685 915 b 689 925 685 923 687 925 z m 595 879 b 596 879 595 879 596 879 b 575 866 596 878 587 872 b 497 819 563 860 528 839 b 409 772 463 798 429 780 b 375 760 391 765 376 760 b 475 824 368 760 437 804 b 595 879 523 849 589 879 z m 350 727 b 351 727 351 727 351 727 b 267 673 354 724 281 678 b 273 686 246 665 246 666 b 350 727 294 701 342 726 z m 340 681 b 340 681 340 681 340 681 b 310 653 341 680 327 668 b 255 615 292 639 267 622 l 232 604 l 233 614 b 257 639 234 621 239 627 b 340 681 279 653 335 681 z m 322 629 b 301 604 325 629 317 621 b 252 557 286 588 264 567 l 232 539 l 232 550 b 275 593 232 558 239 565 b 322 628 303 615 318 627 b 322 629 322 628 322 629 z m 444 519 b 446 518 445 519 446 519 b 437 513 449 518 446 516 b 413 511 419 508 413 507 b 426 517 413 513 419 515 b 444 519 434 518 440 519 z m 623 499 b 627 499 625 499 626 499 b 634 494 632 498 636 497 b 615 491 633 492 624 491 l 599 491 l 610 496 b 623 499 614 498 619 499 z m 149 464 b 149 463 149 464 149 464 b 149 453 150 461 150 456 b 148 457 149 449 148 451 b 149 464 148 461 148 464 z m 710 434 b 710 430 715 434 715 433 b 701 430 703 426 699 426 b 710 434 703 432 706 434 z m 683 405 b 682 400 690 405 690 405 b 671 400 670 394 666 394 b 683 405 674 403 679 406 z m 629 398 b 635 397 631 398 633 398 b 629 396 638 397 636 396 b 623 397 622 396 619 397 b 629 398 624 398 626 398 z m 770 389 b 762 375 772 389 770 384 b 721 343 754 366 721 340 b 746 368 721 343 732 355 b 769 388 757 380 766 387 b 770 389 770 389 770 389 z m 688 374 b 673 356 697 374 695 372 b 610 315 659 346 631 328 b 543 278 589 303 559 286 b 526 274 517 266 515 265 b 572 310 533 279 553 296 b 688 374 608 339 671 374 z m 596 374 l 613 373 l 600 363 b 410 262 594 357 508 312 l 232 173 l 233 248 l 234 322 l 285 332 b 596 374 400 353 554 374 z m 260 352 b 259 349 268 352 268 351 b 239 346 253 347 244 346 b 241 349 231 346 231 347 b 260 352 247 350 256 352 z m 149 298 b 149 297 149 298 149 298 b 154 241 150 295 152 276 b 156 187 155 212 156 187 b 149 251 153 183 150 205 b 149 298 148 282 148 297 z m 499 282 b 499 282 500 282 500 282 b 459 255 498 280 479 268 b 279 165 417 228 333 187 b 240 151 258 157 241 151 b 414 242 236 151 313 191 b 499 282 460 264 497 282 z "},"C":{"ha":708,"x_min":0,"x_max":0,"o":"m 564 984 b 480 921 555 986 521 960 b 439 892 453 895 446 890 b 350 817 426 894 403 875 b 213 636 296 759 262 715 b 165 567 193 603 171 572 b 63 437 134 542 91 487 b 61 416 55 422 55 421 b 82 412 65 413 74 411 b 98 410 89 412 96 411 b 87 391 99 409 94 401 b 81 357 72 372 71 364 b 77 327 88 352 88 352 b 79 274 64 294 64 275 b 162 315 93 272 129 290 b 193 337 178 327 192 337 b 196 332 193 337 195 335 b 210 298 197 330 203 314 l 223 268 l 221 204 b 224 127 219 150 219 138 b 246 118 230 113 235 111 b 250 171 252 123 252 127 b 257 185 247 227 253 238 b 274 105 263 103 262 105 l 285 105 l 287 135 b 291 153 288 160 289 163 b 362 71 300 114 319 92 b 402 43 373 66 391 53 b 529 -35 440 9 489 -21 b 559 -38 551 -43 553 -43 b 550 -19 566 -31 563 -25 b 509 8 523 -8 505 4 b 513 19 512 10 513 15 b 516 24 513 23 515 25 b 536 14 517 24 526 19 b 559 10 549 8 554 7 b 543 59 569 16 567 23 b 525 91 530 78 522 93 b 538 101 531 89 538 95 b 517 131 538 103 528 117 b 444 234 505 146 472 192 b 372 334 416 276 384 321 l 350 358 l 355 385 b 365 454 358 400 363 431 b 377 537 367 476 372 513 b 388 602 382 560 387 590 b 460 742 391 632 397 644 b 580 893 512 823 512 823 b 647 968 618 932 648 966 b 640 976 646 970 643 974 b 621 967 635 979 631 977 b 579 951 605 951 590 946 b 572 969 573 954 571 957 b 564 984 572 981 571 983 z m 540 945 b 540 943 541 945 541 945 b 527 931 539 941 533 936 l 515 923 l 522 931 b 540 945 528 938 537 945 z m 344 774 l 334 758 b 258 655 319 733 262 655 b 253 647 256 655 254 652 b 245 633 252 642 248 636 b 332 760 227 619 291 711 z m 345 538 b 347 521 346 537 347 531 b 334 446 347 505 343 481 b 318 393 327 417 319 393 b 329 487 312 393 319 447 b 345 538 338 523 343 538 z m 126 499 b 127 499 126 499 126 499 b 129 496 127 499 128 498 b 135 489 130 492 133 489 b 102 446 139 489 121 466 b 85 432 95 438 87 432 b 110 479 80 432 84 440 b 126 499 119 493 123 499 z m 243 436 b 244 433 244 436 244 435 b 239 423 244 432 242 427 b 234 425 234 417 233 417 b 243 436 235 431 240 437 z m 151 420 b 151 420 151 420 151 420 b 147 412 152 419 151 415 b 145 414 141 406 141 406 b 151 420 147 418 149 421 z m 177 366 b 178 365 177 366 177 366 b 179 363 178 365 179 364 b 169 347 181 359 178 354 b 107 304 153 333 121 311 b 95 316 90 295 88 296 b 103 335 99 325 103 334 b 107 337 103 336 105 337 b 117 342 110 337 114 339 b 131 345 120 346 125 347 b 159 356 140 344 145 346 b 177 366 169 363 174 366 z m 399 222 l 409 211 b 477 118 424 194 454 153 b 498 85 490 100 499 85 b 409 204 482 88 452 128 z m 384 184 b 416 139 385 184 411 147 b 402 148 420 132 416 134 b 386 173 395 156 388 167 b 384 184 384 179 383 184 z "},"D":{"ha":798,"x_min":0,"x_max":0,"o":"m 232 1158 b 212 1108 224 1158 223 1155 b 185 997 206 1081 193 1031 l 169 935 l 156 936 b 143 933 148 936 143 935 b 137 923 143 930 140 926 b 124 857 131 918 129 906 b 117 795 120 824 117 796 b 93 791 116 795 106 793 b 66 783 81 789 69 785 b 66 763 60 778 60 768 b 70 751 69 761 71 755 b 93 735 68 741 71 738 b 109 725 107 733 109 731 b 101 644 108 722 105 685 b 74 405 93 572 85 497 b 68 279 69 361 67 314 b 75 258 69 265 70 260 b 93 329 86 254 89 264 b 112 458 105 502 115 576 b 109 244 111 412 109 316 b 103 108 109 123 109 112 b 106 86 94 101 96 90 b 115 67 114 83 115 81 b 134 42 115 48 122 39 b 146 25 142 44 143 43 b 157 7 148 8 149 7 b 166 32 166 7 166 7 b 191 67 166 61 169 65 b 206 59 200 68 203 66 b 217 -17 210 52 217 0 b 225 -32 218 -20 221 -27 b 240 -39 233 -42 233 -42 b 246 11 245 -37 246 -29 l 246 60 l 266 68 b 357 130 294 80 320 98 b 421 174 378 148 401 164 b 541 256 466 196 508 225 b 577 287 557 271 573 285 b 585 298 581 289 585 294 b 593 303 586 303 588 305 b 607 330 601 301 607 313 b 620 372 607 334 613 353 b 636 430 626 390 634 416 b 684 529 642 467 643 471 b 729 605 733 600 732 598 b 692 593 725 615 713 611 l 671 575 l 668 587 b 650 622 665 594 657 609 b 638 654 640 638 637 647 b 633 667 639 661 638 664 b 623 696 627 670 625 676 b 612 726 621 717 619 722 b 604 738 607 729 604 735 b 598 749 604 741 601 746 b 593 760 595 751 593 756 b 575 770 593 768 582 774 b 549 780 571 768 563 771 b 529 795 538 787 529 794 b 544 804 529 796 536 800 b 559 819 556 809 559 812 b 491 843 559 832 547 837 b 438 851 464 846 441 849 b 412 868 436 852 424 860 b 385 883 400 876 388 883 b 395 873 382 883 386 879 b 423 850 414 860 423 853 b 390 860 423 849 408 854 b 320 884 372 867 341 877 b 281 904 288 894 283 897 b 263 911 279 914 268 918 b 262 916 261 908 261 910 b 265 1011 263 921 265 964 b 259 1101 265 1086 265 1096 b 241 1095 252 1109 243 1106 b 240 1122 241 1091 240 1103 b 232 1158 241 1157 240 1158 z m 205 984 b 205 981 205 984 206 983 b 201 944 204 973 203 956 b 196 922 200 932 197 922 b 198 963 189 922 190 932 b 205 984 202 976 204 984 z m 241 947 b 241 946 241 947 241 947 b 241 934 242 943 242 937 b 240 940 240 930 240 933 b 241 947 240 945 240 948 z m 155 915 b 156 915 156 915 156 915 b 159 910 157 915 158 913 b 158 891 161 907 160 899 l 155 878 l 153 894 b 155 915 151 905 153 914 z m 351 851 b 366 846 352 851 357 850 b 373 840 375 843 377 841 b 357 845 370 839 363 841 b 351 851 351 848 349 850 z m 280 844 b 306 828 283 844 306 830 b 292 827 306 827 300 827 b 278 835 279 827 278 827 b 280 844 278 840 279 844 z m 487 823 b 491 822 488 823 489 823 b 511 819 495 821 504 819 b 517 816 521 819 523 818 b 490 818 505 811 495 812 b 487 823 488 821 487 822 b 487 823 487 823 487 823 z m 409 816 b 416 815 413 816 416 815 b 403 813 416 811 405 809 b 409 816 402 814 405 816 z m 465 805 b 465 802 470 805 470 805 b 455 798 463 800 458 798 b 455 802 450 798 450 799 b 465 805 458 804 463 805 z m 492 788 b 503 782 494 788 499 785 b 506 777 507 779 508 777 b 496 782 504 777 500 779 b 492 788 492 785 490 788 z m 274 724 b 294 723 278 724 284 723 b 467 679 324 720 457 687 b 476 615 474 674 475 668 b 470 488 478 567 477 543 b 462 412 466 451 462 417 b 322 292 461 402 414 361 b 265 249 293 270 267 251 b 262 648 256 242 254 552 b 267 716 265 681 267 712 b 271 723 267 721 267 723 b 274 724 271 724 272 724 z m 524 545 b 524 545 524 545 524 545 b 525 525 525 543 525 537 b 520 478 525 511 523 489 l 516 456 l 518 490 b 522 538 519 509 521 530 b 524 545 523 542 524 545 z m 134 477 b 135 475 135 477 135 476 b 135 454 136 470 136 460 b 134 463 134 447 134 452 b 134 477 134 472 134 477 z m 513 447 b 514 447 513 447 513 447 b 514 440 515 445 515 442 b 512 442 513 437 512 438 b 513 447 512 445 512 447 z m 550 306 b 552 305 550 306 551 305 b 541 288 556 304 554 300 l 525 272 l 533 286 b 548 306 541 301 544 305 b 550 306 548 306 549 306 z m 502 281 b 505 278 504 281 504 280 b 516 270 507 273 511 270 b 509 257 523 270 522 269 b 470 227 501 249 483 236 b 443 210 456 218 444 210 b 471 248 442 210 454 227 b 502 281 492 273 499 281 z m 309 245 b 306 241 309 245 308 243 b 287 223 301 235 292 227 b 299 237 274 215 277 219 b 309 245 304 242 308 244 b 309 245 309 245 309 245 z m 165 219 l 168 198 b 168 173 170 185 170 176 b 165 194 166 171 165 178 z "},"E":{"ha":728,"x_min":0,"x_max":0,"o":"m 211 115 l 211 115 b 235 165 223 107 229 120 l 239 200 l 255 202 b 389 230 278 205 367 224 b 465 248 398 233 433 241 b 550 275 524 261 550 270 b 555 278 550 277 552 278 b 573 288 557 278 566 282 b 610 305 581 293 597 301 b 670 337 657 321 670 328 b 651 353 670 345 661 353 b 639 359 648 353 643 356 b 610 368 634 364 625 367 b 564 379 567 373 560 374 b 562 397 569 384 569 390 b 528 402 558 401 549 402 b 293 357 474 402 390 386 b 289 435 287 355 287 358 b 296 518 291 481 293 516 b 296 523 298 521 298 523 b 353 538 295 523 320 530 b 486 583 426 557 474 573 b 543 608 497 592 501 594 b 587 637 577 620 590 629 b 554 647 584 644 574 647 l 538 647 l 546 654 b 544 677 557 664 556 674 b 521 682 538 678 528 680 b 342 667 491 690 419 684 b 304 660 322 662 305 659 b 309 723 303 662 306 690 b 316 799 313 756 316 790 b 319 819 316 808 318 817 b 386 838 321 822 351 830 b 489 865 420 846 467 858 b 559 880 513 872 540 878 b 592 888 585 882 591 883 b 583 895 593 893 591 895 b 588 902 574 895 574 895 b 591 925 607 910 609 921 b 580 935 582 927 580 929 b 543 943 580 942 578 942 b 515 949 510 944 507 945 b 523 962 520 952 523 956 b 502 972 523 970 522 971 b 261 938 467 974 322 954 b 252 964 253 936 253 938 b 243 993 251 990 250 992 b 227 977 236 994 233 991 b 199 928 208 931 205 926 b 179 927 185 935 181 934 b 163 916 178 922 173 918 b 112 896 131 908 114 901 b 115 879 111 893 112 885 l 121 867 l 104 860 b 65 832 77 847 66 840 b 58 822 65 827 61 823 b 49 815 54 821 50 818 b 74 797 46 806 55 799 b 96 791 83 796 93 793 b 148 794 100 788 121 789 l 158 796 l 155 779 b 144 684 154 769 149 727 b 132 602 139 641 134 604 b 119 595 130 600 124 597 b 87 582 114 594 100 588 b 65 564 70 574 65 570 b 27 541 65 558 58 554 b -15 509 -13 524 -19 520 b 66 504 -11 497 8 496 b 73 500 80 506 80 505 b 65 488 68 497 65 491 b 92 485 65 483 68 483 b 117 482 114 487 118 486 b 102 331 114 476 105 380 l 99 297 l 86 288 b 74 272 78 283 74 277 b 57 260 74 266 71 264 b 37 252 48 258 39 254 b 28 244 36 250 31 246 b 24 227 18 239 17 234 b 42 223 29 223 34 221 b 55 220 50 224 54 223 b 65 214 56 217 61 214 b 59 210 71 214 68 212 b 38 191 41 205 35 199 b 75 187 40 186 44 185 l 110 189 l 114 168 b 132 137 118 144 123 137 b 148 159 140 137 145 143 b 155 172 149 167 152 172 b 163 180 158 172 162 176 b 167 176 165 187 166 186 b 176 163 169 166 171 163 b 187 178 182 163 184 167 b 205 196 190 192 200 201 b 207 156 206 194 207 177 b 211 115 206 128 207 117 z m 213 298 b 214 291 216 295 216 292 b 208 294 212 289 209 291 b 213 298 205 302 208 304 z m 259 303 b 251 300 256 301 253 300 b 254 314 247 299 249 309 b 262 312 258 317 260 317 b 259 303 263 308 262 305 z m 338 319 b 291 310 316 314 295 310 b 290 322 283 310 282 320 b 403 340 299 325 381 338 l 421 342 l 399 335 b 338 319 388 331 360 324 z m 262 396 b 259 347 263 368 262 349 b 259 413 255 345 255 368 b 262 396 262 443 262 443 z m 516 377 l 516 377 b 484 375 512 376 498 375 l 460 375 l 477 378 b 516 377 502 382 526 381 z m 266 497 b 266 478 266 492 266 483 b 264 487 265 472 264 477 b 266 497 264 498 265 502 z m 226 502 l 226 502 b 226 492 227 500 227 495 b 225 496 226 488 225 490 b 226 502 225 502 225 505 z m 116 501 b 109 498 115 499 112 498 b 111 502 101 498 102 500 b 116 501 115 503 117 503 z m 97 529 b 63 525 90 528 75 526 l 42 523 l 58 530 b 91 535 70 536 77 537 l 109 532 z m 251 665 b 245 642 250 654 247 644 b 243 657 242 639 241 642 b 251 665 247 684 254 690 z m 279 816 b 274 781 280 815 278 799 b 266 756 270 760 267 751 b 257 769 265 761 261 767 b 250 778 252 771 250 775 b 254 798 251 781 253 790 b 267 815 256 811 258 813 b 279 816 273 816 278 817 z m 327 918 b 264 913 264 908 262 908 b 293 924 265 916 278 920 b 441 947 332 932 436 948 b 327 918 447 945 364 924 z "},"F":{"ha":827,"x_min":0,"x_max":0,"o":"m 152 95 l 152 95 b 220 175 171 74 197 105 b 232 197 225 190 229 198 b 249 262 242 193 245 205 b 258 335 251 295 255 327 b 263 360 261 343 263 354 b 291 400 263 388 265 391 b 357 429 304 405 334 418 b 470 497 395 447 413 457 b 604 551 531 538 544 544 b 620 559 617 553 621 555 b 593 565 619 564 614 565 b 567 566 579 564 567 565 b 577 575 567 568 572 572 b 595 589 582 578 591 585 b 599 606 602 597 603 600 b 589 613 597 610 593 613 b 586 625 583 613 583 615 b 600 643 588 632 594 639 b 604 663 611 649 613 656 b 559 665 600 666 589 667 b 343 605 499 662 433 644 b 288 587 304 587 288 582 b 303 700 288 593 302 699 b 339 712 303 700 319 706 b 595 835 427 741 525 788 b 677 907 639 864 677 898 b 688 919 677 910 682 916 b 723 953 706 930 723 946 b 741 969 723 958 729 963 b 773 1003 767 982 778 994 b 761 1010 771 1007 765 1010 b 578 953 735 1010 647 982 b 468 914 535 935 477 914 b 465 920 466 914 465 917 b 459 927 465 923 462 926 b 479 941 455 929 461 933 b 503 961 501 951 504 954 b 490 970 502 967 499 969 b 370 944 474 972 418 959 b 329 932 349 938 331 932 b 327 948 328 932 327 939 b 317 974 327 967 324 974 b 306 982 314 974 309 978 b 286 976 299 991 289 988 b 278 967 285 971 281 967 b 268 955 275 967 271 962 b 260 943 265 948 261 943 b 236 971 239 954 239 954 b 219 989 234 990 228 996 b 207 956 216 986 211 972 b 195 926 203 935 200 927 b 180 889 189 924 184 913 b 161 860 175 868 174 866 b 74 831 154 856 114 844 b -4 805 33 819 -2 807 b -4 795 -7 802 -7 799 b 18 790 -1 790 4 789 b 34 786 32 791 36 790 b 37 774 33 783 35 778 b 87 766 42 769 49 767 l 132 764 l 101 744 b 59 688 51 714 48 710 b 113 672 66 674 72 673 l 147 672 l 144 658 b 132 581 143 650 138 615 l 123 519 l 92 503 b 36 453 36 474 29 467 b 50 447 39 449 44 447 b 60 427 62 447 66 439 b 89 410 54 413 63 407 b 86 391 113 413 112 408 b 66 369 71 381 66 376 b 85 359 66 361 68 360 l 103 358 l 102 345 b 87 119 94 287 83 129 b 97 114 88 115 92 114 b 113 144 104 115 106 120 b 128 216 118 159 124 192 l 134 261 l 136 192 b 152 95 138 123 140 108 z m 175 123 b 166 110 171 116 166 110 b 157 191 161 110 159 134 b 163 255 156 255 156 255 b 171 232 170 255 171 253 b 178 207 171 212 172 208 b 185 198 182 206 185 202 b 192 184 185 195 188 188 l 200 177 l 192 157 b 175 123 187 146 180 131 z m 138 286 b 138 274 139 283 139 277 b 136 280 137 271 136 273 b 138 286 136 287 137 290 z m 167 311 b 166 291 167 300 167 291 b 164 326 163 291 161 321 b 167 311 166 330 167 325 z m 288 456 b 273 450 283 453 276 450 b 273 453 269 450 269 451 b 288 459 276 455 283 457 l 296 461 z m 102 479 b 82 473 91 472 82 469 b 113 488 82 476 111 490 b 102 479 114 487 109 483 z m 401 487 b 393 487 371 472 365 472 b 420 500 405 494 417 500 b 401 487 422 500 414 494 z m 350 556 b 285 529 317 542 287 530 b 280 531 282 528 280 529 b 444 602 280 538 429 603 b 350 556 454 602 407 578 z m 169 575 b 170 564 170 573 170 568 b 168 569 169 561 168 563 b 169 575 168 575 168 578 z m 555 586 b 541 581 551 584 545 581 b 541 587 534 581 534 582 b 555 592 544 590 551 592 b 555 586 562 592 562 592 z m 173 607 b 173 598 174 604 174 601 b 171 602 172 596 171 598 b 173 607 171 607 172 609 z m 120 694 l 120 694 b 116 692 124 693 122 692 b 110 693 110 692 107 692 b 120 694 112 694 117 694 z m 394 755 b 306 727 383 748 305 723 b 344 742 307 729 324 736 b 394 755 400 759 400 759 z m 412 762 b 403 758 409 760 405 758 b 404 762 401 758 402 760 b 413 765 407 764 411 765 b 412 762 415 765 414 764 z m 140 798 l 140 798 b 96 787 126 787 124 787 l 66 787 l 78 794 b 158 812 90 801 165 818 b 140 798 156 810 148 804 z m 165 796 b 147 787 163 788 161 787 b 132 788 139 787 132 787 b 166 807 132 790 164 808 b 165 796 166 807 166 802 z m 206 815 l 206 815 b 197 815 199 811 194 811 b 205 819 198 817 202 819 b 206 815 211 818 211 818 z m 216 847 b 210 840 215 844 212 841 b 207 844 207 840 206 841 b 213 850 208 846 210 849 b 216 847 216 851 217 849 z m 362 876 b 357 877 323 859 321 859 b 447 910 389 893 437 911 b 420 899 450 910 438 905 b 362 876 403 892 377 882 z m 242 913 b 238 912 240 893 238 892 b 241 928 238 921 239 928 b 242 913 243 928 244 922 z m 695 969 b 677 964 690 966 682 964 b 681 969 669 964 670 965 b 695 969 697 975 706 975 z "},"G":{"ha":601,"x_min":0,"x_max":0,"o":"m 221 181 l 221 181 b 245 147 234 151 237 147 b 256 157 252 147 255 150 b 261 166 260 172 261 175 b 274 147 262 153 265 147 b 283 164 281 147 282 149 l 284 181 l 320 182 b 358 177 348 182 356 181 b 380 180 362 170 371 171 b 404 169 392 191 402 186 b 413 155 405 159 406 156 b 424 163 419 154 422 156 b 439 168 427 171 428 172 b 454 161 446 166 453 163 b 508 158 462 156 503 154 b 506 179 515 164 514 171 b 492 271 497 186 496 194 b 517 588 488 362 496 463 b 522 635 521 611 523 632 b 504 635 520 641 506 641 b 495 632 503 632 499 631 b 490 639 490 633 488 635 b 477 657 493 646 485 657 b 456 624 471 657 456 635 b 449 613 456 622 453 617 b 442 601 445 610 442 604 b 438 614 441 598 440 604 b 419 647 436 633 427 647 b 394 494 403 647 397 606 b 387 393 393 440 390 408 b 366 369 381 371 381 371 b 294 341 352 366 302 348 b 283 352 291 339 288 342 b 261 456 271 376 265 405 b 245 561 258 511 253 543 b 243 577 242 568 241 575 b 274 622 244 579 258 600 b 420 841 363 749 421 835 b 394 832 418 853 407 849 b 352 787 386 823 368 802 l 324 758 l 334 776 b 392 853 340 786 365 821 b 438 919 420 889 439 915 b 418 922 436 927 425 928 b 413 927 412 916 412 917 b 437 971 414 934 425 953 b 454 1018 461 1005 464 1014 b 425 995 450 1019 441 1013 l 401 969 l 378 970 l 356 972 l 322 941 b 200 808 288 910 229 846 b 173 778 191 797 179 784 b 162 764 167 772 162 766 b 125 711 162 762 146 738 b 72 611 68 634 61 621 b 81 598 75 609 79 603 b 89 590 83 594 86 590 b 97 572 95 590 100 578 b 84 578 93 567 89 568 b 73 587 82 583 77 587 b 68 550 62 587 60 576 l 75 527 l 64 510 b 53 475 50 487 48 480 b 78 480 59 467 69 469 l 86 491 l 102 444 b 122 386 110 418 119 392 b 159 291 142 342 153 312 b 193 218 176 230 179 222 b 221 181 204 214 207 210 z m 319 189 b 315 187 321 188 319 187 b 310 189 310 187 308 188 b 319 189 313 190 317 190 z m 322 210 b 320 208 325 209 324 208 b 316 210 316 208 314 209 b 322 210 317 211 320 211 z m 410 232 b 405 222 410 226 408 222 b 403 240 394 222 392 238 b 410 232 409 242 410 241 z m 298 235 b 293 233 300 234 298 233 b 289 235 288 233 286 234 b 298 235 291 236 295 236 z m 222 264 b 212 283 222 248 216 259 b 206 314 209 297 207 311 b 209 312 205 317 206 316 b 222 264 215 305 222 277 z m 357 287 b 334 288 352 281 347 281 l 323 294 l 341 295 b 357 287 360 297 364 295 z m 360 313 l 360 313 b 355 311 363 312 361 311 b 349 313 349 311 347 312 b 360 313 351 314 356 314 z m 313 334 b 301 332 311 333 306 332 b 329 349 286 332 297 338 b 373 348 370 364 388 363 b 330 337 367 342 351 338 b 313 334 322 337 314 336 z m 252 627 b 213 576 234 601 216 578 b 292 691 204 568 275 672 l 308 709 l 297 691 b 252 627 290 681 270 652 z m 119 653 b 98 633 109 642 100 633 b 127 678 93 633 98 641 b 152 703 147 706 152 710 b 119 653 152 693 147 686 z m 308 780 b 291 760 299 769 292 760 b 320 801 289 760 308 787 b 308 780 334 817 326 803 z m 260 837 b 238 810 249 822 239 810 b 237 816 237 810 237 813 b 263 851 237 820 249 835 b 260 837 293 881 292 879 z "},"H":{"ha":742,"x_min":0,"x_max":0,"o":"m 458 -157 l 458 -157 b 470 -165 460 -163 464 -165 b 484 -151 476 -165 479 -162 b 515 40 492 -131 502 -70 b 530 143 521 94 528 140 b 534 172 532 145 534 159 l 534 197 l 550 197 b 569 200 559 198 568 199 b 566 240 570 201 569 219 b 564 319 561 272 561 285 b 570 385 566 342 569 372 l 572 410 l 575 394 b 580 363 577 386 579 372 b 591 342 582 352 585 346 b 599 322 598 338 599 334 b 616 295 599 306 606 295 b 642 490 630 295 637 342 b 660 839 648 663 656 817 b 673 905 662 851 668 880 b 677 956 681 946 682 951 b 648 932 668 965 661 958 b 633 908 642 919 635 908 b 623 913 631 908 627 910 b 599 892 613 921 607 916 b 590 869 595 879 591 869 b 594 993 588 869 590 910 b 599 1026 595 1005 597 1020 b 594 1046 602 1039 601 1046 b 605 1122 589 1046 594 1081 b 596 1159 613 1153 611 1161 b 585 1159 590 1158 585 1158 b 626 1343 586 1177 616 1315 b 633 1398 640 1383 641 1395 b 601 1350 620 1403 611 1389 b 592 1315 598 1338 594 1322 b 581 1300 590 1305 586 1301 b 563 1260 574 1299 572 1294 b 498 957 532 1140 518 1071 b 476 775 476 829 474 817 b 470 731 476 771 474 751 b 458 634 467 710 462 667 l 452 574 l 363 541 b 243 496 313 523 260 502 b 212 486 227 489 213 485 b 220 628 210 490 216 595 b 230 686 222 645 227 671 b 233 721 233 701 234 717 b 235 725 232 725 233 726 b 237 733 238 724 238 727 b 240 780 235 739 237 760 b 238 847 247 833 247 844 b 231 855 234 848 231 851 b 215 862 231 862 221 867 b 204 837 213 860 208 849 b 189 813 199 820 196 815 b 165 764 181 810 178 804 l 150 718 l 150 740 b 134 769 150 762 144 773 b 127 697 130 767 129 751 b 113 573 125 634 124 620 b 93 474 106 544 97 499 l 84 429 l 63 419 b 31 406 51 413 36 408 b 18 397 26 405 20 401 b 50 378 12 386 20 381 b 76 370 70 375 77 373 b 65 197 72 352 64 229 b 75 159 66 159 66 159 b 95 180 82 159 86 163 l 106 201 l 113 181 b 121 148 118 170 121 155 b 141 96 122 112 130 91 b 149 86 143 97 147 92 b 159 73 151 80 155 74 b 175 118 170 69 174 82 b 177 143 175 137 176 148 b 189 134 179 136 182 134 b 201 166 197 134 198 135 b 206 276 204 183 206 233 l 206 355 l 227 361 b 420 429 316 386 355 400 l 444 440 l 444 332 b 450 215 444 232 444 223 b 451 178 456 208 456 205 b 458 -157 440 116 445 -123 z m 488 -6 b 470 -101 476 -95 474 -109 b 473 -55 469 -98 470 -78 b 481 12 476 -33 480 -3 b 488 49 482 26 485 43 b 493 64 491 54 493 61 b 495 68 493 67 494 69 b 488 -6 496 67 493 33 z m 472 107 b 470 1 473 77 472 29 l 466 -50 l 463 2 b 468 155 460 55 463 142 b 472 107 470 159 472 139 z m 91 232 b 90 220 92 230 91 225 b 86 227 87 213 86 214 b 97 335 86 252 93 332 b 98 325 98 337 99 332 b 91 232 92 266 89 234 z m 101 368 b 96 366 99 362 96 361 b 100 371 96 368 98 370 b 101 368 102 373 103 371 z m 622 521 b 615 395 620 453 617 396 b 621 603 612 392 616 549 b 626 645 623 626 626 646 b 622 521 627 644 625 588 z m 79 400 b 77 398 82 399 81 398 b 73 400 73 398 71 399 b 79 400 74 401 77 401 z m 297 407 b 246 400 265 399 241 395 b 401 456 248 402 388 453 b 403 453 410 458 410 458 b 297 407 388 441 331 416 z m 279 443 b 210 425 204 402 209 404 l 212 442 l 243 452 b 341 476 319 476 358 486 b 279 443 338 475 310 460 z m 527 625 l 527 625 b 527 615 528 623 528 618 b 526 619 527 611 526 613 b 527 625 526 625 526 628 z m 610 745 b 601 671 610 736 606 703 b 595 644 594 622 593 617 b 608 758 597 683 606 756 b 610 745 609 759 610 753 z m 542 761 b 534 679 540 737 536 701 l 529 640 l 530 687 b 545 804 532 727 542 807 b 542 761 546 804 544 784 z "},"I":{"ha":289,"x_min":0,"x_max":0,"o":"m 84 22 l 84 22 b 102 23 87 17 98 18 b 117 161 108 30 111 54 b 124 221 123 247 124 256 b 134 98 125 179 129 130 b 143 79 136 85 139 80 b 153 81 147 79 151 80 b 160 143 154 83 157 110 b 179 268 164 211 168 239 l 186 290 l 188 242 b 198 193 190 196 190 194 b 216 244 208 191 211 199 b 218 869 229 364 230 712 b 217 965 214 925 214 947 b 217 994 219 982 220 991 b 212 1008 215 996 213 1003 b 205 1022 212 1014 208 1020 b 180 1001 196 1028 187 1021 l 174 984 l 175 1008 b 163 1039 175 1034 173 1039 b 156 1051 158 1039 156 1041 b 140 1063 156 1066 148 1071 b 116 954 135 1057 122 999 b 103 943 112 925 105 919 b 92 964 102 961 101 963 b 75 902 80 965 80 964 b 48 220 65 774 44 228 b 57 217 49 219 53 217 b 74 258 64 217 68 227 b 79 148 76 267 78 225 b 84 22 81 81 83 24 z m 187 394 b 180 306 186 336 185 318 l 174 290 l 176 307 b 181 382 177 317 179 351 b 187 394 187 470 187 471 z m 74 406 b 74 390 75 401 75 394 b 72 398 73 385 72 389 b 74 406 72 406 73 410 z m 204 737 b 199 674 206 675 206 674 b 192 723 192 674 192 676 b 195 798 192 749 194 783 b 204 737 198 836 201 815 z "},"J":{"ha":473,"x_min":0,"x_max":0,"o":"m -96 -87 b -58 -84 -93 -97 -81 -96 b 80 -7 19 -43 50 -26 b 125 13 107 10 116 14 b 145 27 135 11 137 13 b 182 59 152 38 163 47 b 218 82 197 68 213 79 b 247 102 223 86 236 95 b 267 122 261 110 267 117 b 271 129 267 125 269 129 b 274 126 273 129 274 127 b 303 131 274 115 303 120 b 305 133 303 135 304 136 b 324 134 308 127 319 128 b 327 193 327 138 328 153 b 333 270 325 259 326 276 b 342 269 336 267 340 267 b 349 361 343 271 347 312 b 384 745 353 473 362 569 b 391 958 410 952 410 958 b 366 904 383 958 380 952 b 356 887 357 872 356 871 b 349 908 356 900 354 905 b 341 909 345 910 342 910 b 337 920 341 907 339 913 b 324 935 333 932 331 935 b 310 913 316 935 315 932 b 302 885 308 902 304 889 b 295 860 300 881 297 870 b 276 720 289 818 284 785 b 251 421 255 553 253 524 b 219 269 249 301 248 297 b 166 192 200 251 179 221 b 133 92 158 176 133 99 b 88 57 133 84 114 69 b -43 -33 55 40 15 13 b -96 -87 -96 -75 -99 -77 z m 248 130 l 248 130 b 217 114 244 129 230 122 b 193 103 204 107 193 102 b 200 114 193 104 196 109 b 217 145 203 119 211 133 b 239 178 223 156 233 171 l 249 191 l 250 177 b 253 147 250 169 251 156 b 248 130 255 134 255 132 z m 196 185 b 171 132 185 161 174 137 l 164 123 l 167 132 b 202 214 172 153 190 196 b 214 231 208 224 214 232 b 196 185 214 230 206 210 z "},"K":{"ha":735,"x_min":0,"x_max":0,"o":"m 585 66 b 620 61 606 50 618 49 b 525 153 621 69 618 72 b 428 248 470 201 413 256 b 560 139 466 225 503 195 b 630 77 598 102 627 76 b 640 84 633 78 638 81 b 617 118 643 89 639 95 b 605 133 603 133 597 140 b 651 101 632 108 643 101 b 620 158 671 101 663 116 b 606 174 606 172 599 180 b 618 169 637 148 639 147 b 601 194 600 187 597 193 b 553 255 616 200 601 219 b 481 316 537 266 505 294 b 317 462 407 386 339 446 b 295 481 305 471 295 480 b 393 586 295 483 339 530 b 638 852 530 727 639 845 b 669 897 637 856 651 875 b 700 949 708 944 707 942 b 661 932 693 956 687 953 l 644 918 l 659 934 b 662 961 676 952 677 964 b 650 964 658 960 652 962 b 639 967 647 967 643 968 b 557 907 630 963 591 935 b 347 710 519 875 370 736 b 220 583 317 678 237 597 l 204 569 l 206 680 b 201 803 207 779 207 792 b 199 870 196 815 195 822 b 201 928 201 899 202 925 b 184 932 198 936 189 937 b 164 839 179 927 164 856 b 159 828 164 835 162 830 b 156 845 156 825 155 829 b 150 870 157 863 156 866 b 142 889 144 874 142 879 b 128 952 142 910 133 948 b 108 916 117 959 113 952 b 100 886 106 902 102 888 b 96 859 98 884 96 872 b 93 850 96 838 96 837 b 74 876 88 870 83 877 b 61 841 66 875 62 865 b 54 814 61 828 55 806 b 47 813 54 816 51 815 b 42 764 40 810 40 806 b 47 615 43 740 45 672 b 80 317 54 415 65 317 b 85 166 86 317 86 322 b 91 89 85 104 86 95 b 100 83 94 86 99 83 b 119 145 107 83 114 108 l 123 181 l 125 149 b 135 117 127 118 127 117 b 148 137 143 117 145 119 b 153 168 151 147 153 162 b 160 184 153 183 160 197 b 176 170 160 175 169 167 b 189 212 182 172 189 194 b 200 191 189 236 194 226 b 220 144 207 152 211 144 b 226 197 230 144 231 150 b 217 303 223 221 219 269 b 212 377 215 337 213 370 b 214 388 212 383 213 388 b 239 371 216 388 227 380 b 290 334 251 361 274 345 b 414 221 307 322 357 276 b 585 66 506 132 544 97 z m 585 191 b 567 207 585 188 582 191 l 552 223 l 568 208 b 585 191 578 199 585 191 z m 106 221 l 106 221 b 106 207 107 217 107 211 b 104 213 105 202 104 205 b 106 221 104 221 105 224 z m 109 251 b 109 242 110 248 110 244 b 108 246 108 240 108 242 b 109 251 108 251 108 253 z m 173 284 l 173 284 b 173 270 174 281 174 275 b 172 276 173 266 172 269 b 173 284 172 284 172 288 z m 177 332 b 177 316 178 328 178 321 b 175 324 176 312 175 316 b 177 332 175 333 176 337 z m 88 484 l 88 484 b 92 431 91 469 93 445 l 91 404 l 89 427 b 84 480 87 440 85 464 l 83 510 z m 229 416 b 226 413 230 414 229 413 b 220 416 223 413 220 414 b 229 416 220 421 226 421 z m 185 566 b 181 549 185 558 183 550 b 178 578 179 548 178 558 b 182 595 179 604 179 607 b 185 566 183 587 185 574 z m 93 675 l 93 675 b 99 572 97 631 100 584 l 98 549 l 96 565 b 76 740 80 666 75 704 b 78 788 76 762 77 783 b 93 675 81 799 82 796 z m 344 641 b 338 636 342 638 339 636 b 341 641 337 636 338 638 b 347 647 343 644 346 647 b 344 641 348 647 347 644 z m 557 803 b 506 756 546 794 523 773 l 474 726 l 500 756 b 601 852 525 783 597 852 b 557 803 605 852 576 820 z "},"L":{"ha":743,"x_min":0,"x_max":0,"o":"m 152 -257 b 168 -253 157 -264 165 -262 b 175 -189 170 -249 173 -220 b 193 -13 182 -92 190 -22 b 188 -117 198 -3 195 -57 b 189 -161 185 -150 185 -157 b 205 -150 195 -167 202 -162 b 213 -143 207 -144 209 -142 b 231 -93 220 -146 225 -133 b 243 -48 235 -66 239 -53 b 250 -30 247 -44 250 -37 b 252 -16 250 -23 251 -17 b 281 -19 253 -15 266 -17 b 374 -23 301 -23 327 -24 b 528 3 447 -21 472 -17 b 587 21 548 10 574 18 b 643 37 599 24 625 31 b 678 90 696 54 708 73 b 663 104 671 95 664 101 b 646 111 662 109 658 111 b 620 120 633 111 627 113 b 601 130 614 125 606 129 b 531 149 580 135 530 148 b 606 177 532 149 565 162 b 682 213 668 201 681 207 b 612 224 683 226 670 228 b 338 185 534 219 450 207 b 301 179 318 181 302 179 b 307 251 301 179 304 212 b 319 433 310 290 316 372 l 325 545 l 344 619 b 379 741 354 660 370 715 b 394 790 388 768 394 789 b 349 674 391 792 363 718 b 331 617 341 648 333 622 b 330 672 330 612 329 634 b 327 915 336 889 335 904 b 305 920 319 927 313 928 b 301 922 300 914 299 915 b 304 966 302 927 304 947 l 305 1002 l 296 1002 b 282 961 286 1002 283 993 b 276 941 282 945 281 941 b 272 986 271 941 271 946 b 270 1038 274 1021 273 1032 b 249 1024 263 1047 253 1040 b 240 922 248 1017 244 971 b 212 675 233 835 215 673 b 219 782 212 676 215 724 b 219 928 229 926 229 927 b 204 889 209 930 204 918 b 188 780 204 859 194 787 b 174 686 181 772 180 765 b 156 472 171 645 163 549 b 130 140 147 370 130 158 b 114 136 130 140 123 138 b 94 126 105 134 96 129 b 71 113 91 122 81 116 b 41 86 49 104 41 98 b 101 32 41 74 69 48 l 125 19 l 120 -11 b 128 -70 113 -58 114 -70 b 142 -19 133 -70 140 -43 b 148 7 144 -4 146 8 b 155 -77 151 6 154 -30 b 151 -123 155 -88 153 -108 b 151 -153 148 -141 148 -150 b 153 -206 154 -157 154 -173 b 152 -257 151 -232 151 -255 z m 210 -117 b 210 -124 211 -118 211 -121 b 208 -122 209 -127 208 -126 b 210 -117 208 -118 209 -116 z m 222 -34 b 216 -84 222 -47 219 -69 b 217 -41 211 -113 211 -115 b 222 -10 218 -24 220 -10 b 222 -34 223 -10 223 -20 z m 573 49 b 571 47 576 48 575 47 b 566 49 567 47 565 48 b 573 49 567 50 571 50 z m 411 56 l 411 56 b 360 51 401 53 380 51 l 326 52 l 355 54 b 406 59 370 55 393 58 l 429 61 z m 112 63 b 109 61 117 57 116 56 b 105 66 106 63 104 65 b 112 63 106 67 109 66 z m 613 71 l 613 71 b 599 61 607 66 601 61 b 577 72 597 62 587 66 l 558 82 l 577 89 b 609 89 595 96 596 96 l 623 82 z m 94 91 b 70 80 94 84 75 75 b 77 93 64 86 65 88 b 94 91 92 98 94 98 z m 312 86 b 291 86 296 82 288 82 b 308 89 292 88 300 89 b 312 86 322 89 322 88 z m 552 180 b 448 160 492 158 483 156 b 389 163 436 162 409 163 b 353 165 368 164 352 165 b 606 202 358 171 602 206 b 552 180 607 201 583 191 z m 270 186 b 270 177 271 184 271 180 b 268 182 269 175 268 177 b 270 186 268 186 269 188 z "},"M":{"ha":833,"x_min":0,"x_max":0,"o":"m 179 3 l 179 3 b 188 0 180 1 184 -1 b 198 13 193 0 196 4 b 212 259 201 26 206 116 b 229 520 222 508 223 520 b 245 474 231 520 238 499 b 376 198 283 349 337 234 b 401 154 395 180 398 176 b 409 132 403 144 406 134 b 433 199 423 118 426 127 b 453 279 439 265 447 296 b 483 302 458 265 468 272 b 541 383 493 323 509 346 b 586 433 565 411 586 434 b 584 385 587 432 586 411 b 581 333 581 360 580 336 b 592 328 583 331 587 328 b 617 358 602 328 613 342 b 621 366 619 363 621 367 b 616 323 622 365 620 346 b 610 280 612 300 609 281 b 621 320 611 279 616 297 b 633 365 627 343 632 363 b 629 312 634 366 632 342 b 628 222 621 243 621 229 b 628 174 632 218 632 211 b 625 122 625 151 624 127 b 623 64 626 117 625 91 b 625 11 619 20 620 14 b 656 82 639 0 643 11 l 665 128 l 664 95 b 670 61 663 64 664 61 b 695 126 683 61 689 76 b 706 187 698 153 703 180 b 723 297 709 194 717 243 b 781 672 744 464 775 662 b 853 747 784 677 816 711 b 920 817 890 784 920 815 b 915 824 920 818 918 822 b 851 778 907 830 898 824 l 812 739 l 800 744 b 791 762 789 748 789 749 b 833 835 794 782 801 794 b 867 894 873 885 874 887 b 846 891 861 899 860 899 b 794 848 837 887 814 868 b 752 819 759 815 757 813 b 738 822 748 825 746 825 b 727 803 731 818 728 814 b 716 793 724 789 721 785 b 709 794 715 795 712 796 b 733 837 702 792 713 810 b 735 867 747 856 748 867 b 641 752 722 867 679 815 b 619 718 629 732 619 717 b 631 749 619 719 625 733 b 638 794 645 782 647 791 b 608 762 630 797 621 788 b 587 742 597 742 595 740 b 560 717 578 743 576 741 b 491 589 535 681 511 636 b 455 526 479 558 470 543 b 415 478 445 514 427 492 l 394 452 l 388 471 b 348 603 385 481 367 541 b 301 749 329 665 308 731 l 289 782 l 297 805 b 300 833 303 823 304 829 b 281 828 293 841 286 839 b 274 818 279 822 276 818 b 256 855 272 819 264 835 b 236 900 248 874 239 895 b 226 921 232 906 228 915 b 206 925 222 932 209 934 b 197 920 205 922 201 920 b 187 880 187 920 184 907 b 181 847 190 857 190 856 l 172 838 l 175 866 b 171 896 177 891 176 894 b 155 884 163 899 155 893 b 145 880 155 879 153 878 b 131 873 137 881 134 880 b 125 891 128 866 127 869 b 115 921 122 910 120 918 b 52 529 86 939 61 782 b 51 152 49 419 48 169 b 69 142 53 139 62 135 b 87 247 74 147 82 191 l 90 281 l 91 253 b 83 173 91 237 87 202 b 77 91 71 107 71 95 b 95 100 85 86 89 88 b 120 126 103 116 113 126 b 128 129 124 126 127 128 b 135 181 129 131 132 154 b 148 210 147 287 147 286 b 164 88 149 95 150 85 b 181 153 172 90 173 96 l 186 188 l 185 125 b 180 34 183 90 181 49 b 179 3 179 20 178 6 z m 93 678 b 77 420 88 592 81 476 l 70 320 l 72 445 b 86 739 74 576 77 657 b 101 840 92 799 99 845 b 93 678 102 837 98 765 z m 318 343 b 323 325 322 333 324 325 b 298 391 319 325 295 388 b 305 377 299 392 302 386 b 318 343 308 369 313 354 z m 401 344 b 399 339 402 341 401 339 b 396 344 397 339 396 341 b 397 350 396 347 397 350 b 401 344 398 350 400 347 z m 686 539 l 686 539 b 683 497 686 527 684 508 l 680 475 l 680 502 b 683 544 680 517 681 536 l 685 560 z m 536 626 b 520 603 530 611 520 596 b 533 629 520 605 526 617 b 536 626 546 653 546 653 z m 244 789 b 253 753 249 770 254 754 b 235 807 252 747 237 791 b 244 789 234 818 236 813 z m 718 770 b 713 767 718 763 716 762 b 715 773 712 769 713 772 b 718 770 717 774 718 773 z "},"N":{"ha":848,"x_min":0,"x_max":0,"o":"m 175 -36 b 186 -38 176 -37 181 -38 b 206 28 196 -38 199 -26 b 218 72 210 56 213 67 b 229 151 224 77 225 88 b 244 326 232 192 238 271 b 258 468 250 382 256 446 b 288 627 266 564 280 636 b 338 539 290 625 313 585 b 407 419 364 493 394 439 b 442 343 421 396 434 368 b 526 149 477 242 507 171 b 551 115 532 142 543 127 b 582 93 567 92 575 87 b 575 136 589 99 589 101 b 568 167 566 160 564 167 b 552 222 578 167 573 184 b 523 282 529 263 518 286 b 567 201 525 281 545 245 b 644 72 621 97 636 72 b 653 77 648 72 652 74 b 661 82 654 80 658 82 b 739 0 668 82 739 8 b 756 -6 740 -9 749 -12 b 759 49 761 -2 761 5 l 757 99 l 765 101 b 775 116 771 102 773 105 b 780 337 777 124 779 223 b 794 693 782 549 785 606 b 803 813 797 721 801 775 b 803 887 807 872 807 884 b 794 888 800 888 796 889 b 796 953 788 886 788 880 b 798 1037 805 1028 805 1035 b 768 939 786 1042 782 1029 b 749 846 751 834 746 808 b 770 1003 752 887 760 949 b 774 1059 779 1049 779 1054 b 740 955 761 1072 756 1057 b 728 927 736 935 734 930 b 717 913 724 925 719 919 b 707 903 714 906 711 902 b 690 853 697 905 693 895 b 681 806 687 827 684 809 b 674 771 679 804 676 788 b 650 621 670 726 652 614 b 646 638 649 624 647 632 b 644 606 646 645 645 631 b 642 552 644 582 643 557 b 625 413 635 508 626 437 b 590 408 620 354 622 354 b 530 520 575 435 548 485 b 484 586 498 584 492 594 b 486 571 481 584 482 580 b 481 573 494 557 490 557 b 467 585 477 580 471 585 b 433 652 463 585 454 604 b 343 835 393 746 356 822 b 325 845 335 843 330 846 b 321 803 314 842 313 836 b 327 771 326 786 328 771 b 315 793 327 770 321 780 b 306 837 304 814 303 818 b 304 863 307 852 307 860 b 284 862 298 871 287 870 b 276 875 280 848 276 855 b 270 902 276 890 274 898 b 254 894 263 909 254 905 b 249 888 254 888 253 886 b 240 890 246 889 242 890 b 236 898 238 890 237 893 b 214 898 234 910 220 910 b 194 822 209 887 194 832 b 190 814 194 819 192 815 b 188 854 188 812 187 825 b 174 903 188 899 186 906 b 141 769 159 901 148 856 b 135 713 139 743 136 718 b 127 711 133 705 133 705 b 116 787 122 717 120 730 b 87 932 109 902 103 934 b 70 853 73 930 70 917 b 88 558 70 781 74 721 b 98 410 94 492 98 425 b 72 215 98 379 80 243 b 75 178 64 187 65 178 b 83 170 83 178 84 177 b 72 95 82 166 77 132 b 59 8 67 58 61 19 b 69 -20 56 -12 59 -20 b 83 9 75 -20 80 -11 b 96 61 84 18 90 42 b 110 86 107 95 108 97 b 113 38 112 80 113 58 b 116 -6 113 19 114 -1 b 133 -10 119 -18 130 -20 b 143 -6 135 -2 139 -1 b 162 -2 147 -12 158 -10 b 169 31 165 2 168 17 b 172 11 172 54 172 52 b 175 -36 173 -13 174 -34 z m 709 74 b 706 72 711 67 709 66 b 705 77 704 74 704 76 b 709 74 706 78 708 77 z m 193 95 b 193 89 194 94 194 91 b 191 91 192 86 191 87 b 193 95 191 95 191 97 z m 156 162 b 148 150 154 88 149 79 b 152 211 148 194 149 209 b 156 162 156 212 157 201 z m 682 108 b 685 98 685 103 686 98 b 672 114 683 96 672 109 b 682 108 672 121 678 118 z m 523 215 b 529 193 527 204 530 194 b 494 270 528 192 497 259 b 523 215 490 284 514 238 z m 731 216 l 731 216 b 731 198 732 211 732 203 b 730 208 731 194 730 198 b 731 216 730 218 731 221 z m 728 290 b 728 264 729 283 729 271 b 727 277 727 256 727 262 b 728 290 727 292 727 298 z m 228 627 b 228 620 229 626 229 623 b 226 622 227 617 226 618 b 228 627 226 626 227 628 z m 232 652 b 232 645 233 650 233 647 b 230 647 231 642 230 643 b 232 652 230 651 230 653 z m 100 732 l 100 732 b 101 653 105 658 105 640 b 92 807 98 661 91 778 b 100 732 93 842 94 833 z m 303 662 b 306 653 305 657 307 653 b 293 674 303 653 293 668 b 303 662 293 680 298 675 z "},"O":{"ha":750,"x_min":0,"x_max":0,"o":"m 434 -121 b 510 -107 471 -131 490 -127 b 561 42 538 -79 555 -30 b 606 180 565 87 564 85 b 676 422 639 255 659 325 b 683 951 708 609 712 840 b 557 1073 663 1032 613 1080 b 468 1040 532 1069 493 1055 b 416 1033 443 1026 442 1026 b 335 1017 391 1040 372 1037 b 242 937 298 998 276 979 b 196 895 217 905 212 900 b 102 676 144 878 112 802 b 86 597 101 655 95 627 b 44 314 57 498 44 408 b 95 108 44 211 60 147 b 111 81 102 101 109 88 b 191 -22 124 39 157 -2 b 272 -51 213 -34 251 -47 b 305 -65 284 -52 295 -57 b 341 -83 314 -72 330 -79 b 388 -102 352 -86 373 -94 b 434 -121 403 -110 423 -118 z m 492 -94 b 438 -100 478 -107 468 -108 b 396 -83 423 -96 401 -87 b 418 -58 395 -82 405 -71 b 456 -35 439 -37 443 -35 b 479 -30 463 -35 474 -32 b 531 24 491 -23 518 5 l 540 38 l 538 22 b 492 -94 530 -33 513 -76 z m 391 -56 b 360 -60 377 -66 369 -67 b 358 -49 351 -52 350 -49 b 388 -38 361 -49 375 -44 b 415 -29 402 -31 414 -27 b 391 -56 417 -31 404 -46 z m 239 -15 b 211 -8 246 -23 238 -21 b 146 53 186 5 159 30 b 167 43 136 71 144 67 b 211 6 178 31 198 14 b 239 -15 224 -3 236 -12 z m 472 -8 b 460 -3 457 -16 454 -15 b 479 11 463 3 470 8 b 497 17 486 14 494 16 b 472 -8 506 21 483 -3 z m 325 -4 b 311 -6 324 -5 317 -6 b 292 5 301 -6 298 -4 b 288 24 285 17 283 28 b 325 -4 308 12 327 -2 z m 248 19 b 235 21 254 5 250 5 b 229 32 227 29 225 33 b 240 29 233 30 238 29 b 248 19 242 29 246 24 z m 339 22 l 339 22 b 329 22 349 13 343 13 b 324 29 322 27 321 29 b 339 22 328 29 334 26 z m 222 64 b 226 54 226 58 227 54 b 211 59 220 55 211 58 b 205 74 211 60 208 66 l 199 88 l 207 81 b 222 64 211 77 218 69 z m 276 104 l 276 104 b 271 98 291 88 289 85 b 246 132 254 110 246 121 l 246 141 l 254 130 b 276 104 258 124 268 113 z m 361 96 b 349 99 366 91 359 93 l 340 104 l 349 102 b 361 96 354 100 359 98 z m 527 107 b 505 95 512 94 505 90 b 540 140 505 106 535 144 b 527 107 548 135 543 121 z m 139 141 b 145 111 143 125 146 112 b 121 171 143 110 128 147 b 117 241 115 191 115 200 b 122 285 118 267 120 287 b 128 226 123 284 126 257 b 139 141 131 195 136 156 z m 394 138 b 379 116 387 126 380 116 b 314 140 373 114 342 126 l 289 153 l 279 184 b 269 220 274 201 270 217 b 280 213 268 223 273 220 b 390 171 304 193 360 171 b 394 138 407 171 408 164 z m 428 153 b 416 133 418 133 416 129 b 434 169 416 137 431 167 b 428 153 436 171 433 163 z m 92 205 l 92 205 b 96 144 95 172 97 145 b 73 206 94 141 80 178 b 73 438 65 238 65 396 l 79 467 l 79 442 b 85 389 79 428 82 404 b 88 313 88 368 89 347 b 92 205 86 279 87 247 z m 160 159 b 160 153 161 158 161 155 b 158 155 159 150 158 151 b 160 159 158 158 158 160 z m 423 220 b 411 189 418 202 414 189 b 272 256 340 196 300 216 b 260 409 247 293 245 317 b 324 639 274 491 295 565 b 395 773 346 695 387 773 b 423 716 402 773 419 738 b 448 431 435 640 448 491 b 423 220 448 373 437 280 z m 446 198 b 437 193 444 193 437 189 b 442 212 437 194 440 202 b 448 216 447 229 447 229 b 446 198 448 209 447 201 z m 579 261 b 575 252 579 259 577 255 b 572 251 573 249 572 249 b 575 259 572 253 573 257 b 579 261 577 262 579 263 z m 485 366 l 485 366 b 476 297 482 336 478 305 b 473 511 473 277 470 410 l 474 591 l 485 547 b 485 366 496 499 496 480 z m 521 354 l 521 354 b 521 333 522 349 522 339 b 520 343 520 327 520 331 b 521 354 520 354 520 360 z m 644 403 b 629 333 636 352 629 323 b 637 388 629 336 632 360 b 654 605 650 461 654 517 b 637 824 654 685 647 775 b 617 889 634 839 625 868 b 605 928 610 909 604 927 b 638 880 608 931 629 901 b 644 403 674 800 676 596 z m 117 406 l 117 406 b 117 395 118 403 118 398 b 116 399 116 392 116 393 b 117 406 116 405 116 408 z m 265 531 b 249 465 262 519 255 489 l 239 421 l 239 442 b 242 559 237 483 239 538 b 337 783 255 639 292 728 l 360 812 l 370 803 l 380 794 l 360 761 b 265 531 326 706 285 605 z m 82 483 b 82 475 83 481 83 477 b 80 479 81 472 80 474 b 82 483 80 484 81 486 z m 489 636 l 489 636 b 490 617 490 626 490 617 b 462 722 486 617 465 697 b 439 819 457 754 446 800 b 439 832 434 830 434 837 b 489 636 449 822 481 696 z m 584 749 b 589 708 588 740 589 729 l 588 679 l 585 714 b 581 754 584 732 582 751 b 584 749 580 758 581 755 z m 187 843 b 134 741 182 826 132 729 b 169 825 140 770 153 801 b 187 843 186 852 192 857 z m 617 779 b 617 767 618 776 618 770 b 615 773 616 763 615 766 b 617 779 615 780 616 783 z m 230 821 l 230 821 b 199 785 215 803 201 787 b 211 816 195 781 201 797 b 255 876 223 840 249 876 b 265 874 257 876 262 875 b 265 862 270 872 270 871 b 230 821 261 857 246 838 z m 613 806 b 613 797 614 803 614 799 b 611 801 612 794 611 796 b 613 806 611 806 612 808 z m 680 816 b 680 808 681 814 681 810 b 679 812 679 805 679 807 b 680 816 679 817 679 819 z m 400 833 l 400 833 b 397 819 402 829 401 824 l 392 812 l 386 819 b 388 833 379 827 379 827 b 400 833 396 840 397 840 z m 499 838 l 499 838 b 500 817 501 828 501 818 b 493 836 500 817 496 825 b 484 861 489 847 486 858 b 490 862 483 865 484 865 b 499 838 495 859 498 853 z m 673 893 b 677 841 676 872 678 849 b 670 851 676 827 676 827 b 599 955 658 900 628 944 b 574 975 590 959 581 966 b 509 1024 561 993 531 1016 l 493 1031 l 513 1038 b 606 1040 559 1055 579 1056 b 673 893 637 1022 661 969 z m 371 858 b 363 850 372 857 369 853 l 354 843 l 362 851 b 371 858 366 856 370 859 z m 461 857 l 461 857 b 461 850 462 856 462 853 b 457 850 460 847 459 847 b 461 857 454 855 457 861 z m 288 897 b 276 893 283 889 279 888 b 283 900 275 895 278 898 b 288 897 291 904 292 903 z m 582 899 b 574 903 589 891 586 892 b 570 908 567 908 566 910 b 582 899 574 906 580 902 z m 310 934 b 290 929 303 932 294 929 b 290 934 283 929 283 929 b 309 939 294 937 303 939 l 322 939 z m 445 960 b 412 956 430 955 412 954 b 424 966 412 958 418 963 b 444 967 435 972 437 972 b 445 960 451 962 451 961 z m 356 973 b 321 960 338 957 330 954 b 394 1008 313 965 365 1000 b 388 999 405 1012 404 1009 b 356 973 380 993 366 982 z m 547 973 b 556 957 560 960 561 957 b 526 975 546 958 535 964 b 474 1003 518 986 486 1003 b 463 1007 470 1003 465 1005 b 515 998 459 1015 496 1008 b 547 973 524 993 539 981 z "},"P":{"ha":625,"x_min":0,"x_max":0,"o":"m 228 -234 l 228 -234 b 253 -114 249 -242 252 -224 b 251 40 253 -63 252 6 b 250 99 249 74 249 101 b 255 80 251 97 253 88 b 267 66 259 67 261 65 b 275 86 274 67 275 69 b 260 224 274 97 268 159 b 244 359 252 290 245 350 l 243 375 l 266 376 b 449 409 344 379 411 391 b 572 592 507 437 558 512 b 586 779 578 625 586 735 b 573 841 586 807 585 814 b 526 921 551 891 545 902 b 464 963 507 941 488 953 b 443 982 443 971 439 975 b 370 993 450 995 444 996 b 278 984 329 991 291 987 b 248 1016 246 976 248 974 b 242 1056 248 1047 247 1053 b 239 1075 238 1059 237 1063 b 222 1100 241 1094 238 1098 b 210 1111 213 1101 211 1103 b 194 1121 209 1122 201 1127 b 187 1093 191 1119 188 1106 b 181 1056 186 1080 183 1063 b 170 1048 177 1042 177 1042 b 165 1123 163 1055 163 1057 b 161 1193 167 1185 167 1191 b 139 1140 150 1197 145 1186 b 128 1091 135 1116 131 1093 b 124 1042 126 1089 124 1071 b 121 990 124 1017 123 994 b 113 938 119 987 115 963 b 98 887 108 893 108 892 b 87 884 93 885 88 883 b 82 946 86 885 84 913 b 78 982 81 980 79 996 b 75 919 78 970 76 941 l 73 878 l 58 873 b 40 861 48 870 41 865 b 21 849 38 856 32 852 b 5 837 9 847 5 844 b 34 821 3 827 8 824 b 65 817 46 820 60 818 l 75 815 l 75 726 b 79 547 75 677 77 596 l 83 457 l 75 452 b 77 430 65 445 66 434 b 60 418 92 424 86 420 b 34 409 35 417 34 417 b 59 395 34 401 36 399 b 86 388 72 393 85 390 b 96 327 88 386 92 359 b 133 131 105 260 121 173 b 156 10 139 109 156 22 b 164 2 156 9 160 5 b 182 -65 170 -4 173 -17 b 228 -234 199 -167 216 -229 z m 231 -84 b 229 -186 231 -140 230 -186 b 221 -153 229 -186 225 -172 b 192 98 196 -45 180 93 b 204 71 197 99 199 93 b 225 19 212 35 218 19 b 231 -84 230 19 231 7 z m 247 115 b 247 107 248 113 248 109 b 245 111 246 104 245 106 b 247 115 245 116 246 118 z m 371 407 b 303 400 341 402 297 397 b 339 408 305 401 321 404 b 459 456 385 418 446 443 b 478 463 468 466 471 467 l 486 459 l 478 452 b 371 407 453 430 419 416 z m 253 443 b 250 441 255 442 255 441 b 246 443 247 441 245 441 b 253 443 247 444 250 444 z m 507 486 l 507 486 b 494 469 500 477 495 469 b 493 490 493 469 493 478 b 500 508 493 511 493 511 b 512 508 505 505 509 505 b 507 486 521 515 518 505 z m 310 526 b 260 503 293 519 270 508 l 241 493 l 242 501 b 280 522 243 508 249 511 b 310 526 333 541 348 543 z m 100 671 b 97 526 99 592 98 527 b 96 542 97 525 96 532 b 93 623 96 551 94 588 b 87 752 91 658 88 716 l 85 817 l 93 815 l 101 814 z m 289 558 b 242 537 266 547 245 538 b 238 652 239 536 238 560 b 241 788 238 716 239 777 l 243 807 l 277 817 b 343 834 295 822 325 830 b 383 812 382 843 383 842 b 399 684 383 786 393 709 b 403 633 402 671 404 652 l 402 603 l 367 590 b 289 558 347 582 312 568 z m 407 577 l 407 577 b 394 574 407 576 400 575 l 381 572 l 393 577 b 407 577 403 582 412 582 z m 457 591 b 450 582 457 585 455 582 b 443 589 446 582 443 585 b 450 597 443 593 446 596 b 457 591 456 599 457 597 z m 456 655 b 451 618 456 629 454 619 b 448 639 447 617 446 621 b 456 655 454 686 457 692 z m 441 815 l 449 779 l 442 733 l 434 687 l 430 717 b 423 797 427 734 424 770 b 426 849 421 840 422 847 b 441 815 431 851 434 844 z m 500 820 b 503 790 502 816 503 802 l 502 768 l 497 796 b 500 820 492 824 493 833 z m 105 837 b 89 837 102 833 96 833 b 93 844 85 840 85 841 b 105 837 102 847 109 844 z m 309 848 b 277 851 262 838 257 839 b 332 863 291 860 296 861 b 357 860 366 864 369 864 b 309 848 350 857 328 852 z m 518 858 b 520 851 520 854 521 851 b 494 868 516 851 495 865 b 518 858 491 875 513 866 z m 252 858 b 243 858 245 854 240 854 b 251 862 244 860 248 862 b 252 858 256 862 256 861 z m 532 886 b 503 908 532 878 520 886 b 495 926 485 931 483 935 b 532 886 507 918 532 891 z m 257 912 b 250 908 256 910 253 908 b 245 912 247 908 245 910 b 252 915 245 913 248 915 b 257 912 256 915 258 913 z m 479 914 b 452 917 479 910 467 912 l 437 922 l 446 932 l 455 942 l 467 929 b 479 914 473 922 479 915 z m 300 925 b 279 922 301 924 292 922 b 266 931 254 922 248 927 b 300 925 278 934 297 931 z m 342 934 b 321 930 332 931 323 929 b 295 940 316 930 292 939 b 316 943 296 940 305 941 b 347 943 330 946 338 946 l 360 939 z m 276 956 b 245 960 258 948 245 950 b 274 967 245 969 257 972 l 289 962 z m 332 975 b 282 971 309 968 294 967 b 287 977 276 974 277 975 b 326 981 294 978 312 980 l 353 982 z "},"Q":{"ha":669,"x_min":0,"x_max":0,"o":"m 515 -178 l 515 -178 b 527 -180 519 -182 522 -183 b 524 -150 536 -175 536 -172 b 517 -128 516 -137 514 -131 b 483 -37 522 -123 516 -107 b 450 71 438 59 441 50 b 459 89 454 81 458 89 b 501 24 461 89 479 60 b 501 41 566 -81 566 -74 l 465 104 l 472 126 b 487 188 475 138 482 166 b 516 273 493 218 501 241 b 598 553 552 349 578 437 b 621 815 616 664 620 709 b 598 988 621 923 618 946 b 512 1049 575 1036 555 1050 b 475 1051 498 1049 481 1049 b 448 1046 467 1052 459 1051 b 353 1022 433 1039 385 1027 b 250 963 323 1018 291 999 b 195 907 230 944 205 919 b 61 597 130 825 81 711 b 47 353 54 556 47 434 b 102 190 47 263 55 239 b 161 112 130 160 142 144 b 191 71 169 98 183 80 b 246 39 205 57 236 39 b 265 30 248 39 257 35 b 287 22 274 26 283 22 b 318 8 290 22 304 16 b 365 -5 339 -3 347 -5 b 392 -3 377 -5 389 -4 b 407 -32 396 -2 400 -10 b 452 -141 421 -73 445 -131 b 465 -147 457 -147 461 -149 b 446 -74 474 -144 470 -131 b 414 14 428 -34 413 7 b 436 -30 414 15 424 -4 b 515 -178 463 -86 508 -169 z m 380 17 b 367 15 377 15 371 15 b 369 25 360 15 360 15 b 382 34 375 31 381 35 b 380 17 387 31 386 19 z m 360 46 b 344 33 355 40 348 33 b 339 33 340 32 338 32 b 355 46 340 33 347 40 l 369 59 z m 438 98 b 427 89 431 80 429 79 b 443 118 425 97 440 124 b 438 98 444 116 442 107 z m 327 114 b 306 102 318 104 308 98 b 324 123 306 104 314 113 b 339 131 338 135 342 138 b 327 114 337 127 331 119 z m 192 125 b 182 131 196 118 192 120 b 175 142 176 137 173 142 b 192 125 179 142 187 134 z m 315 146 b 293 136 309 142 299 137 b 300 145 282 134 282 135 b 315 146 321 158 332 158 z m 277 158 b 264 153 271 155 264 153 b 260 166 263 153 261 159 b 255 188 258 173 256 183 b 271 182 253 195 254 195 b 290 166 281 175 290 168 b 277 158 290 164 284 161 z m 173 170 b 170 167 173 168 172 167 b 155 183 164 167 159 173 l 151 193 l 162 183 b 173 170 168 177 173 171 z m 342 212 b 336 206 341 209 338 206 b 324 240 334 206 329 221 b 319 238 315 279 312 278 l 324 211 l 316 222 b 275 479 285 261 268 368 b 310 687 282 572 301 687 b 354 635 318 687 341 660 b 386 495 378 589 385 560 b 380 305 388 435 384 326 b 370 319 377 293 377 294 b 348 383 357 371 353 383 b 341 406 345 383 343 390 b 323 432 338 431 332 440 b 336 272 313 424 318 361 b 342 212 343 234 345 217 z m 311 285 b 313 283 311 281 312 280 b 313 290 314 286 314 289 b 311 285 312 291 311 289 z m 152 254 b 160 216 157 234 161 216 b 150 228 159 216 155 222 b 129 333 141 240 133 279 l 126 360 l 135 326 b 152 254 140 308 148 275 z m 85 261 b 77 264 90 240 86 242 b 68 351 70 283 62 356 b 75 312 69 350 72 332 b 85 261 78 291 82 269 z m 252 264 b 249 263 254 258 252 257 b 248 268 247 265 247 267 b 252 264 249 269 251 267 z m 259 326 l 259 326 b 263 292 262 308 264 292 b 254 319 263 291 259 303 b 250 396 247 346 247 352 l 253 445 l 254 402 b 259 326 254 379 256 345 z m 530 366 l 530 366 b 518 333 524 348 519 333 b 518 339 517 333 517 336 b 546 473 524 362 530 388 b 560 508 566 572 570 582 b 530 366 553 455 543 408 z m 125 378 b 126 372 126 377 127 374 b 123 374 124 369 124 370 b 125 378 123 377 124 380 z m 160 539 b 157 420 161 492 160 453 l 153 370 l 149 402 b 152 581 145 448 146 550 l 157 608 z m 410 428 l 410 428 b 410 398 411 423 412 410 b 407 408 407 378 407 378 b 410 428 407 428 408 435 z m 196 499 l 196 499 b 196 492 197 498 197 495 b 194 494 195 489 194 490 b 196 499 194 498 195 500 z m 420 663 b 418 519 420 592 420 527 l 415 505 l 411 532 b 403 606 408 546 405 580 b 339 791 395 710 370 780 b 362 864 336 792 357 858 b 378 859 363 864 370 862 b 411 812 394 853 399 846 b 420 663 418 793 418 782 z m 200 520 b 200 513 201 519 201 516 b 198 515 199 510 198 511 b 200 520 198 519 198 521 z m 440 524 b 441 517 442 522 442 519 b 439 519 440 514 439 515 b 440 524 438 523 439 525 z m 203 540 b 203 531 204 537 204 533 b 202 535 202 528 202 530 b 203 540 202 540 202 542 z m 220 612 b 205 551 218 590 205 539 b 213 595 205 555 209 575 b 220 612 220 625 222 628 z m 445 632 b 445 580 445 618 445 594 b 443 606 444 566 443 578 b 445 632 443 634 444 646 z m 108 663 b 81 587 94 609 81 573 b 110 703 81 597 100 673 b 146 789 120 732 145 791 b 135 753 147 789 142 772 b 108 663 128 734 116 693 z m 196 698 b 188 647 196 697 193 674 l 180 597 l 182 640 b 189 690 183 669 186 685 b 196 698 192 695 195 698 z m 224 644 l 224 644 b 225 637 226 643 226 640 b 223 639 224 634 223 635 b 224 644 222 643 223 645 z m 377 658 b 377 641 378 649 378 641 b 368 656 377 641 372 648 b 324 704 357 676 340 694 b 314 722 312 711 311 713 b 323 753 316 727 320 741 l 329 773 l 338 765 b 377 658 354 750 370 706 z m 601 769 l 601 769 b 594 680 599 733 596 693 l 592 657 l 591 691 b 580 895 590 751 584 866 b 521 1015 571 959 550 1000 b 506 1025 513 1019 506 1023 b 523 1028 506 1026 514 1028 b 555 1015 539 1028 543 1026 b 601 769 593 980 610 896 z m 205 734 l 205 734 b 197 726 205 732 201 728 b 195 729 189 722 189 722 b 205 734 203 738 205 739 z m 185 815 b 159 755 184 806 159 751 b 182 815 158 759 176 805 l 187 824 z m 223 804 b 207 769 217 785 211 772 b 203 773 201 765 201 766 b 231 835 207 785 230 837 b 223 804 232 835 228 821 z m 293 879 b 264 835 287 871 274 851 b 247 809 255 820 247 808 b 281 889 247 815 266 861 b 319 932 297 920 298 921 b 349 944 331 937 345 943 l 358 947 l 349 934 b 323 908 345 928 333 916 b 293 879 313 900 300 887 z m 440 846 b 441 829 442 837 442 829 b 429 862 437 829 434 838 b 422 893 426 876 423 890 b 424 900 421 897 422 900 b 440 846 428 900 437 871 z m 380 868 b 373 868 382 864 382 864 b 372 871 367 871 367 871 b 380 868 375 872 379 870 z m 402 891 l 402 891 b 396 887 405 883 401 881 b 396 895 393 891 393 893 b 402 891 398 896 400 894 z m 558 901 l 558 901 b 558 890 559 899 559 894 b 556 895 557 887 556 889 b 558 901 556 901 557 903 z m 505 907 b 509 901 508 906 509 903 b 503 900 508 898 505 898 b 499 907 500 901 498 904 b 505 907 500 909 502 909 z m 554 920 b 554 914 555 919 555 916 b 552 916 553 911 552 912 b 554 920 552 919 553 921 z m 277 944 b 248 914 262 928 249 914 b 267 945 245 914 255 930 b 292 967 273 953 285 963 b 277 944 303 974 301 970 z m 550 934 b 551 928 551 933 552 930 b 548 930 549 925 549 926 b 550 934 548 934 549 936 z m 428 943 b 434 934 432 939 435 935 b 426 942 433 933 429 936 l 420 951 z m 504 947 b 502 932 506 936 505 932 b 478 957 494 932 490 936 b 488 981 466 979 467 981 b 504 947 499 981 499 981 z m 383 986 b 361 974 376 977 371 974 l 349 974 l 357 981 b 391 998 368 989 389 1000 b 383 986 391 998 388 992 z m 470 1000 b 453 1003 445 994 442 995 b 484 1007 462 1010 476 1012 b 470 1000 486 1005 482 1002 z "},"R":{"ha":635,"x_min":0,"x_max":0,"o":"m 124 -204 l 124 -204 b 142 -79 138 -213 140 -204 b 152 46 145 37 145 40 b 164 37 160 52 160 51 b 176 22 167 24 169 22 b 190 54 185 22 188 29 b 193 25 191 62 192 49 b 204 -17 195 -17 195 -17 b 216 15 213 -17 213 -16 b 225 50 218 35 221 48 b 236 191 229 54 231 81 l 242 328 l 268 352 b 311 392 283 365 302 383 l 328 407 l 329 388 b 333 338 330 377 332 355 b 338 301 335 321 336 304 b 360 304 341 293 356 295 b 363 298 363 311 363 310 b 359 235 363 291 362 262 l 355 186 l 367 175 b 384 168 376 166 379 165 b 392 237 389 171 390 181 l 394 302 l 398 268 b 418 147 400 249 409 195 b 436 44 427 100 435 53 b 454 19 439 25 446 16 b 456 59 460 21 461 33 b 455 82 453 71 453 79 b 457 104 457 84 458 94 l 455 123 l 464 118 b 473 107 469 116 473 111 b 496 10 473 91 491 15 b 520 17 503 3 518 7 b 519 293 521 22 520 146 b 523 564 518 528 518 561 b 535 574 526 567 531 571 b 538 586 541 578 542 581 b 546 608 535 591 537 595 b 570 647 553 616 564 634 b 581 705 580 668 581 673 b 586 760 581 725 584 749 b 579 829 592 783 590 809 b 518 893 570 847 541 878 l 501 905 l 520 911 b 549 935 541 917 553 926 b 483 944 546 943 529 946 l 444 943 l 431 955 b 416 972 423 962 417 970 b 348 987 415 978 371 987 b 312 994 338 987 322 990 b 299 1053 291 1002 290 1004 b 303 1092 304 1077 305 1089 b 285 1087 297 1100 289 1097 b 275 1065 283 1082 279 1072 b 261 1022 272 1058 265 1039 b 244 981 256 1005 249 987 b 245 1020 233 968 233 974 b 252 1060 250 1039 253 1058 b 242 1064 251 1063 247 1065 b 227 1036 235 1063 233 1059 b 212 1004 221 1014 218 1007 b 197 984 207 1001 201 993 l 192 968 l 131 953 b 26 908 30 928 20 923 b 91 895 29 899 37 898 b 124 890 133 893 139 892 b 88 876 97 886 89 883 b 131 863 86 865 93 863 l 168 863 l 165 852 b 148 785 164 845 156 815 b 80 396 121 683 105 591 b 41 -40 55 197 41 42 b 58 -95 41 -89 44 -100 b 85 -22 68 -92 74 -75 b 99 -15 100 45 102 46 b 105 -71 98 -67 98 -69 b 112 -98 111 -73 112 -76 b 124 -204 112 -138 119 -201 z m 78 63 l 78 63 b 71 9 80 52 77 35 l 63 -28 l 64 25 b 91 319 67 114 86 314 b 93 300 94 322 94 315 b 78 63 86 222 77 77 z m 160 217 b 153 195 156 142 151 127 b 159 259 154 231 156 257 b 160 217 161 262 162 249 z m 185 242 l 185 242 b 185 225 186 237 186 229 b 184 234 185 220 184 225 b 185 242 184 244 185 248 z m 499 424 b 501 369 500 413 501 388 l 500 334 l 497 364 b 495 419 496 380 495 405 l 495 443 z m 101 404 b 98 374 101 396 99 383 b 97 387 96 362 95 365 b 101 404 99 417 102 428 z m 265 384 b 256 371 267 384 263 378 l 243 359 l 243 368 b 252 382 243 376 245 379 b 265 384 258 384 263 385 z m 354 409 b 349 407 351 388 349 388 b 353 424 349 416 351 424 b 354 409 354 424 355 417 z m 104 444 l 104 444 b 104 430 105 441 105 435 b 102 436 103 426 102 429 b 104 444 102 444 103 448 z m 107 474 l 107 474 b 107 464 108 472 108 467 b 106 468 106 460 106 462 b 107 474 106 474 106 477 z m 111 503 b 111 494 112 500 112 496 b 109 498 110 491 109 493 b 111 503 109 503 110 505 z m 484 532 b 481 511 484 528 482 518 l 478 497 l 476 512 b 478 533 474 524 474 529 b 484 532 483 538 484 538 z m 114 533 b 114 526 115 532 115 529 b 112 528 113 523 112 524 b 114 533 112 532 113 534 z m 118 561 b 118 554 119 560 119 557 b 116 556 117 551 116 552 b 118 561 116 560 117 562 z m 291 558 b 285 555 290 557 287 555 b 288 560 280 555 281 557 b 291 558 291 561 292 560 z m 294 588 b 258 569 277 578 260 569 b 255 581 255 569 254 573 b 259 629 256 587 258 609 b 291 870 261 664 288 865 b 441 830 292 872 437 833 b 426 797 441 829 435 814 b 393 723 418 780 403 747 b 351 644 382 695 368 668 b 294 588 327 608 325 606 z m 514 601 b 493 582 510 597 501 588 l 479 571 l 488 583 b 509 603 493 590 503 599 l 521 609 z m 549 652 b 521 618 537 628 525 613 b 530 637 517 625 522 635 b 537 648 535 639 537 642 b 556 672 537 656 553 675 b 549 652 557 671 554 662 z m 465 637 b 454 647 432 623 431 624 b 495 678 472 666 495 683 b 488 660 495 677 491 669 b 465 637 482 646 478 642 z m 534 690 b 512 673 526 676 512 665 b 538 704 512 678 534 704 b 534 690 540 704 538 698 z m 560 692 b 561 685 562 691 562 688 b 559 687 560 683 559 683 b 560 692 558 691 559 693 z m 476 712 b 448 694 454 696 448 692 b 473 761 448 698 471 759 b 485 745 474 763 480 755 l 494 726 z m 550 738 b 536 742 544 734 542 735 b 530 765 532 746 530 755 b 546 759 530 786 535 784 b 550 738 552 746 553 740 z m 569 784 b 560 778 569 770 564 766 b 537 813 559 782 548 798 b 506 873 517 840 502 868 b 548 838 509 876 535 854 b 569 784 561 821 569 803 z m 454 799 b 446 785 452 794 449 788 b 447 792 442 781 442 783 b 454 799 455 808 457 811 z m 203 827 b 203 820 204 826 204 823 b 201 822 202 817 201 818 b 203 827 201 826 202 828 z m 215 868 b 209 847 215 866 212 857 l 204 829 l 206 845 b 215 868 208 860 214 877 z m 463 863 b 458 855 463 862 461 858 b 442 868 454 850 452 852 b 432 887 436 877 431 886 b 463 863 434 889 462 866 z m 383 874 b 367 874 385 870 380 870 b 369 877 359 876 359 877 b 383 874 376 877 382 876 z m 348 901 l 348 901 b 344 899 352 900 350 899 b 338 901 338 899 335 900 b 348 901 340 902 345 902 z m 127 921 b 105 917 126 918 119 916 b 94 919 94 917 89 918 b 116 923 99 920 109 922 b 127 921 127 925 129 925 z m 313 922 b 298 923 298 919 294 919 b 325 928 303 928 325 932 b 313 922 325 926 320 923 z m 477 922 b 475 920 480 921 479 920 b 471 922 472 920 470 921 b 477 922 472 923 475 923 z "},"S":{"ha":643,"x_min":0,"x_max":0,"o":"m 244 75 l 244 75 b 278 93 248 66 257 70 b 322 123 297 114 302 117 b 374 143 353 132 371 139 b 406 156 375 145 390 151 b 463 200 457 173 474 186 b 438 205 460 203 451 205 b 416 212 421 205 417 206 b 406 219 415 216 411 219 b 401 227 400 219 399 220 b 408 243 402 231 406 238 l 414 251 l 425 244 b 484 215 445 230 477 215 b 494 221 488 215 492 218 b 463 258 495 226 487 235 l 431 288 l 435 301 b 433 326 439 313 438 316 b 433 334 426 337 426 337 b 509 314 452 327 500 314 b 519 330 521 314 527 323 b 481 347 516 333 499 340 b 438 369 457 355 445 361 b 416 394 433 375 423 386 b 405 432 404 408 404 409 b 362 527 408 471 392 505 b 342 560 352 534 348 540 b 338 587 338 573 336 586 b 357 596 339 588 348 592 b 431 649 397 614 431 637 b 503 695 431 656 440 662 b 578 738 543 716 576 735 b 576 750 579 741 578 747 b 536 752 572 759 559 759 l 519 747 l 521 757 b 497 777 524 773 515 780 b 327 701 456 770 386 739 l 293 679 l 286 686 b 262 689 278 694 266 696 b 258 673 261 687 259 679 b 236 653 256 662 253 660 b 216 628 214 644 206 635 b 192 614 221 624 218 623 b 160 601 175 609 161 603 b 167 587 157 597 162 587 b 171 577 169 587 171 583 b 189 565 171 568 172 567 b 238 565 201 563 220 563 l 268 568 l 270 557 b 269 526 271 551 271 537 l 266 505 l 242 520 b 212 533 229 528 215 534 b 240 483 198 531 204 519 b 283 435 260 463 280 441 b 298 424 287 427 291 424 b 334 392 308 424 325 409 b 332 382 339 382 339 382 b 310 367 320 382 310 375 b 347 312 310 359 325 337 b 364 274 363 295 364 293 b 324 204 364 247 354 230 l 301 184 l 285 192 l 269 200 l 276 208 b 231 230 292 228 277 235 b 100 198 190 225 153 216 b 24 176 76 190 42 180 b -20 162 5 172 -14 166 b -35 155 -25 158 -32 155 b -40 152 -38 155 -40 153 b -32 148 -40 150 -36 148 b -21 145 -27 148 -22 147 b 0 136 -20 143 -11 139 b 18 120 16 130 18 129 b 28 110 18 113 20 111 b 39 101 34 109 38 106 b 109 96 41 94 42 94 b 193 102 147 97 185 100 b 223 107 201 104 215 106 b 248 111 231 108 242 110 b 257 110 254 112 258 112 b 244 75 248 96 243 80 z m 173 122 b 171 120 176 121 175 120 b 166 122 167 120 165 121 b 173 122 167 123 170 123 z m 191 126 b 189 123 194 124 193 124 b 184 125 185 123 183 124 b 191 126 185 127 188 127 z m 399 176 b 387 176 392 172 384 172 b 397 180 388 178 392 180 b 399 176 403 180 403 179 z m 159 200 l 159 200 b 157 198 162 199 161 198 b 152 200 153 198 151 199 b 159 200 153 201 156 201 z m 252 211 b 204 203 247 207 232 205 b 183 206 164 201 164 201 b 231 214 194 209 215 213 b 252 211 257 216 258 216 z m 361 341 b 347 346 358 333 355 334 b 349 358 337 359 337 360 b 361 341 360 356 365 350 z m 378 474 b 384 441 382 462 385 450 b 372 460 383 426 383 427 b 360 496 365 478 360 495 b 378 474 360 504 370 490 z m 335 505 b 329 504 341 485 338 485 b 323 523 324 513 322 522 b 335 505 326 526 331 519 z m 319 561 b 324 545 322 552 324 545 b 309 573 316 545 306 564 b 319 561 312 583 313 581 z m 262 591 b 236 586 261 589 249 587 l 213 584 l 234 589 b 262 591 260 595 267 596 z m 305 602 b 294 596 303 600 298 598 b 295 605 282 593 283 601 b 305 602 305 609 310 607 z m 450 726 b 397 710 427 719 403 711 l 387 708 l 397 714 b 436 730 403 717 421 724 b 449 738 461 739 463 740 l 433 736 l 449 743 b 502 756 478 755 502 761 b 450 726 501 746 491 740 z m 469 742 b 473 740 467 741 469 740 b 478 742 478 740 480 741 b 469 742 475 743 471 743 z "},"T":{"ha":586,"x_min":0,"x_max":0,"o":"m 324 212 b 341 213 329 206 335 206 b 341 312 344 217 344 237 b 372 689 334 451 338 496 b 380 739 376 711 380 733 b 442 756 380 750 379 750 b 505 772 497 762 505 764 b 495 781 505 777 502 780 b 499 802 479 784 481 794 b 508 826 516 810 520 823 b 514 846 496 829 500 842 b 523 869 528 851 533 864 b 351 855 516 871 441 865 b 203 840 317 851 250 844 b 109 822 120 832 115 831 b 84 811 104 816 96 813 b 71 781 53 807 48 793 b 84 766 81 776 84 772 b 96 754 84 760 87 757 l 107 751 l 94 747 b 78 727 79 743 71 734 b 117 723 81 724 93 723 b 235 734 152 724 224 730 b 229 656 244 736 244 730 b 205 445 211 562 205 510 b 221 318 205 384 208 356 b 260 310 234 279 249 275 b 268 321 265 328 266 329 b 272 276 270 316 271 296 b 280 241 272 241 272 241 b 290 253 288 241 289 243 l 292 265 l 302 248 b 316 232 308 239 314 232 b 319 224 318 232 319 228 b 324 212 319 220 321 214 z m 313 312 b 314 251 314 279 314 251 b 300 272 313 249 305 260 b 303 328 295 283 296 288 l 311 372 z m 249 358 l 249 358 b 241 329 246 343 243 330 b 234 346 240 328 237 336 b 227 485 227 380 224 437 b 241 594 231 541 238 598 b 244 554 242 592 244 574 b 249 452 245 534 247 488 b 249 358 253 398 252 381 z m 315 385 b 315 376 316 383 316 379 b 313 381 314 374 313 376 b 315 385 313 386 314 388 z m 321 551 l 321 551 b 306 463 319 521 307 448 b 321 581 305 471 319 577 b 321 551 322 583 322 569 z m 325 603 b 325 596 326 602 326 599 b 323 598 324 593 323 594 b 325 603 323 602 324 604 z m 316 707 l 316 707 b 304 662 310 686 305 666 b 302 698 303 659 302 675 l 302 741 l 313 743 b 326 744 320 744 325 745 b 316 707 326 744 322 727 z m 271 717 b 267 708 269 683 267 680 b 269 735 267 723 267 735 b 271 717 270 735 271 727 z m 330 780 b 309 778 324 779 314 778 b 307 781 301 778 301 778 b 341 785 320 786 341 789 b 330 780 341 783 336 781 z m 240 792 b 196 787 235 790 215 788 b 174 788 173 785 166 786 b 240 792 191 792 253 796 z m 125 794 b 102 792 109 788 104 787 b 109 795 100 794 104 795 b 128 797 115 795 123 796 b 125 794 134 798 132 797 z m 433 800 l 433 800 b 380 793 388 788 380 786 b 444 809 380 800 419 810 l 463 809 z m 296 801 b 291 799 298 800 296 799 b 287 801 286 799 284 800 b 296 801 289 802 293 802 z m 313 805 b 311 803 316 804 315 803 b 306 805 307 803 305 803 b 313 805 307 806 310 806 z "},"U":{"ha":581,"x_min":0,"x_max":0,"o":"m 512 105 l 512 105 b 522 102 514 103 518 101 b 527 153 526 103 527 110 l 527 203 l 534 193 b 548 189 541 185 543 185 b 537 264 556 196 554 207 b 521 336 528 292 522 319 b 523 347 519 364 519 364 b 533 328 526 336 529 329 b 538 367 542 327 543 336 b 520 516 533 394 525 457 b 523 547 518 536 518 541 b 524 582 528 552 529 556 b 523 639 520 604 520 616 b 523 675 526 661 526 670 b 518 730 520 679 518 699 b 511 737 518 780 513 785 b 508 696 511 723 510 705 b 503 710 506 681 505 682 b 500 809 502 727 500 771 b 498 900 500 847 499 888 b 486 922 495 919 494 921 b 462 875 474 923 465 907 l 459 850 l 456 866 b 443 883 453 880 451 882 b 429 854 433 884 430 879 b 420 831 428 844 425 837 b 407 846 411 823 411 823 b 390 869 404 863 399 869 b 377 825 380 869 377 858 b 370 795 377 798 376 795 b 361 789 366 795 362 793 b 365 571 357 780 359 697 l 370 451 l 362 429 b 329 398 351 399 350 398 b 292 393 319 398 302 396 b 270 390 281 390 272 389 b 254 424 269 392 262 407 b 224 486 247 441 233 469 b 191 699 191 543 191 543 l 191 836 l 182 836 b 169 815 174 836 173 834 b 158 739 166 803 162 769 b 151 687 155 710 152 686 b 145 716 150 687 148 701 b 122 783 138 752 131 773 b 114 802 118 787 115 795 b 104 815 113 813 111 815 b 94 802 96 815 95 813 b 88 787 93 795 90 789 b 83 739 84 785 83 774 b 81 696 83 715 82 695 b 74 731 80 697 77 713 b 54 794 66 779 62 792 b 47 801 50 795 47 798 b 31 814 47 808 37 816 b 33 755 24 811 25 796 b 51 646 37 737 45 688 b 97 392 63 562 80 468 b 125 305 112 322 117 307 b 138 285 129 304 134 297 b 152 265 142 273 147 267 b 165 228 158 264 160 258 b 188 186 172 193 176 184 b 196 211 193 187 195 192 b 201 229 197 224 199 232 b 215 225 202 227 209 225 b 244 214 223 225 234 221 b 358 203 283 187 347 181 b 346 234 363 215 360 224 l 333 242 l 347 248 b 377 255 354 251 368 254 b 394 262 389 255 393 256 b 407 280 395 266 401 274 b 418 299 416 289 419 294 b 429 309 415 307 424 316 b 442 255 431 307 437 282 b 464 205 452 210 457 198 b 459 249 465 206 463 226 b 452 338 447 312 446 332 b 459 332 457 341 458 341 b 469 242 462 320 464 295 b 480 177 471 219 476 190 b 512 105 487 153 504 115 z m 240 280 b 235 280 242 273 241 273 b 234 285 232 283 232 285 b 240 280 236 285 239 283 z m 215 306 b 201 311 212 301 208 302 b 194 336 191 321 187 339 b 215 306 201 333 218 310 z m 286 359 b 285 356 288 357 287 356 b 281 359 283 356 281 357 b 286 359 281 364 283 364 z m 336 367 b 329 363 335 365 331 363 b 323 367 326 363 323 365 b 331 370 323 368 327 370 b 336 367 335 370 337 368 z m 453 380 b 443 387 453 364 445 370 b 448 416 440 405 442 416 b 453 380 451 416 452 409 z m 192 406 b 192 395 194 399 194 395 b 186 415 189 395 183 412 b 192 406 187 416 190 412 z m 398 455 b 394 444 398 452 396 447 b 391 444 391 440 391 440 b 394 455 391 447 392 452 b 398 455 397 460 398 460 z m 393 550 l 393 550 b 394 519 395 533 395 519 b 388 568 390 519 386 553 b 393 550 389 577 390 570 z m 140 596 b 140 557 142 573 142 560 b 131 623 137 554 134 572 b 140 596 128 662 134 643 z m 386 603 b 386 591 387 600 387 594 b 385 597 385 587 385 590 b 386 603 385 604 385 606 z "},"V":{"ha":712,"x_min":0,"x_max":0,"o":"m 340 -88 l 340 -88 b 353 -85 347 -90 348 -90 b 350 -61 357 -80 356 -76 b 349 -14 341 -39 340 -34 b 362 -1 355 0 357 2 b 370 -4 364 -4 368 -5 b 368 -40 371 -3 370 -19 b 367 -84 364 -72 363 -80 b 388 -80 374 -93 384 -91 b 417 41 390 -75 403 -20 b 487 317 456 215 472 277 b 528 433 495 338 513 390 b 573 551 543 475 564 529 b 647 728 611 638 624 669 b 679 809 660 762 675 799 b 675 838 688 828 686 838 b 660 820 670 838 666 833 b 648 806 654 808 651 804 b 650 826 644 808 644 812 b 645 852 658 846 657 852 b 629 834 639 852 636 848 b 618 815 624 825 619 816 b 624 833 616 814 619 822 b 682 991 657 906 682 975 b 663 1005 682 1004 674 1010 b 563 825 644 997 605 927 b 535 774 546 782 541 774 b 499 731 529 774 521 764 b 321 363 433 628 374 507 b 304 322 312 340 305 322 b 277 454 304 323 291 382 b 215 700 252 578 230 665 b 201 713 209 711 206 715 b 185 749 195 712 193 716 b 167 840 174 798 174 798 b 135 926 156 917 147 939 b 134 856 131 922 131 908 b 138 712 136 820 138 755 b 142 615 139 670 140 626 l 144 596 l 138 611 b 112 683 135 620 123 653 b 87 763 100 714 89 750 b 57 866 83 793 67 845 b 41 882 52 879 48 882 l 32 882 l 33 847 b 68 625 34 806 46 729 b 155 318 90 521 114 438 b 210 154 174 260 199 186 l 230 94 l 217 54 b 206 9 210 31 205 11 b 216 6 207 7 212 6 b 234 23 222 6 227 11 l 245 41 l 253 18 b 279 -1 262 -7 268 -12 b 287 6 282 3 286 6 b 301 -26 288 6 294 -8 b 321 -60 310 -46 317 -58 b 332 -74 325 -61 329 -67 b 340 -88 334 -80 337 -87 z m 335 50 l 335 50 b 336 10 343 26 343 25 l 330 -5 l 320 30 b 321 77 310 66 310 83 b 335 50 324 75 330 63 z m 272 57 b 277 35 275 46 278 36 b 263 74 275 33 262 71 b 272 57 265 76 268 68 z m 381 49 b 378 41 381 45 380 41 b 378 52 373 41 373 45 b 381 49 380 56 381 56 z m 385 140 b 367 91 377 120 369 98 b 357 98 364 78 364 79 b 358 110 354 106 354 108 b 381 146 361 111 371 127 b 399 179 391 166 399 180 b 385 140 399 178 392 161 z m 304 118 b 294 121 299 106 297 106 b 300 147 292 133 295 147 b 304 118 305 147 307 128 z m 289 188 l 289 188 b 281 172 289 176 284 166 b 283 187 279 174 281 181 l 289 199 z m 264 279 b 273 225 274 244 275 234 b 259 264 270 214 268 218 b 251 318 254 291 250 316 b 264 279 252 320 258 303 z m 386 417 b 321 255 352 332 323 259 b 316 258 318 249 318 249 b 339 349 312 273 315 286 b 480 659 382 466 447 608 b 468 619 494 680 494 680 b 386 417 457 592 420 501 z m 178 334 b 186 294 183 313 186 295 b 126 475 184 293 140 428 b 66 743 109 535 66 728 b 76 719 66 746 71 735 b 104 641 82 704 95 668 b 160 429 131 566 150 493 b 178 334 164 397 172 354 z m 509 496 b 463 369 486 432 466 375 b 470 408 457 349 459 365 b 502 505 475 432 490 476 b 550 614 526 566 548 616 b 509 496 551 613 532 560 z m 210 426 b 210 420 211 425 211 422 b 208 422 209 417 208 418 b 210 426 208 425 209 428 z m 206 444 b 207 437 207 443 208 440 b 204 439 205 434 205 435 b 206 444 204 443 205 445 z m 203 465 b 203 458 204 464 204 461 b 201 461 202 456 201 457 b 203 465 201 464 202 466 z m 185 581 l 185 581 b 185 570 186 578 186 573 b 184 574 184 566 184 568 b 185 581 184 580 184 583 z m 65 770 b 65 758 66 767 66 761 b 63 764 64 754 63 757 b 65 770 63 771 64 773 z m 61 788 b 61 781 62 786 62 783 b 59 783 60 778 59 779 b 61 788 59 787 60 789 z m 636 917 b 615 878 628 898 619 880 b 614 887 609 874 609 874 b 649 954 624 910 647 956 b 636 917 650 953 644 937 z "},"W":{"ha":929,"x_min":0,"x_max":0,"o":"m 658 -130 b 670 -131 662 -135 664 -135 b 664 -61 674 -129 673 -117 b 665 163 641 78 641 61 b 848 700 702 325 754 477 b 900 875 917 865 920 875 b 839 807 888 875 860 844 b 821 777 830 790 821 777 b 830 818 820 778 824 796 b 843 877 836 840 841 866 b 838 899 845 893 844 896 b 815 877 829 904 826 902 b 782 818 809 865 794 839 b 706 669 758 777 725 713 b 693 643 700 654 694 642 b 731 755 691 645 714 712 b 815 919 753 808 790 880 b 833 951 825 935 833 949 b 824 958 832 953 828 956 b 828 981 817 961 817 962 b 868 1048 834 992 852 1022 b 889 1108 897 1094 902 1106 b 757 896 871 1112 807 1008 b 720 817 748 876 732 840 b 580 416 676 726 631 596 l 574 395 l 567 409 b 547 425 559 426 554 429 b 520 475 536 420 526 439 b 494 585 507 551 500 579 b 482 640 489 589 486 601 b 457 763 474 700 463 759 b 432 759 450 767 438 766 b 405 697 425 750 410 718 b 394 685 401 683 400 681 b 375 670 386 690 378 684 b 366 656 374 665 370 659 b 377 688 361 653 364 662 b 385 736 396 725 397 735 b 345 677 375 738 364 721 b 315 606 338 658 324 626 b 249 435 297 565 268 490 b 236 402 243 416 237 401 b 219 662 235 403 233 437 b 196 854 213 767 206 825 b 184 910 192 865 187 890 b 164 957 178 949 175 957 b 152 909 156 957 154 950 b 147 840 151 891 149 860 l 145 803 l 140 827 b 109 924 134 860 116 914 b 88 926 103 933 92 934 b 86 889 87 923 86 906 b 83 859 86 871 85 858 b 75 857 82 860 78 859 b 60 908 71 855 69 863 b 43 963 51 953 48 962 b 33 926 31 965 29 959 b 44 818 35 909 40 860 b 81 509 52 732 68 597 b 93 406 86 475 91 429 b 113 261 98 357 106 296 b 127 177 116 248 122 210 b 147 75 132 144 141 98 b 157 0 155 44 157 26 b 169 -98 157 -48 163 -93 b 175 -110 172 -100 175 -105 b 180 -124 175 -115 177 -121 b 231 10 194 -135 208 -98 b 253 78 245 74 252 97 b 247 41 253 73 250 57 b 235 -35 244 25 239 -9 b 234 -87 228 -79 228 -83 b 244 -90 237 -89 241 -91 b 302 165 256 -85 277 7 b 331 296 314 239 320 264 b 343 323 339 317 344 329 b 316 162 342 316 330 244 b 289 -16 303 80 290 0 b 293 -47 287 -41 288 -45 b 304 -46 297 -48 302 -48 b 342 139 310 -40 313 -28 b 402 449 367 290 378 347 b 416 513 409 482 416 511 b 460 294 417 526 455 338 b 503 47 469 210 488 101 b 518 -12 510 20 517 -6 b 523 -26 519 -18 521 -24 b 537 -53 524 -28 531 -40 b 557 -76 547 -72 550 -76 b 572 -82 562 -76 569 -79 b 583 -86 575 -86 579 -88 b 596 -57 589 -84 596 -68 b 601 -46 596 -54 599 -49 b 613 -20 604 -43 609 -31 l 620 1 l 626 -18 b 643 -81 629 -28 637 -57 b 658 -130 649 -106 656 -127 z m 185 -6 b 179 -12 180 -27 179 -27 b 183 5 178 -2 180 4 b 185 -6 187 7 188 4 z m 591 22 b 586 21 587 4 586 4 b 589 36 586 29 587 36 b 591 22 592 36 592 31 z m 563 45 b 563 39 564 44 564 41 b 561 41 562 36 561 37 b 563 45 561 44 562 47 z m 536 79 b 536 62 538 70 538 63 b 533 70 534 61 533 65 b 530 89 532 75 531 84 b 530 96 529 94 529 97 b 536 79 531 95 534 87 z m 596 91 b 599 65 599 80 600 68 b 593 81 598 61 596 69 b 587 109 591 94 588 106 b 588 112 585 113 586 114 b 596 91 591 111 594 101 z m 213 119 l 213 119 b 205 80 210 99 206 82 b 206 179 201 70 202 168 b 215 170 209 185 210 183 b 213 119 220 155 219 151 z m 653 379 b 644 349 653 376 649 362 b 644 358 633 317 633 324 b 653 379 648 373 652 382 z m 547 357 b 544 344 549 347 548 344 b 540 350 542 344 540 347 b 538 370 540 353 539 363 b 540 378 536 383 536 384 b 547 357 542 374 546 365 z m 215 390 b 216 363 217 376 217 364 b 211 412 214 360 209 406 b 215 390 212 414 214 405 z m 655 396 b 655 389 656 395 656 392 b 653 391 654 386 653 387 b 655 396 653 395 654 397 z m 339 563 b 310 480 331 535 310 474 b 338 566 309 487 332 557 b 339 563 341 571 341 570 z m 747 648 b 710 543 733 600 710 535 b 733 634 710 548 723 600 b 762 704 742 664 759 706 b 747 648 762 703 756 678 z m 400 566 b 393 557 395 554 389 547 b 404 580 399 577 402 582 b 400 566 405 579 403 573 z m 372 573 b 372 566 373 572 373 569 b 370 568 371 563 370 564 b 372 573 370 572 371 574 z m 380 599 b 377 585 380 596 378 590 b 374 583 374 578 374 577 b 377 597 374 587 375 593 b 380 599 379 601 380 602 z m 145 642 l 145 642 b 146 592 147 614 147 592 b 138 622 145 592 142 605 b 124 680 135 639 128 665 b 106 805 113 712 103 783 b 108 843 106 813 107 831 l 108 866 l 113 848 b 145 642 126 800 143 691 z m 827 705 b 786 610 805 654 786 611 b 814 689 778 602 793 645 b 829 729 823 708 830 726 b 831 731 827 732 828 733 b 833 735 834 730 834 731 b 834 739 831 739 832 740 b 835 744 837 737 837 739 b 837 749 834 750 834 751 b 839 751 840 747 841 748 b 870 813 837 755 861 805 b 827 705 874 818 873 814 z m 184 667 b 184 644 185 661 185 650 b 183 656 184 638 183 643 b 184 667 183 668 184 673 z m 426 675 b 421 661 426 671 424 665 b 418 664 415 654 415 654 b 426 675 421 678 426 684 z m 181 711 l 181 711 b 181 694 182 706 182 698 b 179 703 180 689 179 694 b 181 711 179 713 180 717 z m 449 713 b 443 715 452 698 451 699 b 440 733 440 723 438 730 b 449 713 443 739 445 736 z m 799 786 b 785 764 793 765 791 762 b 791 787 782 765 784 772 b 804 807 797 799 803 808 b 799 786 804 806 802 797 z "},"X":{"ha":612,"x_min":0,"x_max":0,"o":"m 9 84 l 9 84 b 36 96 15 76 19 78 b 51 108 44 105 51 110 b 59 102 51 106 54 103 b 97 136 68 99 75 105 b 263 399 115 160 222 330 b 290 443 276 421 288 441 b 357 325 294 447 306 426 b 453 162 425 191 442 162 b 461 168 457 162 461 165 b 436 228 462 171 451 198 b 353 407 392 318 352 405 b 377 371 354 408 365 391 b 405 331 390 350 402 332 b 439 253 411 329 424 301 b 477 173 453 211 468 179 b 494 183 485 168 494 173 b 474 237 494 188 485 212 b 456 288 464 262 455 285 b 455 299 457 291 456 296 b 459 307 452 303 453 305 b 455 341 468 309 467 319 b 435 387 443 363 433 387 b 499 285 439 387 484 314 b 521 250 508 267 518 251 b 532 254 524 249 529 251 b 518 299 538 259 537 262 b 466 421 507 321 483 376 b 413 551 449 466 425 524 b 393 604 399 580 392 601 b 534 789 407 626 508 758 b 570 836 553 810 569 832 b 563 855 573 846 570 855 b 461 735 558 855 549 844 b 414 677 436 703 414 677 b 422 694 413 677 417 685 b 479 768 432 712 454 740 l 496 785 l 475 768 l 454 750 l 467 769 b 505 807 475 779 492 796 b 526 839 528 826 534 834 b 519 850 524 840 520 845 b 489 845 514 862 505 860 l 476 832 l 487 856 b 496 885 493 869 497 883 b 505 908 495 888 499 899 b 509 941 517 928 518 938 b 425 830 497 946 475 916 b 369 738 410 803 385 762 b 336 701 343 699 340 695 b 315 757 333 704 324 730 b 259 892 295 822 279 859 b 226 917 241 919 234 925 b 233 872 221 913 222 906 b 246 828 240 849 246 830 b 228 845 246 827 238 834 b 191 865 208 867 199 872 b 182 865 186 861 185 861 b 152 924 175 876 163 900 b 126 974 146 938 134 960 b 101 999 113 997 110 1000 b 92 987 93 998 92 996 b 129 912 93 974 109 941 b 155 856 136 901 148 876 b 172 812 162 837 170 817 b 170 797 175 806 174 803 b 176 769 164 791 164 790 b 196 713 186 754 191 738 b 239 576 203 681 219 630 l 247 554 l 216 516 b 78 355 180 472 143 429 b -12 212 12 281 -21 228 b -2 206 -10 209 -6 206 b 81 269 8 206 51 239 b 116 296 100 288 111 296 b 127 298 119 295 125 296 b 127 287 131 302 131 300 b 31 125 116 250 74 179 b 9 84 4 91 4 90 z m 47 265 b 22 245 35 254 23 245 b 134 387 14 245 57 300 b 196 459 156 412 184 444 b 220 486 208 474 219 486 b 181 425 223 486 207 461 b 47 265 143 373 72 288 z m 437 437 b 443 419 441 427 444 419 b 415 462 442 419 429 438 b 372 575 388 509 365 568 b 437 437 377 580 399 534 z m 384 439 b 386 426 386 432 387 426 b 350 487 383 426 363 461 b 340 524 339 510 337 516 b 347 535 342 529 345 534 b 384 439 353 536 371 489 z m 259 594 b 264 578 264 585 266 578 b 251 609 261 578 249 607 b 259 594 251 609 255 603 z m 301 630 b 290 625 294 620 292 619 b 269 686 289 628 280 655 b 233 778 258 717 242 759 l 217 814 l 228 803 b 294 673 242 790 278 719 b 301 630 306 640 306 638 z "},"Y":{"ha":551,"x_min":0,"x_max":0,"o":"m 207 108 l 207 108 b 216 104 208 105 212 103 b 244 170 223 105 227 113 b 265 228 255 206 264 232 b 271 218 265 225 268 220 b 265 168 275 215 274 206 b 256 116 259 143 255 119 b 265 110 257 113 261 110 b 326 281 273 110 270 103 b 346 339 336 314 345 340 b 342 299 347 338 345 320 b 328 190 339 278 332 229 b 325 115 321 129 320 119 b 335 115 329 111 331 111 b 464 655 340 119 366 231 b 512 896 514 873 517 890 b 501 896 507 901 506 901 b 428 675 498 894 465 794 b 358 459 390 555 359 458 b 421 716 357 460 412 685 b 466 895 444 795 468 890 b 442 886 462 904 450 899 b 359 704 430 864 379 751 b 286 497 337 653 303 555 b 274 454 281 476 275 457 b 249 525 273 451 262 483 b 167 733 225 607 198 675 b 136 807 157 753 143 786 b 109 855 122 850 116 862 b 126 781 103 849 111 816 b 131 760 134 761 136 756 b 120 765 127 763 123 765 b 101 810 118 764 110 781 b 46 909 74 890 59 917 b 50 880 40 906 41 899 b 95 748 57 864 95 752 b 63 802 95 744 78 774 b 42 829 53 822 47 829 b 41 795 30 829 30 820 b 65 721 47 782 58 749 b 105 590 85 645 91 625 b 221 354 122 548 213 362 b 242 353 228 346 239 346 b 235 380 243 356 240 368 b 227 403 230 392 227 402 b 249 389 231 407 244 398 b 241 307 255 378 255 376 b 207 108 216 182 204 114 z m 395 448 b 358 295 361 303 358 290 b 377 427 357 299 371 391 b 427 598 382 456 425 600 b 395 448 428 597 413 530 z m 275 351 b 272 337 275 348 274 342 b 270 335 270 330 270 329 b 272 349 269 339 271 345 b 275 351 274 354 275 354 z m 299 433 b 287 405 289 393 287 386 b 336 582 287 422 310 507 b 382 701 356 640 382 707 b 331 537 382 695 335 544 b 299 433 325 528 311 482 z m 223 533 b 229 504 226 518 229 505 b 221 520 228 504 225 511 b 196 578 218 529 206 556 b 168 663 179 615 174 629 b 205 586 166 673 191 622 b 223 533 211 572 219 548 z m 143 599 b 151 572 148 585 152 573 b 95 702 147 568 95 687 b 126 647 95 708 120 664 b 143 599 131 635 138 614 z "},"Z":{"ha":728,"x_min":0,"x_max":0,"o":"m 141 22 b 187 63 150 6 162 17 l 202 92 l 245 105 b 454 193 341 135 460 184 b 456 194 453 195 453 196 b 473 199 458 193 466 195 b 656 277 488 207 626 266 b 680 290 667 281 678 287 b 677 302 684 295 683 297 b 661 307 672 306 665 308 b 619 304 657 307 638 305 l 586 302 l 599 309 b 612 333 615 318 619 325 b 588 336 608 337 603 338 l 568 334 l 595 345 b 624 360 610 351 623 358 b 609 376 627 367 618 376 b 370 322 589 376 429 340 b 346 324 354 317 353 317 b 322 315 338 332 330 329 b 314 306 319 310 316 306 b 345 365 311 306 329 339 b 370 406 349 371 360 390 b 417 476 379 423 400 454 b 442 521 441 508 445 516 b 430 524 439 523 434 525 b 446 573 423 523 425 528 b 487 662 459 600 477 640 b 506 703 496 683 505 702 b 557 716 509 706 516 708 b 577 727 572 720 577 722 b 527 732 577 738 568 739 l 517 731 l 525 749 b 577 802 535 773 558 796 b 595 811 585 804 593 808 b 587 829 600 817 596 826 b 584 835 582 830 581 832 b 586 849 587 838 587 844 b 571 860 585 856 581 858 b 410 851 549 864 457 859 b 114 767 327 837 162 790 b 112 741 99 760 98 746 b 97 724 122 737 122 737 b 71 703 78 714 72 709 b 104 688 69 691 75 688 b 135 681 125 688 130 687 b 197 681 142 673 153 673 b 218 684 208 683 217 684 b 76 641 220 682 118 652 b 41 615 34 631 29 627 b 80 611 46 610 52 609 b 155 623 98 613 132 618 b 360 679 188 630 325 668 b 338 618 366 681 363 673 b 262 472 298 533 293 523 b 205 375 247 448 221 404 b 161 300 189 346 169 312 b 90 227 141 272 103 234 b 79 215 83 224 79 220 b 92 209 79 209 82 208 l 106 209 l 93 187 b 85 157 83 168 81 163 b 109 159 90 147 96 148 b 124 162 118 166 120 167 b 133 158 126 159 130 157 b 122 126 140 161 139 158 b 105 78 110 104 106 93 b 112 58 104 61 105 59 b 127 68 117 58 122 61 b 153 76 134 79 149 83 b 146 51 154 74 151 63 b 141 22 140 34 138 27 z m 276 129 b 215 111 244 119 217 111 b 226 126 209 111 217 122 b 336 164 254 141 303 158 b 400 178 356 168 385 174 b 435 186 442 190 441 189 b 276 129 425 179 333 146 z m 169 121 b 155 114 162 117 156 114 b 163 136 153 114 157 124 b 184 157 172 154 174 157 l 195 157 l 187 142 b 169 121 183 135 175 125 z m 233 222 b 210 201 226 209 222 206 l 194 196 l 209 217 b 235 240 226 242 227 243 b 233 222 239 238 239 236 z m 456 227 b 420 214 439 219 422 214 b 470 237 415 214 448 229 b 456 227 497 246 489 240 z m 379 259 b 344 253 368 255 352 252 b 368 265 329 253 331 254 b 430 284 390 271 418 280 b 452 290 441 288 451 291 b 379 259 454 288 407 269 z m 598 280 b 593 274 601 279 598 277 b 584 274 587 272 584 272 b 598 280 584 278 593 282 z m 359 285 b 340 279 355 283 346 281 b 334 280 331 278 329 278 b 354 286 338 282 347 284 b 359 285 362 287 364 287 z m 384 523 b 344 451 365 478 360 468 l 325 431 l 351 483 b 406 580 376 530 409 589 b 384 523 406 578 396 552 z m 326 690 b 324 688 329 689 328 689 b 319 690 320 688 318 689 b 326 690 321 691 324 692 z m 375 703 b 354 697 370 701 361 699 b 361 702 345 696 347 697 b 381 708 371 706 381 709 b 375 703 382 707 379 705 z m 164 724 l 164 724 b 129 710 148 713 139 710 b 146 724 115 709 116 710 b 164 724 185 741 191 741 z m 439 725 b 425 715 436 720 430 716 l 417 712 l 424 725 b 444 745 428 734 435 741 l 457 752 l 451 742 b 439 725 448 736 443 729 z m 259 731 b 223 727 227 723 214 721 b 343 764 251 746 295 760 b 359 761 368 766 369 766 b 259 731 345 755 298 741 z m 186 765 b 162 759 178 762 167 759 b 183 770 153 759 154 760 b 186 765 205 777 208 773 z m 540 837 b 531 837 537 832 531 832 b 536 840 531 839 533 840 b 540 837 539 840 541 839 z "},"[":{"ha":624,"x_min":0,"x_max":0,"o":"m 178 1 l 178 1 b 191 3 181 -3 191 -2 b 196 84 191 22 195 83 b 397 117 199 87 385 117 b 448 112 403 117 426 115 b 490 110 469 109 488 108 b 468 128 497 116 488 123 l 448 132 l 509 147 b 577 171 574 163 577 164 b 496 171 577 184 558 184 b 497 175 488 169 488 170 b 510 183 503 178 509 182 b 526 189 511 185 518 188 b 541 200 536 192 540 195 b 514 211 542 210 532 214 b 524 216 506 210 510 212 b 553 238 551 225 559 231 b 393 237 547 246 460 245 b 287 226 363 233 315 228 l 236 222 l 222 237 l 208 253 l 210 289 b 219 563 216 390 219 478 b 227 735 219 635 221 675 l 235 813 l 262 816 b 452 867 314 820 345 828 b 485 882 468 872 483 879 b 506 894 488 884 498 889 b 503 907 526 903 524 909 b 389 885 483 906 392 888 b 256 853 385 879 276 853 b 242 858 238 854 236 854 b 356 892 249 864 327 887 b 407 898 367 894 390 897 b 434 906 432 900 436 901 b 486 922 433 912 440 914 b 548 943 551 934 549 934 b 528 950 547 950 545 951 b 503 957 512 950 507 951 b 472 962 499 963 496 964 b 467 968 441 959 436 965 b 491 987 491 971 500 978 b 442 987 486 992 482 992 b 320 983 409 983 379 982 l 242 985 l 241 1000 b 216 1001 239 1031 226 1032 l 210 979 l 186 977 b 139 954 141 972 130 967 b 167 946 142 950 151 947 l 189 944 l 168 939 b 144 919 146 935 140 929 b 119 915 146 912 123 908 b 99 913 115 923 103 922 b 88 805 96 904 89 835 b 72 844 88 790 86 794 b 44 904 57 900 53 908 b 39 849 40 903 39 890 b 71 412 39 750 49 615 b 94 196 78 342 89 245 b 105 99 99 148 104 104 b 95 87 106 90 105 89 b 67 85 89 86 76 85 b 46 80 57 85 49 83 b 77 68 38 69 46 66 b 109 61 107 69 108 69 b 132 65 111 45 129 48 b 141 73 132 70 135 73 b 160 76 146 74 155 75 l 169 78 l 172 42 b 178 1 173 22 176 3 z m 223 151 l 223 151 b 198 149 219 147 198 146 b 211 152 198 151 204 152 b 223 151 218 152 223 152 z m 322 182 b 292 178 309 181 296 179 b 290 180 286 177 286 177 b 394 201 297 184 388 203 b 322 182 400 199 347 185 z m 217 232 l 227 219 l 216 219 b 205 232 206 219 205 220 b 207 244 205 239 206 244 b 217 232 207 244 212 239 z m 148 388 l 148 388 b 148 371 148 383 148 375 b 146 381 147 366 146 371 b 148 388 146 390 147 394 z m 94 399 b 94 392 95 398 95 395 b 92 394 93 389 92 390 b 94 399 92 398 93 400 z m 144 466 b 144 433 145 457 145 442 b 143 450 143 424 143 431 b 144 466 143 468 143 476 z m 90 431 b 91 424 92 430 92 427 b 89 426 90 421 89 422 b 90 431 88 430 89 432 z m 87 463 b 87 456 88 462 88 459 b 85 458 86 453 85 454 b 87 463 85 462 86 464 z m 84 500 l 84 500 b 84 490 85 498 85 493 b 82 494 83 486 82 488 b 84 500 82 500 83 503 z m 80 622 b 79 520 80 566 80 520 b 78 532 78 520 78 526 b 73 600 78 538 75 569 b 61 802 66 674 59 800 b 71 764 62 803 66 786 b 80 622 78 728 79 714 z m 122 671 b 116 595 119 640 116 606 b 112 605 115 577 115 578 b 106 672 111 622 108 652 b 106 777 103 699 103 726 b 114 846 110 839 111 850 b 124 800 115 845 119 825 b 130 742 130 770 132 752 b 122 671 129 734 125 702 z m 141 855 b 138 850 141 852 140 850 b 134 855 136 850 134 852 b 138 860 134 858 136 860 b 141 855 140 860 141 858 z m 140 888 b 127 885 132 881 127 880 b 131 889 127 887 129 889 b 140 891 132 889 137 890 b 140 888 146 893 146 893 z "},"\\":{"ha":709,"x_min":0,"x_max":0,"o":"m 638 -59 b 658 -68 650 -71 650 -71 b 650 -5 667 -65 665 -50 b 525 252 614 98 580 169 b 465 387 503 286 497 300 b 412 530 446 440 422 505 b 374 643 402 556 385 606 b 266 891 335 766 307 831 b 141 1007 229 946 163 1007 b 127 998 136 1007 130 1003 b 131 910 120 988 122 961 b 134 883 133 895 135 883 b 117 910 134 883 126 895 b 30 1030 94 950 36 1030 b 22 1024 28 1030 24 1027 b 40 983 19 1020 23 1010 b 135 800 65 944 96 883 b 176 683 158 751 164 735 b 262 389 203 567 229 479 b 421 113 333 197 405 72 b 400 188 422 116 413 150 b 378 258 388 226 378 258 b 400 233 379 259 388 247 b 424 206 411 218 422 206 b 530 45 428 206 506 88 b 605 -65 555 2 596 -59 b 617 -62 609 -67 612 -67 b 614 -43 622 -57 622 -55 b 609 -28 594 -13 593 -9 b 638 -59 619 -38 632 -52 z m 626 -2 b 630 -17 629 -10 631 -17 b 600 22 627 -17 600 17 b 585 47 600 26 593 37 b 555 104 561 76 550 97 b 552 120 557 109 557 113 b 561 115 549 126 552 124 b 580 102 569 106 577 101 b 603 58 584 103 590 92 b 626 -2 613 33 624 6 z m 548 174 b 553 164 552 168 554 164 b 541 183 551 164 539 182 b 548 174 542 184 545 180 z m 358 247 b 379 179 370 210 380 180 b 313 314 377 176 332 270 l 299 350 l 317 332 b 358 247 334 314 336 311 z m 406 274 b 422 245 415 258 422 245 b 410 258 421 245 416 251 b 377 298 405 266 390 284 b 342 357 357 320 351 330 b 306 451 335 374 319 416 b 279 518 292 485 280 515 b 334 413 278 521 303 474 b 406 274 365 353 397 290 z m 303 400 b 319 355 312 375 319 355 b 313 360 318 355 316 357 b 301 365 311 364 305 365 b 289 374 295 363 292 365 b 266 443 287 380 277 411 b 215 615 246 501 213 613 b 303 400 216 617 275 472 z m 389 398 b 365 420 394 390 390 394 b 311 507 344 443 337 455 b 282 570 295 541 282 569 b 286 566 282 572 283 570 b 338 481 288 562 311 523 b 389 398 365 438 388 401 z m 409 437 b 415 416 413 426 416 417 b 390 472 413 415 393 459 b 409 437 386 485 400 460 z m 370 577 b 373 562 372 569 374 563 b 324 663 370 559 330 641 b 318 687 320 675 318 686 b 370 577 320 688 365 592 z m 315 620 b 307 628 324 596 319 601 b 297 655 300 642 296 654 b 315 620 299 657 309 638 z m 231 733 b 234 723 233 728 235 723 b 177 804 231 723 185 789 b 152 914 169 820 148 910 b 190 829 152 914 169 876 b 231 733 210 782 229 739 z m 308 767 b 319 735 315 750 320 736 b 263 838 317 733 273 813 b 249 871 257 852 251 867 b 263 857 244 885 248 880 b 308 767 281 828 293 804 z m 258 793 b 262 774 261 783 263 775 b 250 804 260 771 249 798 b 258 793 251 807 254 803 z m 215 875 b 235 826 227 851 236 828 b 231 828 234 822 232 823 b 199 883 229 831 215 856 b 159 931 171 930 169 932 b 146 955 149 930 149 930 b 145 981 144 968 144 980 b 167 967 146 982 156 976 b 190 936 185 953 188 949 b 215 875 192 927 203 900 z "},"]":{"ha":445,"x_min":0,"x_max":0,"o":"m 259 134 l 259 134 b 278 135 264 124 276 125 b 281 165 279 139 280 153 b 287 192 282 177 285 190 b 320 197 293 200 309 202 b 328 170 328 192 329 190 b 339 142 327 146 329 140 b 347 201 345 143 346 147 b 351 264 347 237 349 261 b 349 275 354 267 354 270 b 354 391 343 282 344 288 b 375 718 367 523 372 590 b 385 827 377 806 378 817 b 388 842 389 835 390 840 b 382 850 386 843 383 847 b 367 856 380 855 376 856 l 355 856 l 364 866 b 371 883 368 871 372 879 b 377 894 371 887 373 892 b 384 904 381 896 384 901 b 283 901 384 915 366 915 b 160 884 241 894 186 887 b 108 875 132 882 111 878 b 81 870 106 873 94 871 b 59 860 60 869 59 868 b 88 850 59 851 59 851 b 123 844 107 849 120 847 b 98 835 129 838 122 835 b 69 820 77 835 65 829 b 88 814 70 816 75 814 b 97 810 101 814 103 813 b 99 795 85 806 87 798 b 110 788 105 794 110 791 b 175 788 110 776 121 776 b 252 805 204 794 239 802 b 276 809 264 808 275 809 b 268 760 276 808 273 786 b 232 368 242 619 236 553 l 230 252 l 197 241 b 126 219 179 235 147 225 b 71 199 104 212 80 204 b 51 191 62 194 53 191 b 43 185 49 191 45 188 b 57 169 36 178 44 169 b 53 158 72 169 70 164 b 49 141 36 151 34 141 b 137 164 58 141 99 152 b 127 157 140 165 136 162 b 110 144 118 151 110 146 b 171 156 110 136 124 139 b 251 182 233 180 248 185 b 230 170 252 181 243 175 b 232 166 203 157 204 156 b 254 173 244 170 253 173 b 255 157 255 173 255 166 b 259 134 255 148 257 137 z m 301 205 b 291 201 298 203 294 201 b 291 205 286 201 286 202 b 301 208 294 207 298 208 b 301 205 306 208 306 208 z m 300 331 b 300 305 301 324 301 312 b 299 318 300 298 299 304 b 300 331 299 333 300 339 z m 265 595 b 265 579 266 591 266 584 b 263 587 264 575 263 579 b 265 595 263 596 264 600 z m 268 622 b 268 609 269 618 269 613 b 267 616 267 606 267 609 b 268 622 267 622 267 625 z m 338 714 b 319 607 331 657 320 594 b 326 665 319 609 322 635 b 335 747 330 695 334 732 b 343 782 336 774 338 782 b 338 714 345 782 342 751 z m 272 648 b 272 640 273 646 273 642 b 270 644 271 637 270 639 b 272 648 270 649 271 651 z m 275 675 l 275 675 b 275 668 276 674 276 671 b 273 670 274 665 273 666 b 275 675 273 674 274 676 z m 189 816 b 151 809 178 813 160 810 l 133 807 l 145 812 b 208 824 159 817 206 826 b 189 816 209 823 200 819 z m 327 817 b 319 813 324 808 319 805 b 324 822 319 817 321 821 b 327 817 327 824 328 822 z m 351 823 b 347 816 351 820 349 817 b 344 821 345 815 344 817 b 347 828 344 825 345 828 b 351 823 349 828 351 826 z "},"^":{"ha":502,"x_min":0,"x_max":0,"o":"m 159 681 b 166 678 160 678 163 677 b 196 748 171 680 178 696 b 231 842 202 764 217 806 b 266 939 245 878 260 922 b 277 968 271 955 276 969 b 292 913 277 968 284 943 b 371 685 320 802 358 693 b 382 687 375 682 378 683 b 365 769 387 691 386 700 b 336 859 352 812 339 852 b 348 840 326 884 332 875 b 424 760 391 751 418 722 b 417 793 426 771 424 778 b 384 888 409 809 384 882 b 407 846 384 889 394 870 b 421 834 445 775 452 768 b 374 948 410 857 389 908 b 335 1045 358 988 341 1032 l 324 1069 l 335 1089 b 342 1127 345 1109 348 1123 b 320 1108 336 1131 329 1125 l 312 1092 l 305 1112 b 282 1134 298 1134 292 1140 b 276 1139 277 1131 276 1131 b 268 1150 276 1146 274 1149 b 251 1128 261 1151 259 1147 b 139 918 233 1088 195 1015 b 58 766 80 816 58 775 b 73 760 58 759 68 755 b 97 799 76 762 86 780 b 92 764 130 861 126 831 b 77 724 83 746 76 728 b 99 729 79 711 89 713 b 112 743 104 736 110 743 b 124 763 114 743 119 752 b 202 908 134 786 201 910 b 180 848 203 908 193 880 b 158 782 167 815 158 785 b 168 777 159 779 163 777 b 189 808 175 777 178 780 b 202 838 195 825 201 838 b 182 774 202 837 194 809 b 159 681 160 708 155 689 z m 291 1055 b 280 1056 285 1045 277 1045 b 278 1067 281 1061 280 1065 b 280 1081 276 1068 276 1073 b 289 1092 283 1088 287 1093 b 291 1055 294 1088 296 1062 z "},"_":{"ha":587,"x_min":0,"x_max":0,"o":"m 88 -19 l 88 -19 b 254 -21 103 -20 178 -21 b 428 -8 387 -20 405 -19 b 467 -1 432 -6 449 -3 b 507 12 493 2 500 4 b 528 20 513 18 518 20 b 544 43 549 20 560 37 b 539 51 541 44 539 47 b 548 55 539 55 542 56 b 566 68 559 53 569 60 b 555 74 565 71 560 74 b 543 75 550 74 545 75 b 529 76 541 76 535 76 b 515 87 522 77 518 80 b 493 98 511 97 509 98 b 475 104 480 98 475 99 b 275 104 475 116 469 116 b 120 95 227 101 157 97 b 48 85 60 92 52 91 b 45 72 45 82 44 76 b 37 66 46 68 44 66 b 32 43 15 66 12 50 b 47 35 39 41 45 37 b 68 26 48 32 58 28 b 78 18 85 22 86 21 b 57 11 74 15 64 13 b 42 -6 44 9 38 3 b 88 -19 45 -13 54 -16 z "},"`":{"ha":351,"x_min":0,"x_max":0,"o":"m 250 789 l 250 789 b 264 788 256 781 259 781 b 256 830 267 791 266 801 b 244 870 249 851 244 869 b 254 858 245 871 249 866 b 269 848 260 848 263 846 b 285 836 275 849 278 847 b 302 825 293 821 298 819 b 286 868 303 827 296 846 b 250 961 277 890 260 932 b 231 997 227 1028 221 1039 b 197 1064 233 990 210 1035 b 177 1094 194 1072 185 1085 b 160 1116 169 1102 161 1112 b 149 1123 159 1120 155 1123 b 141 1111 141 1123 140 1121 l 143 1099 l 123 1120 b 92 1135 104 1141 96 1145 b 84 1131 91 1131 87 1130 b 73 1118 75 1133 67 1124 b 77 1107 75 1116 77 1111 b 86 1084 77 1104 81 1093 b 72 1095 97 1066 96 1067 b 37 1111 55 1116 41 1122 b 71 1047 33 1102 55 1061 b 78 1037 79 1040 82 1035 b 55 1026 61 1045 50 1040 b 159 932 58 1019 111 970 b 206 877 195 903 197 901 b 250 789 218 846 242 797 z "},"a":{"ha":522,"x_min":0,"x_max":0,"o":"m 315 1044 b 295 1015 305 1044 301 1037 b 288 997 293 1005 289 996 b 267 973 281 1000 278 996 b 141 599 224 889 177 750 b 111 484 131 558 117 507 b 89 401 104 462 94 424 b 79 358 84 378 80 358 b -60 291 75 354 -37 300 b -97 263 -97 276 -103 271 b -108 249 -93 259 -95 257 b -128 224 -130 236 -134 231 b -73 227 -122 217 -111 217 b -40 234 -55 232 -40 235 b -76 215 -40 233 -56 225 b -118 191 -96 205 -115 194 b -130 181 -121 189 -126 184 b -116 164 -141 174 -133 163 b 40 221 -94 166 -23 192 b 101 249 73 237 100 250 b 94 160 101 249 98 209 b 73 -30 87 72 81 15 b 74 -58 69 -51 69 -55 b 81 -61 76 -60 80 -61 b 96 -18 86 -61 92 -46 b 102 -3 100 8 100 10 b 110 -18 103 -13 105 -17 b 123 22 120 -20 123 -13 b 146 222 123 74 133 160 l 157 281 l 182 294 b 270 346 195 302 235 325 b 335 382 304 366 334 383 b 360 289 338 381 346 351 b 440 63 385 181 426 63 b 424 201 455 63 452 89 b 400 334 414 240 398 331 b 410 307 401 334 405 322 b 426 279 417 282 419 279 b 424 362 437 279 437 281 b 413 431 418 398 413 429 b 642 548 413 444 552 515 b 688 572 678 561 688 567 b 678 579 688 576 685 578 l 669 580 l 678 588 b 674 608 688 597 686 608 b 535 556 659 608 578 577 b 486 537 514 545 484 533 b 539 564 487 538 511 551 b 591 595 577 582 591 590 b 554 598 591 605 580 606 b 434 553 486 576 463 567 b 400 537 417 544 402 537 b 374 758 394 537 385 614 b 365 864 370 815 366 862 b 360 901 364 865 362 882 b 344 939 357 935 354 942 b 339 971 340 937 339 944 b 334 1007 339 998 338 1006 b 328 1020 331 1008 328 1014 b 315 1044 328 1034 323 1044 z m 286 952 b 280 928 288 952 285 941 b 254 853 275 915 263 881 b 234 800 244 825 235 801 b 233 803 233 799 232 800 b 286 952 261 886 284 952 z m 304 861 b 313 716 306 861 309 824 b 320 596 314 685 317 631 b 320 543 325 534 325 516 b 297 819 299 666 291 758 b 304 861 299 840 302 859 b 304 861 304 861 304 861 z m 228 706 b 228 706 228 706 228 706 b 208 616 229 705 220 665 b 183 529 188 536 183 520 b 228 706 183 550 223 705 z m 278 703 b 278 701 278 703 278 702 b 300 548 279 676 289 605 b 311 489 306 517 311 491 b 277 465 311 487 296 476 b 242 445 259 454 243 445 b 247 519 239 445 240 460 b 278 703 257 595 275 704 z m 219 540 b 217 436 221 538 220 450 b 206 425 216 432 211 427 b 197 432 198 421 197 421 b 218 539 197 442 212 517 b 219 540 218 540 219 540 z m 181 523 b 182 522 181 523 182 523 b 182 515 183 521 183 518 b 180 518 181 513 180 513 b 181 523 180 520 180 522 z m 282 430 b 282 430 282 430 282 430 b 269 420 282 429 276 425 b 237 402 237 399 235 398 b 282 430 238 406 277 430 z m 210 390 b 205 381 213 390 212 386 b 190 376 195 372 190 370 b 201 387 190 379 195 384 b 208 390 204 388 206 389 b 210 390 209 390 209 390 z m 90 324 b 91 324 90 324 91 324 b 89 318 91 322 91 319 b -17 265 80 309 10 274 b -50 254 -34 259 -49 254 b 52 309 -53 254 6 286 b 90 324 70 318 86 324 z "}}}
